<svg width="148" height="67" viewBox="0 0 148 67" fill="none" xmlns="http://www.w3.org/2000/svg">
<path d="M6.32887 57.1331C6.32887 57.1572 6.32887 57.1893 6.32619 57.2294C6.32352 57.2695 6.31817 57.315 6.30747 57.3605C6.29677 57.4059 6.28607 57.4568 6.27002 57.5103C6.25397 57.5637 6.23524 57.6092 6.21117 57.6467C6.1871 57.6868 6.16035 57.7189 6.12557 57.743C6.09347 57.767 6.05603 57.7804 6.01858 57.7804H3.89203L2.57865 64.3339C2.57063 64.366 2.55726 64.3928 2.53586 64.4168C2.51446 64.4409 2.48236 64.4596 2.44223 64.473C2.40211 64.4864 2.34861 64.4971 2.28174 64.5078C2.21487 64.5185 2.13462 64.5212 2.03565 64.5212C1.93668 64.5212 1.85911 64.5158 1.79491 64.5078C1.73339 64.4971 1.68524 64.4864 1.64779 64.473C1.61302 64.4596 1.58894 64.4409 1.57824 64.4168C1.56754 64.3928 1.56487 64.366 1.57289 64.3339L2.88092 57.7804H0.767746C0.714248 57.7804 0.6768 57.7617 0.655401 57.7269C0.636676 57.6921 0.625977 57.644 0.625977 57.5798C0.625977 57.5531 0.628651 57.5183 0.634001 57.4782C0.639351 57.438 0.647376 57.3926 0.658075 57.3417C0.668775 57.2909 0.679475 57.2428 0.695524 57.1946C0.711573 57.1491 0.730298 57.1037 0.754372 57.0635C0.778446 57.0234 0.80252 56.9886 0.831944 56.9646C0.861368 56.9405 0.896142 56.9271 0.93359 56.9271H6.18977C6.24059 56.9271 6.27537 56.9458 6.29409 56.9833C6.32084 57.0207 6.32887 57.0689 6.32887 57.1331Z" fill="white"/>
<path d="M9.33787 59.0885C9.33787 59.1045 9.3352 59.134 9.32985 59.1794C9.3245 59.2249 9.31648 59.2757 9.30845 59.3346C9.30043 59.3934 9.28973 59.4523 9.27368 59.5165C9.25763 59.578 9.2389 59.6368 9.21483 59.6877C9.19076 59.7412 9.16668 59.784 9.14261 59.8187C9.11586 59.8535 9.08911 59.8722 9.05701 59.8722C9.02491 59.8722 8.99281 59.8642 8.95536 59.8508C8.91791 59.8375 8.87779 59.8214 8.83232 59.8C8.78685 59.7813 8.73602 59.7652 8.67717 59.7519C8.61833 59.7385 8.55145 59.7305 8.47388 59.7305C8.34014 59.7305 8.18767 59.7866 8.01647 59.9017C7.8426 60.0167 7.67141 60.1745 7.50557 60.3778C7.33705 60.5811 7.18458 60.8191 7.04816 61.0973C6.90906 61.3729 6.80742 61.6724 6.74055 61.9961L6.28046 64.3393C6.27244 64.3714 6.25906 64.3955 6.24034 64.4169C6.22161 64.4383 6.19219 64.457 6.15207 64.4731C6.11194 64.4891 6.06112 64.4998 5.99692 64.5078C5.93273 64.5159 5.85515 64.5185 5.76153 64.5185C5.66524 64.5185 5.58499 64.5159 5.52614 64.5078C5.46462 64.4998 5.41914 64.4891 5.38705 64.4731C5.35495 64.457 5.33355 64.4383 5.32285 64.4169C5.31215 64.3955 5.31215 64.3687 5.32017 64.3393L6.36606 59.0778C6.36873 59.051 6.38211 59.0243 6.40083 59.0029C6.41956 58.9788 6.44898 58.9601 6.48911 58.944C6.52923 58.928 6.5747 58.9173 6.63088 58.9119C6.68705 58.9066 6.75392 58.9039 6.83149 58.9039C6.91441 58.9039 6.98129 58.9066 7.03211 58.9119C7.08561 58.9173 7.12573 58.928 7.15516 58.944C7.18458 58.9601 7.2033 58.9788 7.21133 59.0029C7.21935 59.027 7.22203 59.051 7.21668 59.0778L7.02409 60.0354C7.11503 59.8749 7.21935 59.7224 7.3424 59.5753C7.46544 59.4282 7.59919 59.2971 7.74363 59.1875C7.88808 59.0778 8.03787 58.9868 8.19569 58.9226C8.35351 58.8558 8.50866 58.8237 8.66112 58.8237C8.728 58.8237 8.79487 58.829 8.86174 58.837C8.92861 58.8477 8.99281 58.8584 9.05166 58.8718C9.11051 58.8852 9.16133 58.9012 9.2068 58.9173C9.25228 58.936 9.28438 58.9547 9.30845 58.9788C9.33252 59.0029 9.33787 59.0377 9.33787 59.0885Z" fill="white"/>
<path d="M13.776 64.3393C13.7599 64.4062 13.7171 64.4516 13.6476 64.4784C13.578 64.5051 13.4603 64.5185 13.2972 64.5185C13.2196 64.5185 13.1554 64.5158 13.1046 64.5078C13.0538 64.4998 13.0136 64.4891 12.9815 64.4757C12.9494 64.4624 12.928 64.4436 12.9173 64.4222C12.9066 64.4008 12.9066 64.3741 12.9173 64.3366L13.1099 63.3442C13.0591 63.47 12.9682 63.6064 12.8344 63.7535C12.7007 63.9006 12.5455 64.037 12.3636 64.1628C12.1817 64.2885 11.9811 64.3901 11.7591 64.473C11.5371 64.556 11.3124 64.5961 11.0824 64.5961C10.7721 64.5961 10.5126 64.5426 10.3093 64.4329C10.106 64.3233 9.94284 64.1788 9.82247 63.9996C9.7021 63.8204 9.61918 63.6171 9.57371 63.3924C9.52824 63.165 9.50684 62.935 9.50684 62.6969C9.50684 62.4776 9.52824 62.2315 9.56836 61.956C9.60848 61.6805 9.67535 61.3969 9.7663 61.108C9.85725 60.8191 9.97762 60.5383 10.1221 60.2681C10.2692 59.9953 10.4431 59.7518 10.6517 59.5352C10.8577 59.3185 11.0984 59.1446 11.3712 59.0163C11.6441 58.8852 11.9544 58.821 12.2994 58.821C12.6445 58.821 12.9414 58.8905 13.1902 59.0323C13.4363 59.1741 13.6583 59.364 13.8535 59.6101L13.9632 59.0778C13.9793 59.0162 14.0247 58.9708 14.097 58.944C14.1719 58.9173 14.2869 58.9039 14.442 58.9039C14.5196 58.9039 14.5838 58.9066 14.6373 58.9119C14.6908 58.9173 14.7309 58.928 14.763 58.944C14.7951 58.9601 14.8138 58.9788 14.8219 59.0029C14.8299 59.0269 14.8326 59.051 14.8272 59.0778L13.776 64.3393ZM13.5941 60.4553C13.4122 60.1879 13.2142 59.9846 13.0003 59.8508C12.7889 59.7171 12.5482 59.6502 12.2861 59.6502C12.0747 59.6502 11.8848 59.701 11.7163 59.8C11.5478 59.899 11.398 60.03 11.2669 60.1932C11.1359 60.3564 11.0235 60.5436 10.9272 60.7523C10.8309 60.9609 10.7533 61.1749 10.6945 61.3969C10.633 61.6189 10.5902 61.8383 10.5607 62.0523C10.5313 62.2663 10.5179 62.4588 10.5179 62.63C10.5179 62.7665 10.5286 62.9029 10.55 63.0366C10.5714 63.1704 10.6116 63.2934 10.6731 63.4058C10.7346 63.5154 10.8149 63.6064 10.9219 63.6733C11.0262 63.7401 11.1626 63.7749 11.3311 63.7749C11.5451 63.7749 11.7591 63.7161 11.9758 63.5957C12.1924 63.4753 12.3931 63.3121 12.5803 63.1008C12.7675 62.8895 12.9334 62.6434 13.0778 62.3599C13.2223 62.0763 13.3293 61.7634 13.3988 61.4183L13.5941 60.4553Z" fill="white"/>
<path d="M20.6211 59.035C20.6211 59.0751 20.6158 59.1126 20.6024 59.1554C20.5917 59.1955 20.5783 59.2383 20.5623 59.2811C20.4179 59.7064 20.2547 60.1344 20.0755 60.5677C19.8936 61.001 19.693 61.4344 19.4736 61.865C19.2543 62.2957 19.0109 62.7183 18.7487 63.1329C18.4866 63.5475 18.1977 63.9488 17.8874 64.334C17.8606 64.3768 17.8285 64.4089 17.7938 64.4329C17.759 64.457 17.7162 64.4757 17.6681 64.4891C17.6199 64.5025 17.5637 64.5105 17.5022 64.5159C17.4407 64.5185 17.3658 64.5212 17.2802 64.5212C17.1598 64.5212 17.0609 64.5185 16.9886 64.5105C16.9137 64.5025 16.8576 64.4918 16.8174 64.4757C16.7773 64.4597 16.7479 64.4383 16.7292 64.4115C16.7104 64.3848 16.6997 64.3527 16.6971 64.3126L15.9213 59.3292C15.9187 59.2864 15.9133 59.249 15.9133 59.2142C15.9106 59.1821 15.9106 59.15 15.9106 59.1233C15.9106 59.0724 15.9187 59.035 15.9347 59.0056C15.9508 58.9788 15.9748 58.9574 16.0096 58.9414C16.0444 58.9253 16.0925 58.9146 16.1514 58.9093C16.2129 58.9039 16.2932 58.9012 16.3948 58.9012C16.4964 58.9012 16.5767 58.9039 16.6409 58.9093C16.7051 58.9146 16.7506 58.9253 16.7827 58.9387C16.8148 58.9521 16.8388 58.9708 16.8495 58.9975C16.8602 59.0243 16.8683 59.0537 16.8736 59.0885L17.5049 63.4218V63.4914L17.5343 63.4566C17.7644 63.1115 17.973 62.7745 18.1656 62.4482C18.3555 62.1218 18.5347 61.7875 18.6979 61.4397C18.8611 61.0947 19.0162 60.7282 19.1633 60.3484C19.3104 59.9658 19.4576 59.5459 19.61 59.0858C19.6207 59.051 19.6395 59.0216 19.6609 58.9949C19.6823 58.9708 19.7144 58.9494 19.7545 58.936C19.7946 58.9226 19.8508 58.9119 19.9176 58.9066C19.9845 58.9012 20.0701 58.8986 20.1718 58.8986C20.2654 58.8986 20.3403 58.9012 20.3991 58.9066C20.458 58.9119 20.5034 58.92 20.5355 58.9307C20.5676 58.9414 20.5917 58.9547 20.6051 58.9708C20.6158 58.9922 20.6211 59.0136 20.6211 59.035Z" fill="white"/>
<path d="M21.8596 64.3393C21.8515 64.3714 21.8382 64.3955 21.8194 64.4169C21.8007 64.4383 21.7713 64.457 21.7312 64.473C21.691 64.4891 21.6402 64.4998 21.576 64.5078C21.5118 64.5158 21.4343 64.5185 21.3406 64.5185C21.2443 64.5185 21.1641 64.5158 21.1052 64.5078C21.0437 64.4998 20.9982 64.4891 20.9661 64.473C20.934 64.457 20.9126 64.4383 20.902 64.4169C20.8913 64.3955 20.8912 64.3687 20.8993 64.3393L21.9452 59.0831C21.9478 59.0564 21.9612 59.0296 21.9799 59.0082C21.9987 58.9841 22.0281 58.9654 22.0682 58.9494C22.1083 58.9333 22.1592 58.9226 22.2234 58.9146C22.2875 58.9066 22.3678 58.9039 22.4668 58.9039C22.5604 58.9039 22.638 58.9066 22.6968 58.9146C22.7583 58.9226 22.8038 58.9333 22.8359 58.9494C22.868 58.9654 22.8894 58.9841 22.9001 59.0082C22.9108 59.0323 22.9135 59.0564 22.9081 59.0831L21.8596 64.3393ZM23.3736 57.3123C23.3548 57.422 23.3281 57.5129 23.2933 57.5878C23.2612 57.6627 23.2157 57.7216 23.1622 57.7671C23.1087 57.8125 23.0392 57.8446 22.9589 57.8634C22.876 57.8821 22.7771 57.8928 22.662 57.8928C22.5497 57.8928 22.4561 57.8821 22.3812 57.8634C22.3063 57.8446 22.2528 57.8125 22.218 57.7671C22.1832 57.7216 22.1645 57.6627 22.1592 57.5878C22.1565 57.5129 22.1618 57.422 22.1832 57.3123C22.2073 57.2027 22.2367 57.1117 22.2715 57.0395C22.3063 56.9673 22.3517 56.9084 22.4026 56.8576C22.4561 56.8094 22.5229 56.7747 22.6032 56.7586C22.6861 56.7399 22.7851 56.7319 22.9001 56.7319C23.0124 56.7319 23.1061 56.7399 23.1783 56.7586C23.2505 56.7773 23.304 56.8094 23.3415 56.8576C23.3789 56.9057 23.3976 56.9673 23.403 57.0395C23.4057 57.1144 23.3976 57.2027 23.3736 57.3123Z" fill="white"/>
<path d="M27.6264 59.3694C27.6264 59.4095 27.621 59.4603 27.6077 59.5245C27.597 59.5887 27.5782 59.6529 27.5568 59.7144C27.5354 59.7759 27.5114 59.8294 27.4819 59.8722C27.4525 59.915 27.4204 59.9364 27.3857 59.9364C27.3402 59.9364 27.284 59.9177 27.2198 59.8803C27.1556 59.8428 27.078 59.8027 26.9844 59.7545C26.8908 59.7091 26.7784 59.6663 26.6501 59.6261C26.519 59.586 26.3638 59.5673 26.1846 59.5673C26.0134 59.5673 25.861 59.5914 25.7299 59.6395C25.5961 59.6877 25.4865 59.7545 25.3955 59.8375C25.3073 59.9204 25.2377 60.0167 25.1922 60.1237C25.1468 60.2307 25.1227 60.343 25.1227 60.458C25.1227 60.6132 25.1735 60.7443 25.2778 60.8459C25.3822 60.9475 25.5105 61.0412 25.6657 61.1241C25.8208 61.2043 25.9894 61.2873 26.1712 61.3675C26.3531 61.4478 26.519 61.5441 26.6741 61.6591C26.8266 61.7741 26.9577 61.9132 27.0593 62.0737C27.1636 62.2369 27.2145 62.4401 27.2145 62.6836C27.2145 62.9564 27.161 63.2105 27.054 63.4459C26.947 63.6813 26.7918 63.8846 26.5912 64.0531C26.3906 64.2216 26.1472 64.3554 25.8636 64.4517C25.5801 64.548 25.2618 64.5934 24.9114 64.5934C24.7295 64.5934 24.5556 64.5801 24.3951 64.5533C24.2346 64.5266 24.0875 64.4918 23.9564 64.449C23.8254 64.4062 23.713 64.358 23.6194 64.3072C23.5258 64.2537 23.4535 64.2056 23.4027 64.1574C23.3706 64.1253 23.3492 64.0932 23.3359 64.0611C23.3225 64.029 23.3145 63.9889 23.3145 63.9408C23.3145 63.9087 23.3171 63.8739 23.3198 63.8284C23.3225 63.7856 23.3305 63.7401 23.3439 63.6947C23.3546 63.6492 23.368 63.6037 23.3813 63.5609C23.3947 63.5181 23.4107 63.478 23.4321 63.4432C23.4509 63.4085 23.4723 63.379 23.491 63.3576C23.5097 63.3362 23.5338 63.3255 23.5605 63.3255C23.606 63.3255 23.6649 63.3523 23.7291 63.4058C23.7959 63.4593 23.8815 63.5155 23.9885 63.5743C24.0955 63.6332 24.2293 63.692 24.3898 63.7428C24.5503 63.7963 24.7482 63.8231 24.9863 63.8231C25.2003 63.8231 25.3848 63.7963 25.5373 63.7428C25.6898 63.6893 25.8182 63.6198 25.9198 63.5315C26.0215 63.4432 26.0963 63.3416 26.1445 63.2239C26.1926 63.1062 26.2167 62.9832 26.2167 62.8548C26.2167 62.6916 26.1659 62.5578 26.0643 62.4535C25.9626 62.3519 25.8342 62.2583 25.6817 62.1727C25.5293 62.0897 25.3608 62.0068 25.1815 61.9239C25.0023 61.841 24.8365 61.7447 24.6813 61.635C24.5262 61.5253 24.3978 61.3889 24.2961 61.2257C24.1945 61.0626 24.141 60.8593 24.141 60.6105C24.141 60.3537 24.1918 60.1157 24.2935 59.8936C24.3951 59.6743 24.5369 59.4844 24.7214 59.3212C24.906 59.1607 25.128 59.035 25.3875 58.944C25.647 58.8531 25.9332 58.8103 26.2488 58.8103C26.3959 58.8103 26.5404 58.821 26.6768 58.8451C26.8159 58.8692 26.9416 58.8986 27.0593 58.9333C27.177 58.9681 27.276 59.0082 27.3643 59.051C27.4499 59.0938 27.514 59.1366 27.5568 59.1794C27.6023 59.2276 27.6264 59.2864 27.6264 59.3694Z" fill="white"/>
<path d="M36.812 64.1281C36.8227 64.2136 36.8254 64.2832 36.82 64.3367C36.8147 64.3902 36.7933 64.4303 36.7558 64.4571C36.7184 64.4838 36.6622 64.5025 36.5847 64.5106C36.5071 64.5186 36.4028 64.5213 36.269 64.5213C36.1834 64.5213 36.1085 64.5186 36.047 64.5132C35.9855 64.5079 35.9373 64.4972 35.9052 64.4838C35.8731 64.4704 35.8464 64.4517 35.833 64.4276C35.817 64.4036 35.8089 64.3741 35.8036 64.3394L35.5227 62.499H32.3744L31.3873 64.3206C31.3686 64.3608 31.3445 64.3902 31.3204 64.4169C31.2937 64.441 31.2589 64.4624 31.2161 64.4785C31.1707 64.4945 31.1118 64.5052 31.0423 64.5106C30.97 64.5159 30.8818 64.5186 30.7774 64.5186C30.6597 64.5186 30.5661 64.5132 30.4966 64.5052C30.427 64.4945 30.3789 64.4758 30.3495 64.449C30.3227 64.4223 30.3147 64.3822 30.3254 64.3287C30.3361 64.2752 30.3655 64.2083 30.4083 64.12L34.3458 57.0984C34.3725 57.0556 34.4019 57.0208 34.434 56.9941C34.4661 56.9673 34.5063 56.9459 34.5571 56.9299C34.6079 56.9138 34.6721 56.9031 34.7497 56.8978C34.8272 56.8924 34.9235 56.8898 35.0359 56.8898C35.1643 56.8898 35.2686 56.8924 35.3488 56.8978C35.4291 56.9031 35.4933 56.9138 35.5414 56.9299C35.5896 56.9459 35.6244 56.9673 35.6431 56.9968C35.6618 57.0262 35.6752 57.061 35.6832 57.1038L36.812 64.1281ZM34.8433 57.933H34.8379L32.7943 61.7019H35.4104L34.8433 57.933Z" fill="white"/>
<path d="M41.9052 59.3694C41.9052 59.4095 41.8999 59.4603 41.8865 59.5245C41.8758 59.5887 41.8571 59.6529 41.8357 59.7144C41.8143 59.7759 41.7902 59.8294 41.7608 59.8722C41.7313 59.915 41.6992 59.9364 41.6645 59.9364C41.619 59.9364 41.5628 59.9177 41.4986 59.8803C41.4344 59.8428 41.3568 59.8027 41.2632 59.7545C41.1696 59.7091 41.0573 59.6663 40.9289 59.6261C40.7978 59.586 40.6427 59.5673 40.4634 59.5673C40.2922 59.5673 40.1398 59.5914 40.0087 59.6395C39.875 59.6877 39.7653 59.7545 39.6743 59.8375C39.5861 59.9204 39.5165 60.0167 39.471 60.1237C39.4256 60.2307 39.4015 60.343 39.4015 60.458C39.4015 60.6132 39.4523 60.7443 39.5566 60.8459C39.661 60.9475 39.7894 61.0412 39.9445 61.1241C40.0996 61.2043 40.2682 61.2873 40.4501 61.3675C40.632 61.4478 40.7978 61.5441 40.9529 61.6591C41.1054 61.7741 41.2365 61.9132 41.3381 62.0737C41.4424 62.2369 41.4933 62.4401 41.4933 62.6836C41.4933 62.9564 41.4398 63.2105 41.3328 63.4459C41.2258 63.6813 41.0706 63.8846 40.87 64.0531C40.6694 64.2216 40.426 64.3554 40.1424 64.4517C39.8589 64.548 39.5406 64.5934 39.1902 64.5934C39.0083 64.5934 38.8344 64.5801 38.6739 64.5533C38.5134 64.5266 38.3663 64.4918 38.2352 64.449C38.1042 64.4062 37.9918 64.358 37.8982 64.3072C37.8046 64.2537 37.7324 64.2056 37.6815 64.1574C37.6494 64.1253 37.628 64.0932 37.6147 64.0611C37.6013 64.029 37.5933 63.9889 37.5933 63.9408C37.5933 63.9087 37.5959 63.8739 37.5986 63.8284C37.6013 63.7856 37.6093 63.7401 37.6227 63.6947C37.6334 63.6492 37.6468 63.6037 37.6601 63.5609C37.6735 63.5181 37.6896 63.478 37.711 63.4432C37.7297 63.4085 37.7511 63.379 37.7698 63.3576C37.7885 63.3362 37.8126 63.3255 37.8394 63.3255C37.8848 63.3255 37.9437 63.3523 38.0079 63.4058C38.0747 63.4593 38.1603 63.5155 38.2673 63.5743C38.3743 63.6332 38.5081 63.692 38.6686 63.7428C38.8291 63.7963 39.027 63.8231 39.2651 63.8231C39.4791 63.8231 39.6636 63.7963 39.8161 63.7428C39.9686 63.6893 40.097 63.6198 40.1986 63.5315C40.3003 63.4432 40.3752 63.3416 40.4233 63.2239C40.4715 63.1062 40.4955 62.9832 40.4955 62.8548C40.4955 62.6916 40.4447 62.5578 40.3431 62.4535C40.2414 62.3519 40.113 62.2583 39.9606 62.1727C39.8081 62.0897 39.6396 62.0068 39.4603 61.9239C39.2811 61.841 39.1153 61.7447 38.9601 61.635C38.805 61.5253 38.6766 61.3889 38.575 61.2257C38.4733 61.0626 38.4198 60.8593 38.4198 60.6105C38.4198 60.3537 38.4706 60.1157 38.5723 59.8936C38.6739 59.6743 38.8157 59.4844 39.0003 59.3212C39.1848 59.1607 39.4068 59.035 39.6663 58.944C39.9258 58.8531 40.212 58.8103 40.5276 58.8103C40.6747 58.8103 40.8192 58.821 40.9556 58.8451C41.0947 58.8692 41.2204 58.8986 41.3381 58.9333C41.4558 58.9681 41.5548 59.0082 41.6431 59.051C41.7287 59.0938 41.7929 59.1366 41.8357 59.1794C41.8838 59.2276 41.9052 59.2864 41.9052 59.3694Z" fill="white"/>
<path d="M46.5624 59.3694C46.5624 59.4095 46.5571 59.4603 46.5437 59.5245C46.533 59.5887 46.5143 59.6529 46.4929 59.7144C46.4715 59.7759 46.4474 59.8294 46.418 59.8722C46.3886 59.915 46.3565 59.9364 46.3217 59.9364C46.2762 59.9364 46.22 59.9177 46.1558 59.8803C46.0916 59.8428 46.0141 59.8027 45.9205 59.7545C45.8268 59.7091 45.7145 59.6663 45.5861 59.6261C45.455 59.586 45.2999 59.5673 45.1207 59.5673C44.9495 59.5673 44.797 59.5914 44.6659 59.6395C44.5322 59.6877 44.4225 59.7545 44.3316 59.8375C44.2433 59.9204 44.1737 60.0167 44.1283 60.1237C44.0828 60.2307 44.0587 60.343 44.0587 60.458C44.0587 60.6132 44.1095 60.7443 44.2139 60.8459C44.3182 60.9475 44.4466 61.0412 44.6017 61.1241C44.7569 61.2043 44.9254 61.2873 45.1073 61.3675C45.2892 61.4478 45.455 61.5441 45.6102 61.6591C45.7626 61.7741 45.8937 61.9132 45.9953 62.0737C46.0997 62.2369 46.1505 62.4401 46.1505 62.6836C46.1505 62.9564 46.097 63.2105 45.99 63.4459C45.883 63.6813 45.7279 63.8846 45.5272 64.0531C45.3266 64.2216 45.0832 64.3554 44.7997 64.4517C44.5161 64.548 44.1978 64.5934 43.8474 64.5934C43.6655 64.5934 43.4916 64.5801 43.3312 64.5533C43.1707 64.5266 43.0235 64.4918 42.8925 64.449C42.7614 64.4062 42.649 64.358 42.5554 64.3072C42.4618 64.2537 42.3896 64.2056 42.3388 64.1574C42.3067 64.1253 42.2853 64.0932 42.2719 64.0611C42.2585 64.029 42.2505 63.9889 42.2505 63.9408C42.2505 63.9087 42.2532 63.8739 42.2558 63.8284C42.2585 63.7856 42.2665 63.7401 42.2799 63.6947C42.2906 63.6492 42.304 63.6037 42.3174 63.5609C42.3307 63.5181 42.3468 63.478 42.3682 63.4432C42.3869 63.4085 42.4083 63.379 42.427 63.3576C42.4458 63.3362 42.4698 63.3255 42.4966 63.3255C42.5421 63.3255 42.6009 63.3523 42.6651 63.4058C42.732 63.4593 42.8176 63.5155 42.9246 63.5743C43.0316 63.6332 43.1653 63.692 43.3258 63.7428C43.4863 63.7963 43.6842 63.8231 43.9223 63.8231C44.1363 63.8231 44.3209 63.7963 44.4733 63.7428C44.6258 63.6893 44.7542 63.6198 44.8558 63.5315C44.9575 63.4432 45.0324 63.3416 45.0805 63.2239C45.1287 63.1062 45.1528 62.9832 45.1528 62.8548C45.1528 62.6916 45.1019 62.5578 45.0003 62.4535C44.8986 62.3519 44.7702 62.2583 44.6178 62.1727C44.4653 62.0897 44.2968 62.0068 44.1176 61.9239C43.9383 61.841 43.7725 61.7447 43.6174 61.635C43.4622 61.5253 43.3338 61.3889 43.2322 61.2257C43.1305 61.0626 43.077 60.8593 43.077 60.6105C43.077 60.3537 43.1279 60.1157 43.2295 59.8936C43.3311 59.6743 43.4729 59.4844 43.6575 59.3212C43.8421 59.1607 44.0641 59.035 44.3235 58.944C44.583 58.8531 44.8692 58.8103 45.1849 58.8103C45.332 58.8103 45.4764 58.821 45.6128 58.8451C45.7519 58.8692 45.8777 58.8986 45.9953 58.9333C46.113 58.9681 46.212 59.0082 46.3003 59.051C46.3859 59.0938 46.4501 59.1366 46.4929 59.1794C46.541 59.2276 46.5624 59.2864 46.5624 59.3694Z" fill="white"/>
<path d="M52.5592 60.8218C52.5592 61.1107 52.5324 61.4049 52.4762 61.7045C52.4227 62.0041 52.3398 62.293 52.2275 62.5712C52.1151 62.8494 51.976 63.1115 51.8048 63.3576C51.6337 63.6037 51.433 63.8177 51.2003 63.9996C50.9676 64.1842 50.7055 64.3286 50.4112 64.4356C50.117 64.5426 49.788 64.5961 49.4269 64.5961C49.0524 64.5961 48.7341 64.5506 48.4666 64.4623C48.1991 64.3741 47.9797 64.243 47.8085 64.0718C47.6373 63.9006 47.5116 63.6893 47.4287 63.4405C47.3458 63.1918 47.3057 62.9082 47.3057 62.5926C47.3057 62.3037 47.3324 62.0095 47.3832 61.7099C47.4367 61.4103 47.5197 61.1214 47.632 60.8459C47.7443 60.5704 47.8861 60.3082 48.0546 60.0595C48.2232 59.8134 48.4238 59.5967 48.6565 59.4148C48.8892 59.2329 49.1513 59.0858 49.4456 58.9788C49.7398 58.8718 50.0688 58.8183 50.4299 58.8183C50.8044 58.8183 51.1227 58.8638 51.3902 58.9547C51.6577 59.0457 51.8771 59.1767 52.0509 59.3479C52.2248 59.5191 52.3505 59.7304 52.4334 59.9792C52.519 60.2306 52.5592 60.5115 52.5592 60.8218ZM51.5427 60.8806C51.5427 60.6854 51.5213 60.5115 51.4812 60.3537C51.4411 60.1985 51.3715 60.0675 51.2779 59.9605C51.1816 59.8535 51.0585 59.7706 50.9034 59.7117C50.7483 59.6529 50.5637 59.6234 50.3444 59.6234C50.1116 59.6234 49.8976 59.6662 49.7077 59.7492C49.5178 59.8321 49.3466 59.9471 49.1968 60.0889C49.047 60.2306 48.916 60.3965 48.8063 60.5891C48.6966 60.779 48.603 60.9823 48.5308 61.199C48.4585 61.4156 48.405 61.6376 48.3703 61.865C48.3355 62.0924 48.3168 62.3171 48.3168 62.5337C48.3168 62.729 48.3382 62.9029 48.381 63.0607C48.4238 63.2158 48.4933 63.3496 48.5869 63.4566C48.6832 63.5663 48.8063 63.6492 48.9588 63.708C49.1112 63.7669 49.2958 63.7963 49.5125 63.7963C49.7505 63.7963 49.9618 63.7535 50.1518 63.6706C50.3417 63.5876 50.5102 63.4726 50.66 63.3282C50.8098 63.1837 50.9409 63.0179 51.0505 62.8253C51.1629 62.6354 51.2538 62.4294 51.326 62.2127C51.3983 61.9934 51.4518 61.7741 51.4865 61.5467C51.5267 61.322 51.5427 61.1 51.5427 60.8806Z" fill="white"/>
<path d="M57.9814 59.5432C57.9814 59.6128 57.9734 59.685 57.96 59.7599C57.9467 59.8348 57.9253 59.9017 57.8985 59.9685C57.8718 60.0327 57.8397 60.0862 57.8022 60.129C57.7648 60.1718 57.7246 60.1932 57.6765 60.1932C57.623 60.1932 57.5642 60.1638 57.508 60.1076C57.4491 60.0514 57.3716 59.9873 57.2779 59.9177C57.1843 59.8482 57.0613 59.784 56.9168 59.7251C56.7697 59.6663 56.5851 59.6368 56.3578 59.6368C56.109 59.6368 55.887 59.6877 55.6944 59.792C55.5018 59.8963 55.3333 60.0301 55.1915 60.1959C55.0497 60.3617 54.932 60.549 54.8384 60.7603C54.7448 60.9716 54.6699 61.1829 54.6111 61.3969C54.5522 61.6109 54.5094 61.8196 54.4853 62.0202C54.4613 62.2208 54.4479 62.3947 54.4479 62.5418C54.4479 62.943 54.5362 63.248 54.71 63.4539C54.8866 63.6599 55.146 63.7642 55.4938 63.7642C55.7479 63.7642 55.9646 63.7321 56.1438 63.6706C56.3257 63.6091 56.4781 63.5368 56.6065 63.4566C56.7323 63.3764 56.8366 63.3068 56.9195 63.2426C57.0024 63.1811 57.072 63.149 57.1362 63.149C57.1683 63.149 57.1923 63.1624 57.2084 63.1918C57.2271 63.2212 57.2351 63.2613 57.2351 63.3175C57.2351 63.363 57.2325 63.4191 57.2244 63.4833C57.2164 63.5475 57.203 63.6144 57.187 63.6813C57.1683 63.7482 57.1469 63.8124 57.1228 63.8712C57.0987 63.9301 57.0613 63.9836 57.0158 64.0317C56.9676 64.0799 56.8874 64.1387 56.7697 64.2109C56.652 64.2805 56.5183 64.3447 56.3631 64.4008C56.2107 64.457 56.0421 64.5052 55.8629 64.5399C55.6837 64.5774 55.4991 64.5961 55.3092 64.5961C54.6833 64.5961 54.2152 64.4356 53.9049 64.1173C53.5946 63.799 53.4395 63.3229 53.4395 62.6916C53.4395 62.4535 53.4609 62.194 53.501 61.9105C53.5411 61.627 53.6106 61.3434 53.7069 61.0572C53.8032 60.771 53.929 60.4928 54.0814 60.2253C54.2339 59.9578 54.4211 59.7171 54.6432 59.5111C54.8652 59.3025 55.122 59.1366 55.4135 59.0109C55.7051 58.8852 56.0395 58.8237 56.4193 58.8237C56.5744 58.8237 56.7242 58.837 56.8687 58.8611C57.0131 58.8852 57.1469 58.92 57.2753 58.9628C57.401 59.0056 57.516 59.0591 57.6203 59.1233C57.7246 59.1875 57.8022 59.2436 57.8611 59.2945C57.9172 59.3453 57.952 59.3881 57.9654 59.4228C57.9734 59.463 57.9814 59.5004 57.9814 59.5432Z" fill="white"/>
<path d="M59.3132 64.3393C59.3052 64.3714 59.2918 64.3955 59.2731 64.4169C59.2543 64.4383 59.2249 64.457 59.1848 64.473C59.1447 64.4891 59.0938 64.4998 59.0296 64.5078C58.9654 64.5158 58.8879 64.5185 58.7942 64.5185C58.698 64.5185 58.6177 64.5158 58.5589 64.5078C58.4973 64.4998 58.4519 64.4891 58.4198 64.473C58.3877 64.457 58.3663 64.4383 58.3556 64.4169C58.3449 64.3955 58.3449 64.3687 58.3529 64.3393L59.3988 59.0831C59.4014 59.0564 59.4148 59.0296 59.4335 59.0082C59.4523 58.9841 59.4817 58.9654 59.5218 58.9494C59.5619 58.9333 59.6128 58.9226 59.677 58.9146C59.7412 58.9066 59.8214 58.9039 59.9204 58.9039C60.014 58.9039 60.0916 58.9066 60.1504 58.9146C60.2119 58.9226 60.2574 58.9333 60.2895 58.9494C60.3216 58.9654 60.343 58.9841 60.3537 59.0082C60.3644 59.0323 60.3671 59.0564 60.3617 59.0831L59.3132 64.3393ZM60.8245 57.3123C60.8058 57.422 60.779 57.5129 60.7442 57.5878C60.7095 57.6627 60.6667 57.7216 60.6132 57.7671C60.5597 57.8125 60.4901 57.8446 60.4099 57.8634C60.327 57.8821 60.228 57.8928 60.113 57.8928C60.0006 57.8928 59.907 57.8821 59.8321 57.8634C59.7572 57.8446 59.7037 57.8125 59.6689 57.7671C59.6342 57.7216 59.6154 57.6627 59.6101 57.5878C59.6074 57.5129 59.6128 57.422 59.6342 57.3123C59.6582 57.2027 59.6877 57.1117 59.7224 57.0395C59.7572 56.9673 59.8027 56.9084 59.8535 56.8576C59.907 56.8094 59.9739 56.7747 60.0541 56.7586C60.137 56.7399 60.236 56.7319 60.351 56.7319C60.4634 56.7319 60.557 56.7399 60.6292 56.7586C60.7015 56.7773 60.755 56.8094 60.7924 56.8576C60.8298 56.9057 60.8486 56.9673 60.8539 57.0395C60.8566 57.1144 60.8486 57.2027 60.8245 57.3123Z" fill="white"/>
<path d="M65.4576 64.3393C65.4416 64.4062 65.3988 64.4516 65.3292 64.4784C65.2597 64.5051 65.142 64.5185 64.9788 64.5185C64.9012 64.5185 64.837 64.5158 64.7862 64.5078C64.7354 64.4998 64.6953 64.4891 64.6632 64.4757C64.6311 64.4624 64.6097 64.4436 64.599 64.4222C64.5883 64.4008 64.5883 64.3741 64.599 64.3366L64.7916 63.3442C64.7407 63.47 64.6498 63.6064 64.5161 63.7535C64.3823 63.9006 64.2272 64.037 64.0453 64.1628C63.8634 64.2885 63.6628 64.3901 63.4407 64.473C63.2187 64.556 62.994 64.5961 62.764 64.5961C62.4537 64.5961 62.1942 64.5426 61.9909 64.4329C61.7877 64.3233 61.6245 64.1788 61.5041 63.9996C61.3837 63.8204 61.3008 63.6171 61.2553 63.3924C61.2099 63.165 61.1885 62.935 61.1885 62.6969C61.1885 62.4776 61.2099 62.2315 61.25 61.956C61.2901 61.6805 61.357 61.3969 61.4479 61.108C61.5389 60.8191 61.6593 60.5383 61.8037 60.2681C61.9508 59.9953 62.1247 59.7518 62.3333 59.5352C62.5393 59.3185 62.78 59.1446 63.0529 59.0163C63.3257 58.8852 63.636 58.821 63.9811 58.821C64.3261 58.821 64.6231 58.8905 64.8718 59.0323C65.1179 59.1741 65.3399 59.364 65.5352 59.6101L65.6449 59.0778C65.6609 59.0162 65.7064 58.9708 65.7786 58.944C65.8535 58.9173 65.9685 58.9039 66.1237 58.9039C66.2012 58.9039 66.2654 58.9066 66.3189 58.9119C66.3724 58.9173 66.4126 58.928 66.4447 58.944C66.4768 58.9601 66.4955 58.9788 66.5035 59.0029C66.5115 59.0269 66.5142 59.051 66.5089 59.0778L65.4576 64.3393ZM65.2757 60.4553C65.0938 60.1879 64.8959 59.9846 64.6819 59.8508C64.4706 59.7171 64.2298 59.6502 63.9677 59.6502C63.7564 59.6502 63.5665 59.701 63.3979 59.8C63.2294 59.899 63.0796 60.03 62.9486 60.1932C62.8175 60.3564 62.7051 60.5436 62.6088 60.7523C62.5126 60.9609 62.435 61.1749 62.3761 61.3969C62.3146 61.6189 62.2718 61.8383 62.2424 62.0523C62.213 62.2663 62.1996 62.4588 62.1996 62.63C62.1996 62.7665 62.2103 62.9029 62.2317 63.0366C62.2531 63.1704 62.2932 63.2934 62.3547 63.4058C62.4163 63.5154 62.4965 63.6064 62.6035 63.6733C62.7078 63.7401 62.8442 63.7749 63.0128 63.7749C63.2268 63.7749 63.4407 63.7161 63.6574 63.5957C63.8741 63.478 64.0747 63.3121 64.2619 63.1008C64.4492 62.8895 64.615 62.6434 64.7595 62.3599C64.9039 62.0763 65.0109 61.7634 65.0805 61.4183L65.2757 60.4553Z" fill="white"/>
<path d="M72.1207 64.3393C72.1126 64.3714 72.0993 64.3955 72.0805 64.4169C72.0618 64.4383 72.0324 64.457 71.9923 64.473C71.9521 64.4891 71.9013 64.4998 71.8371 64.5078C71.7729 64.5158 71.6953 64.5185 71.6017 64.5185C71.5081 64.5185 71.4305 64.5158 71.369 64.5078C71.3075 64.4998 71.2593 64.4891 71.2272 64.473C71.1951 64.457 71.1711 64.4383 71.1604 64.4169C71.1497 64.3955 71.147 64.3687 71.155 64.3393L72.0779 59.7304H69.3628L68.7744 62.6621C68.7583 62.745 68.7449 62.836 68.7342 62.9376C68.7235 63.0393 68.7155 63.1222 68.7155 63.1891C68.7155 63.387 68.7583 63.5341 68.8412 63.6251C68.9241 63.716 69.0606 63.7615 69.2478 63.7615C69.3521 63.7615 69.4431 63.7535 69.5233 63.7348C69.6009 63.716 69.6678 63.7 69.7239 63.6786C69.7801 63.6599 69.8309 63.6411 69.8737 63.6224C69.9165 63.6037 69.954 63.5957 69.9834 63.5957C70.0155 63.5957 70.0396 63.6064 70.0556 63.6278C70.0744 63.6492 70.0824 63.6893 70.0824 63.7481C70.0824 63.799 70.077 63.8551 70.069 63.914C70.0583 63.9755 70.0476 64.0343 70.0316 64.0932C70.0155 64.152 69.9968 64.2055 69.9727 64.251C69.9486 64.2965 69.9246 64.3339 69.8978 64.3607C69.8657 64.3874 69.8202 64.4142 69.7587 64.4436C69.6972 64.4704 69.625 64.4944 69.5421 64.5158C69.4591 64.5372 69.3735 64.5533 69.2826 64.5667C69.1916 64.5774 69.1007 64.5854 69.0097 64.5854C68.7904 64.5854 68.6032 64.5613 68.4427 64.5158C68.2822 64.4704 68.1484 64.3955 68.0388 64.2965C67.9291 64.1975 67.8488 64.0718 67.7953 63.922C67.7418 63.7722 67.7178 63.593 67.7178 63.3817C67.7178 63.3362 67.7204 63.2827 67.7231 63.2265C67.7258 63.1704 67.7338 63.1115 67.7445 63.0473C67.7552 62.9858 67.7632 62.9216 67.7739 62.8601C67.7846 62.7985 67.7953 62.7397 67.806 62.6835L68.3972 59.7278H67.6669C67.6241 59.7278 67.5921 59.7144 67.568 59.6903C67.5439 59.6662 67.5332 59.6154 67.5332 59.5405C67.5332 59.487 67.5386 59.4228 67.5519 59.3506C67.5653 59.2784 67.5814 59.2115 67.6054 59.15C67.6295 59.0885 67.6589 59.035 67.6964 58.9922C67.7338 58.9494 67.7766 58.928 67.8274 58.928H68.563L68.8145 57.6788C68.8172 57.652 68.8305 57.6253 68.8519 57.6039C68.8733 57.5798 68.9027 57.5611 68.9429 57.5424C68.983 57.5236 69.0338 57.5129 69.098 57.5049C69.1622 57.4969 69.2398 57.4942 69.3334 57.4942C69.427 57.4942 69.5046 57.4969 69.5661 57.5049C69.6277 57.5129 69.6758 57.5263 69.7079 57.5424C69.74 57.5611 69.7614 57.5798 69.7721 57.6039C69.7828 57.628 69.7828 57.652 69.7748 57.6788L69.5233 58.928H72.9044C73.0221 58.928 73.097 58.9547 73.1291 59.0055C73.1612 59.0564 73.1665 59.1339 73.1425 59.2356L72.1207 64.3393ZM73.6293 57.3123C73.6106 57.422 73.5838 57.5129 73.5491 57.5878C73.5143 57.6627 73.4715 57.7216 73.418 57.7671C73.3645 57.8125 73.2949 57.8446 73.2174 57.8634C73.1371 57.8821 73.0381 57.8928 72.9231 57.8928C72.8054 57.8928 72.7118 57.8821 72.6396 57.8634C72.5674 57.8446 72.5139 57.8125 72.4818 57.7671C72.4497 57.7216 72.4309 57.6627 72.4256 57.5878C72.4229 57.5129 72.4283 57.422 72.4497 57.3123C72.4684 57.2027 72.4951 57.1117 72.5299 57.0395C72.562 56.9673 72.6075 56.9084 72.6637 56.8576C72.7198 56.8094 72.7867 56.7747 72.8643 56.7586C72.9419 56.7399 73.0381 56.7319 73.1558 56.7319C73.2735 56.7319 73.3672 56.7399 73.4394 56.7586C73.5116 56.7773 73.5651 56.8094 73.5999 56.8576C73.6347 56.9057 73.6534 56.9673 73.6587 57.0395C73.6641 57.1117 73.6507 57.2027 73.6293 57.3123Z" fill="white"/>
<path d="M79.2359 60.8218C79.2359 61.1107 79.2092 61.4049 79.153 61.7045C79.0995 62.0041 79.0166 62.293 78.9042 62.5712C78.7919 62.8494 78.6528 63.1115 78.4816 63.3576C78.3104 63.6037 78.1098 63.8177 77.8771 63.9996C77.6444 64.1842 77.3822 64.3286 77.088 64.4356C76.7937 64.5426 76.4647 64.5961 76.1036 64.5961C75.7291 64.5961 75.4108 64.5506 75.1433 64.4623C74.8758 64.3741 74.6565 64.243 74.4853 64.0718C74.3141 63.9006 74.1884 63.6893 74.1055 63.4405C74.0226 63.1918 73.9824 62.9082 73.9824 62.5926C73.9824 62.3037 74.0092 62.0095 74.06 61.7099C74.1135 61.4103 74.1964 61.1214 74.3088 60.8459C74.4211 60.5704 74.5629 60.3082 74.7314 60.0595C74.8999 59.8134 75.1005 59.5967 75.3333 59.4148C75.566 59.2329 75.8281 59.0858 76.1223 58.9788C76.4166 58.8718 76.7456 58.8183 77.1067 58.8183C77.4812 58.8183 77.7995 58.8638 78.067 58.9547C78.3345 59.0457 78.5538 59.1767 78.7277 59.3479C78.9016 59.5191 79.0273 59.7304 79.1102 59.9792C79.1958 60.2306 79.2359 60.5115 79.2359 60.8218ZM78.2195 60.8806C78.2195 60.6854 78.1981 60.5115 78.1579 60.3537C78.1178 60.1985 78.0483 60.0675 77.9547 59.9605C77.8584 59.8535 77.7353 59.7706 77.5802 59.7117C77.425 59.6529 77.2405 59.6234 77.0211 59.6234C76.7884 59.6234 76.5744 59.6662 76.3845 59.7492C76.1946 59.8321 76.0234 59.9471 75.8736 60.0889C75.7238 60.2306 75.5927 60.3965 75.483 60.5891C75.3734 60.779 75.2798 60.9823 75.2075 61.199C75.1353 61.4156 75.0818 61.6376 75.047 61.865C75.0123 62.0924 74.9935 62.3171 74.9935 62.5337C74.9935 62.729 75.0149 62.9029 75.0577 63.0607C75.1005 63.2158 75.1701 63.3496 75.2637 63.4566C75.36 63.5663 75.483 63.6492 75.6355 63.708C75.788 63.7669 75.9725 63.7963 76.1892 63.7963C76.4273 63.7963 76.6386 63.7535 76.8285 63.6706C77.0184 63.5876 77.187 63.4726 77.3367 63.3282C77.4865 63.1837 77.6176 63.0179 77.7273 62.8253C77.8396 62.6354 77.9306 62.4294 78.0028 62.2127C78.075 61.9934 78.1285 61.7741 78.1633 61.5467C78.2007 61.322 78.2195 61.1 78.2195 60.8806Z" fill="white"/>
<path d="M85.1821 60.244C85.1821 60.3804 85.174 60.5142 85.158 60.6479C85.1419 60.779 85.1205 60.9154 85.0938 61.0572L84.4331 64.3393C84.4251 64.3714 84.4117 64.3955 84.3956 64.4169C84.3769 64.4383 84.3502 64.457 84.3074 64.473C84.2672 64.4891 84.2137 64.4998 84.1522 64.5078C84.0907 64.5158 84.0105 64.5185 83.9115 64.5185C83.8179 64.5185 83.7403 64.5158 83.6814 64.5078C83.6199 64.4998 83.5744 64.4891 83.5423 64.473C83.5102 64.457 83.4888 64.4383 83.4781 64.4169C83.4674 64.3955 83.4648 64.3687 83.4701 64.3393L84.1174 61.092C84.1442 60.9716 84.1629 60.8539 84.1736 60.7416C84.1843 60.6292 84.187 60.5302 84.187 60.4446C84.187 60.2066 84.1362 60.0167 84.0345 59.8695C83.9329 59.7224 83.7644 59.6502 83.5263 59.6502C83.3203 59.6502 83.109 59.7091 82.8923 59.8294C82.6757 59.9471 82.4751 60.113 82.2905 60.3189C82.1059 60.5276 81.9401 60.7737 81.793 61.0599C81.6458 61.3461 81.5415 61.6564 81.4746 61.9907L81.0065 64.3393C80.9985 64.3714 80.9851 64.3955 80.9664 64.4169C80.9477 64.4383 80.9183 64.457 80.8781 64.473C80.838 64.4891 80.7872 64.4998 80.723 64.5078C80.6588 64.5158 80.5812 64.5185 80.4876 64.5185C80.3913 64.5185 80.3111 64.5158 80.2522 64.5078C80.1907 64.4998 80.1452 64.4891 80.1131 64.473C80.081 64.457 80.0596 64.4383 80.0489 64.4169C80.0382 64.3955 80.0382 64.3687 80.0462 64.3393L81.1028 59.0778C81.1055 59.051 81.1162 59.0243 81.1349 59.0029C81.1537 58.9815 81.1804 58.9601 81.2179 58.944C81.2553 58.928 81.3008 58.9173 81.3569 58.9119C81.4131 58.9066 81.48 58.9039 81.5576 58.9039C81.6405 58.9039 81.7074 58.9066 81.7582 58.9119C81.8117 58.9173 81.8518 58.928 81.8812 58.944C81.9106 58.9601 81.9294 58.9788 81.9374 59.0029C81.9454 59.0269 81.9481 59.051 81.9428 59.0778L81.7448 60.0835C81.8037 59.9525 81.8973 59.8107 82.031 59.6636C82.1621 59.5165 82.3199 59.38 82.5045 59.2543C82.6864 59.1286 82.8897 59.0269 83.109 58.944C83.3284 58.8611 83.5584 58.821 83.7965 58.821C84.0586 58.821 84.2753 58.8611 84.4518 58.9414C84.6284 59.0216 84.7701 59.1259 84.8771 59.257C84.9868 59.3881 85.0644 59.5379 85.1098 59.709C85.1553 59.8802 85.1821 60.0568 85.1821 60.244Z" fill="white"/>
<path d="M93.2951 56.6864C93.2951 56.7025 93.2924 56.7265 93.2897 56.7586C93.2871 56.7907 93.2817 56.8282 93.2764 56.8683C93.271 56.9084 93.263 56.9512 93.2496 56.9967C93.2389 57.0422 93.2255 57.0823 93.2095 57.1224C93.1934 57.1625 93.1774 57.192 93.156 57.216C93.1346 57.2401 93.1159 57.2508 93.0918 57.2508C93.065 57.2508 93.0303 57.2428 92.9902 57.2267C92.95 57.2107 92.9019 57.1946 92.8457 57.1759C92.7922 57.1572 92.728 57.1412 92.6531 57.1278C92.5782 57.1117 92.498 57.1037 92.407 57.1037C92.2385 57.1037 92.0967 57.1278 91.979 57.1786C91.8613 57.2294 91.757 57.307 91.6714 57.414C91.5858 57.521 91.5136 57.6574 91.4548 57.8206C91.3959 57.9837 91.3451 58.1763 91.3023 58.3984L91.2033 58.9253H92.3776C92.4204 58.9253 92.4552 58.9387 92.4792 58.9681C92.5033 58.9975 92.5167 59.0457 92.5167 59.1126C92.5167 59.1554 92.514 59.2008 92.506 59.2463C92.498 59.2918 92.4873 59.3399 92.4766 59.3827C92.4659 59.4282 92.4498 59.471 92.4338 59.5111C92.415 59.5512 92.3963 59.5887 92.3749 59.6181C92.3535 59.6502 92.3294 59.6743 92.3027 59.693C92.276 59.7117 92.2492 59.7224 92.2198 59.7224H91.0401L90.0424 64.6977C89.9755 65.0241 89.8873 65.3076 89.7749 65.5484C89.6626 65.7891 89.5235 65.987 89.3603 66.1449C89.1971 66.3027 89.0072 66.4204 88.7932 66.4953C88.5792 66.5702 88.3385 66.6103 88.0683 66.6103C87.8945 66.6103 87.75 66.5969 87.6403 66.5702C87.528 66.5434 87.4611 66.5167 87.4317 66.4953C87.4156 66.4766 87.405 66.4552 87.3969 66.4311C87.3889 66.407 87.3862 66.3776 87.3862 66.3375C87.3862 66.3214 87.3889 66.2947 87.3943 66.2599C87.3996 66.2224 87.4076 66.185 87.4157 66.1422C87.4237 66.1021 87.4344 66.0593 87.4451 66.0138C87.4558 65.9683 87.4718 65.9282 87.4852 65.8881C87.5012 65.848 87.5173 65.8185 87.5387 65.7945C87.5574 65.7704 87.5815 65.7597 87.6082 65.7597C87.635 65.7597 87.6617 65.7624 87.6858 65.7677C87.7099 65.7731 87.7393 65.7784 87.7687 65.7864C87.7982 65.7918 87.8329 65.7971 87.8731 65.8052C87.9132 65.8105 87.9667 65.8132 88.0282 65.8132C88.1914 65.8132 88.3331 65.7891 88.4508 65.7383C88.5685 65.6875 88.6702 65.6099 88.7558 65.5029C88.8387 65.3959 88.9083 65.2595 88.9671 65.0963C89.0259 64.9331 89.0741 64.7352 89.1222 64.5078L90.0799 59.7305H89.3336C89.2934 59.7305 89.264 59.7171 89.2426 59.693C89.2212 59.6689 89.2105 59.6208 89.2105 59.5512C89.2105 59.5191 89.2132 59.4817 89.2159 59.4362C89.2185 59.3907 89.2266 59.3453 89.2373 59.2998C89.248 59.2543 89.2587 59.2088 89.2747 59.166C89.2908 59.1233 89.3095 59.0831 89.3336 59.0484C89.3576 59.0136 89.3817 58.9842 89.4058 58.9628C89.4299 58.9414 89.462 58.9307 89.5021 58.9307H90.2377L90.3848 58.2004C90.4463 57.8821 90.5373 57.6012 90.6523 57.3632C90.77 57.1224 90.9091 56.9272 91.0749 56.7693C91.2408 56.6142 91.4307 56.4965 91.6473 56.4216C91.864 56.3467 92.1021 56.3066 92.3615 56.3066C92.4471 56.3066 92.5354 56.3119 92.629 56.32C92.7227 56.3307 92.8083 56.344 92.8885 56.3601C92.9688 56.3788 93.0383 56.3975 93.0998 56.4216C93.1587 56.4457 93.2015 56.4697 93.2255 56.4911C93.2496 56.5099 93.2657 56.5366 93.279 56.5714C93.2871 56.6115 93.2951 56.649 93.2951 56.6864Z" fill="white"/>
<path d="M97.7328 60.8218C97.7328 61.1107 97.706 61.4049 97.6525 61.7045C97.599 62.0041 97.5161 62.293 97.4038 62.5712C97.2941 62.8494 97.1523 63.1115 96.9811 63.3576C96.8099 63.6037 96.6093 63.8177 96.3766 63.9996C96.1465 64.1842 95.8817 64.3286 95.5875 64.4356C95.2933 64.5426 94.9669 64.5961 94.6031 64.5961C94.2287 64.5961 93.9103 64.5506 93.6428 64.4623C93.3753 64.3741 93.156 64.243 92.9848 64.0718C92.8136 63.9006 92.6879 63.6893 92.605 63.4405C92.5221 63.1918 92.4819 62.9082 92.4819 62.5926C92.4819 62.3037 92.5087 62.0095 92.5595 61.7099C92.613 61.4103 92.6959 61.1214 92.8083 60.8459C92.9206 60.5704 93.0624 60.3082 93.2309 60.0595C93.3994 59.8134 93.6 59.5967 93.8328 59.4148C94.0655 59.2329 94.3276 59.0858 94.6219 58.9788C94.9161 58.8718 95.2451 58.8183 95.6062 58.8183C95.9807 58.8183 96.3017 58.8638 96.5665 58.9547C96.834 59.0457 97.0533 59.1767 97.2272 59.3479C97.4011 59.5191 97.5268 59.7304 97.6097 59.9792C97.6926 60.2306 97.7328 60.5115 97.7328 60.8218ZM96.7163 60.8806C96.7163 60.6854 96.6949 60.5115 96.6548 60.3537C96.6147 60.1985 96.5451 60.0675 96.4488 59.9605C96.3525 59.8535 96.2295 59.7706 96.0743 59.7117C95.9219 59.6529 95.7346 59.6234 95.5179 59.6234C95.2852 59.6234 95.0712 59.6662 94.8813 59.7492C94.6914 59.8321 94.5202 59.9471 94.3704 60.0889C94.2206 60.2306 94.0896 60.3965 93.9799 60.5891C93.8675 60.779 93.7766 60.9823 93.7044 61.199C93.6321 61.4156 93.5786 61.6376 93.5439 61.865C93.5091 62.0924 93.4904 62.3171 93.4904 62.5337C93.4904 62.729 93.5118 62.9029 93.5546 63.0607C93.5974 63.2158 93.6669 63.3496 93.7632 63.4566C93.8595 63.5663 93.9826 63.6492 94.135 63.708C94.2875 63.7669 94.4721 63.7963 94.6887 63.7963C94.9268 63.7963 95.1381 63.7535 95.328 63.6706C95.5153 63.5876 95.6865 63.4726 95.8363 63.3282C95.9861 63.1837 96.1171 63.0179 96.2268 62.8253C96.3365 62.6354 96.4301 62.4294 96.5023 62.2127C96.5745 61.9934 96.628 61.7741 96.6628 61.5467C96.7003 61.322 96.7163 61.1 96.7163 60.8806Z" fill="white"/>
<path d="M102.569 59.0885C102.569 59.1045 102.566 59.134 102.561 59.1794C102.555 59.2249 102.547 59.2757 102.539 59.3346C102.531 59.3934 102.521 59.4523 102.505 59.5165C102.489 59.578 102.47 59.6368 102.446 59.6877C102.422 59.7412 102.398 59.784 102.374 59.8187C102.349 59.8535 102.32 59.8722 102.288 59.8722C102.256 59.8722 102.224 59.8642 102.186 59.8508C102.149 59.8375 102.109 59.8214 102.063 59.8C102.018 59.7813 101.967 59.7652 101.908 59.7519C101.849 59.7385 101.782 59.7305 101.705 59.7305C101.571 59.7305 101.419 59.7866 101.247 59.9017C101.074 60.0167 100.902 60.1745 100.737 60.3778C100.568 60.5811 100.416 60.8191 100.279 61.0973C100.14 61.3729 100.038 61.6724 99.9715 61.9961L99.5114 64.3393C99.5034 64.3714 99.49 64.3955 99.4713 64.4169C99.4526 64.4383 99.4232 64.457 99.383 64.4731C99.3429 64.4891 99.2921 64.4998 99.2279 64.5078C99.1637 64.5159 99.0861 64.5185 98.9925 64.5185C98.8962 64.5185 98.8159 64.5159 98.7571 64.5078C98.6956 64.4998 98.6501 64.4891 98.618 64.4731C98.5859 64.457 98.5645 64.4383 98.5538 64.4169C98.5431 64.3955 98.5431 64.3687 98.5511 64.3393L99.597 59.0778C99.5997 59.051 99.6131 59.0243 99.6318 59.0029C99.6505 58.9815 99.6799 58.9601 99.7201 58.944C99.7602 58.928 99.8057 58.9173 99.8645 58.9119C99.9207 58.9066 99.9876 58.9039 100.065 58.9039C100.145 58.9039 100.215 58.9066 100.266 58.9119C100.319 58.9173 100.359 58.928 100.389 58.944C100.418 58.9601 100.437 58.9788 100.445 59.0029C100.453 59.027 100.456 59.051 100.45 59.0778L100.258 60.0354C100.346 59.8749 100.453 59.7224 100.576 59.5753C100.699 59.4282 100.833 59.2971 100.977 59.1875C101.122 59.0778 101.272 58.9868 101.429 58.9226C101.587 58.8558 101.742 58.8237 101.895 58.8237C101.962 58.8237 102.029 58.829 102.095 58.837C102.162 58.8477 102.226 58.8584 102.285 58.8718C102.344 58.8852 102.395 58.9012 102.44 58.9173C102.486 58.936 102.518 58.9547 102.542 58.9788C102.566 59.0029 102.569 59.0377 102.569 59.0885Z" fill="white"/>
<path d="M109.112 59.142C109.112 59.1768 109.109 59.2142 109.107 59.2543C109.104 59.2945 109.096 59.3373 109.083 59.3801C109.072 59.4229 109.056 59.4657 109.037 59.5085C109.019 59.5513 108.997 59.5887 108.976 59.6235C108.954 59.6556 108.93 59.6823 108.903 59.7011C108.877 59.7198 108.845 59.7305 108.81 59.7305H107.467L106.876 62.6622C106.86 62.7451 106.846 62.836 106.836 62.9377C106.825 63.0393 106.817 63.1223 106.817 63.1891C106.817 63.3871 106.86 63.5342 106.943 63.6251C107.026 63.7161 107.162 63.7616 107.349 63.7616C107.454 63.7616 107.547 63.7535 107.625 63.7348C107.702 63.7161 107.769 63.7 107.826 63.6786C107.882 63.6599 107.933 63.6412 107.975 63.6225C108.018 63.6037 108.056 63.5957 108.088 63.5957C108.12 63.5957 108.144 63.6064 108.16 63.6278C108.179 63.6492 108.187 63.6893 108.187 63.7482C108.187 63.799 108.181 63.8552 108.173 63.914C108.163 63.9755 108.152 64.0344 108.136 64.0932C108.12 64.1521 108.101 64.2056 108.077 64.2511C108.053 64.2965 108.029 64.334 108.002 64.3607C107.97 64.3875 107.924 64.4142 107.863 64.4437C107.801 64.4704 107.729 64.4945 107.646 64.5159C107.566 64.5373 107.478 64.5533 107.387 64.5667C107.296 64.5774 107.205 64.5854 107.114 64.5854C106.895 64.5854 106.707 64.5614 106.547 64.5159C106.386 64.4704 106.253 64.3955 106.143 64.2965C106.033 64.1976 105.953 64.0718 105.9 63.922C105.846 63.7723 105.822 63.593 105.822 63.3817C105.822 63.3362 105.825 63.2828 105.827 63.2266C105.83 63.1704 105.838 63.1116 105.849 63.0474C105.859 62.9858 105.867 62.9216 105.878 62.8601C105.889 62.7986 105.9 62.7397 105.91 62.6836L106.499 59.7278H105.769C105.726 59.7278 105.694 59.7144 105.67 59.6904C105.645 59.6663 105.635 59.6155 105.635 59.5406C105.635 59.4871 105.64 59.4229 105.653 59.3506C105.664 59.2784 105.683 59.2115 105.707 59.15C105.731 59.0885 105.76 59.035 105.798 58.9922C105.835 58.9494 105.878 58.928 105.929 58.928H106.665L106.916 57.6788C106.919 57.6521 106.932 57.6253 106.953 57.6039C106.975 57.5799 107.004 57.5611 107.044 57.5424C107.085 57.5237 107.135 57.513 107.2 57.505C107.264 57.4969 107.344 57.4943 107.435 57.4943C107.529 57.4943 107.606 57.4969 107.665 57.505C107.724 57.513 107.772 57.5264 107.804 57.5424C107.836 57.5611 107.858 57.5799 107.868 57.6039C107.879 57.628 107.882 57.6521 107.876 57.6788L107.625 58.928H108.968C109.027 58.928 109.064 58.9494 109.085 58.9922C109.101 59.0377 109.112 59.0858 109.112 59.142Z" fill="white"/>
<path d="M113.75 64.3393C113.742 64.3714 113.729 64.3955 113.71 64.4169C113.691 64.4383 113.659 64.457 113.619 64.473C113.579 64.4891 113.525 64.4998 113.464 64.5078C113.402 64.5158 113.322 64.5185 113.223 64.5185C113.129 64.5185 113.052 64.5158 112.993 64.5078C112.934 64.4998 112.886 64.4891 112.854 64.473C112.822 64.457 112.8 64.4383 112.79 64.4169C112.779 64.3955 112.776 64.3687 112.782 64.3393L113.429 61.092C113.448 60.9903 113.464 60.878 113.477 60.7496C113.49 60.6239 113.499 60.5142 113.499 60.4206C113.499 60.3082 113.488 60.2039 113.464 60.1103C113.44 60.0167 113.402 59.9364 113.349 59.8669C113.295 59.8 113.228 59.7438 113.145 59.7064C113.063 59.6662 112.958 59.6475 112.838 59.6475C112.632 59.6475 112.421 59.709 112.204 59.8294C111.987 59.9498 111.787 60.1156 111.602 60.3296C111.417 60.5409 111.252 60.7924 111.104 61.0813C110.957 61.3702 110.853 61.6778 110.786 62.0095L110.318 64.3393C110.31 64.3714 110.297 64.3955 110.278 64.4169C110.259 64.4383 110.23 64.457 110.19 64.473C110.15 64.4891 110.099 64.4998 110.035 64.5078C109.97 64.5158 109.893 64.5185 109.799 64.5185C109.703 64.5185 109.623 64.5158 109.564 64.5078C109.502 64.4998 109.457 64.4891 109.425 64.473C109.393 64.457 109.371 64.4383 109.36 64.4169C109.35 64.3955 109.35 64.3687 109.358 64.3393L110.912 56.5366C110.92 56.5045 110.933 56.4778 110.949 56.4537C110.968 56.4296 110.995 56.4109 111.038 56.3948C111.078 56.3788 111.131 56.3681 111.195 56.3601C111.26 56.352 111.34 56.3494 111.439 56.3494C111.532 56.3494 111.61 56.352 111.669 56.3601C111.728 56.3681 111.776 56.3788 111.808 56.3948C111.84 56.4109 111.861 56.4296 111.87 56.4537C111.878 56.4778 111.88 56.5045 111.875 56.5366L111.407 58.9146C111.388 59.0162 111.364 59.1206 111.337 59.2249C111.31 59.3292 111.281 59.4335 111.252 59.5378C111.222 59.6422 111.193 59.7385 111.163 59.8321C111.134 59.9257 111.107 60.0086 111.086 60.0782C111.147 59.9418 111.246 59.8 111.377 59.6555C111.511 59.5084 111.666 59.3747 111.845 59.2516C112.025 59.1286 112.223 59.0269 112.439 58.944C112.656 58.8611 112.878 58.821 113.108 58.821C113.357 58.821 113.571 58.8557 113.745 58.928C113.921 59.0002 114.063 59.0992 114.175 59.2249C114.285 59.3506 114.368 59.5031 114.419 59.6769C114.47 59.8535 114.494 60.0407 114.494 60.244C114.494 60.3831 114.486 60.5195 114.47 60.6533C114.453 60.787 114.432 60.9208 114.405 61.0572L113.75 64.3393Z" fill="white"/>
<path d="M120.531 60.1584C120.531 60.4259 120.47 60.6693 120.344 60.8833C120.218 61.0973 120.026 61.2792 119.761 61.4317C119.496 61.5841 119.156 61.6992 118.744 61.7821C118.333 61.865 117.838 61.9051 117.26 61.9051H116.642C116.615 62.0335 116.597 62.1592 116.586 62.2796C116.575 62.4 116.572 62.5123 116.572 62.6193C116.572 63.0099 116.669 63.3068 116.861 63.5127C117.054 63.7187 117.367 63.823 117.798 63.823C118.046 63.823 118.271 63.8043 118.469 63.7669C118.667 63.7294 118.841 63.6893 118.985 63.6465C119.132 63.6037 119.25 63.5636 119.344 63.5261C119.437 63.4887 119.501 63.4699 119.536 63.4699C119.571 63.4699 119.598 63.4833 119.617 63.5074C119.635 63.5341 119.643 63.5689 119.643 63.6144C119.643 63.6545 119.641 63.7 119.633 63.7562C119.625 63.8097 119.614 63.8658 119.598 63.922C119.582 63.9782 119.563 64.0317 119.536 64.0825C119.51 64.1333 119.483 64.1761 119.451 64.2109C119.405 64.259 119.322 64.3045 119.202 64.3473C119.084 64.3928 118.942 64.4329 118.779 64.4704C118.616 64.5078 118.437 64.5372 118.242 64.5613C118.046 64.5854 117.851 64.5961 117.658 64.5961C117.311 64.5961 117.008 64.556 116.746 64.4784C116.484 64.4008 116.268 64.2804 116.096 64.1199C115.922 63.9594 115.794 63.7562 115.708 63.5154C115.623 63.2747 115.58 62.9885 115.58 62.6621C115.58 62.408 115.604 62.1378 115.652 61.8463C115.7 61.5574 115.778 61.2685 115.882 60.985C115.987 60.7014 116.123 60.4286 116.292 60.1664C116.46 59.9043 116.658 59.6743 116.891 59.4763C117.123 59.2784 117.391 59.1179 117.693 58.9975C117.998 58.8771 118.341 58.8156 118.72 58.8156C119.047 58.8156 119.325 58.8557 119.552 58.9387C119.78 59.0216 119.967 59.1259 120.114 59.2543C120.261 59.3827 120.365 59.5271 120.432 59.6823C120.497 59.8455 120.531 60.0006 120.531 60.1584ZM119.544 60.244C119.544 60.0461 119.467 59.8856 119.312 59.7625C119.156 59.6395 118.934 59.578 118.646 59.578C118.391 59.578 118.169 59.6208 117.974 59.709C117.779 59.7973 117.608 59.915 117.458 60.0621C117.308 60.2092 117.18 60.3831 117.073 60.5784C116.966 60.7763 116.88 60.9823 116.813 61.199H117.41C117.819 61.199 118.161 61.1749 118.434 61.1241C118.71 61.0732 118.929 61.0037 119.095 60.9154C119.261 60.8271 119.378 60.7255 119.445 60.6078C119.512 60.4901 119.544 60.3724 119.544 60.244Z" fill="white"/>
<path d="M129.685 58.3983C129.685 58.6364 129.653 58.8611 129.588 59.0724C129.524 59.2837 129.433 59.4816 129.313 59.6582C129.195 59.8374 129.051 59.9952 128.88 60.1316C128.711 60.2681 128.518 60.3804 128.304 60.4714C128.468 60.5035 128.62 60.5596 128.762 60.6399C128.904 60.7201 129.027 60.8244 129.126 60.9475C129.227 61.0705 129.305 61.215 129.361 61.3835C129.417 61.552 129.447 61.7366 129.447 61.9372C129.447 62.1432 129.42 62.3518 129.364 62.5578C129.31 62.7664 129.227 62.9644 129.115 63.1543C129.005 63.3442 128.866 63.5181 128.7 63.6812C128.534 63.8417 128.342 63.9835 128.12 64.1039C127.898 64.2242 127.649 64.3179 127.376 64.3847C127.101 64.4516 126.782 64.4837 126.421 64.4837H124.418C124.289 64.4837 124.193 64.4516 124.129 64.3874C124.065 64.3232 124.051 64.2189 124.086 64.0744L125.429 57.3337C125.456 57.1812 125.517 57.0769 125.616 57.0154C125.712 56.9565 125.814 56.9244 125.921 56.9244H127.545C127.93 56.9244 128.254 56.9565 128.516 57.0207C128.778 57.0849 128.995 57.1786 129.166 57.3043C129.34 57.4273 129.468 57.5825 129.554 57.7644C129.642 57.9516 129.685 58.1629 129.685 58.3983ZM128.387 62.0094C128.387 61.6858 128.272 61.437 128.042 61.2578C127.812 61.0812 127.459 60.993 126.98 60.993H125.688L125.161 63.6572H126.568C126.887 63.6572 127.157 63.6117 127.376 63.5207C127.596 63.4298 127.78 63.3094 127.927 63.1596C128.074 63.0098 128.189 62.836 128.267 62.638C128.347 62.4347 128.387 62.2261 128.387 62.0094ZM128.615 58.5802C128.615 58.4518 128.593 58.3368 128.55 58.2351C128.508 58.1335 128.438 58.0479 128.345 57.9757C128.248 57.9035 128.128 57.8473 127.983 57.8072C127.836 57.767 127.646 57.7456 127.408 57.7456H126.346L125.862 60.1932H127.002C127.309 60.1932 127.563 60.1423 127.761 60.0407C127.959 59.9391 128.123 59.8107 128.248 59.6528C128.374 59.495 128.468 59.3211 128.529 59.1312C128.585 58.9386 128.615 58.7567 128.615 58.5802Z" fill="white"/>
<path d="M131.394 64.3393C131.386 64.3714 131.373 64.3955 131.354 64.4169C131.335 64.4383 131.306 64.457 131.266 64.473C131.226 64.4891 131.175 64.4998 131.111 64.5078C131.046 64.5158 130.969 64.5185 130.875 64.5185C130.779 64.5185 130.699 64.5158 130.64 64.5078C130.578 64.4998 130.533 64.4891 130.501 64.473C130.469 64.457 130.447 64.4383 130.437 64.4169C130.426 64.3955 130.426 64.3687 130.434 64.3393L131.988 56.5366C131.996 56.5045 132.009 56.4778 132.026 56.4537C132.044 56.4296 132.071 56.4109 132.114 56.3948C132.154 56.3788 132.207 56.3681 132.272 56.3601C132.336 56.352 132.416 56.3494 132.515 56.3494C132.609 56.3494 132.686 56.352 132.745 56.3601C132.804 56.3681 132.852 56.3788 132.884 56.3948C132.916 56.4109 132.938 56.4296 132.946 56.4537C132.954 56.4778 132.956 56.5045 132.951 56.5366L131.394 64.3393Z" fill="white"/>
<path d="M134.141 64.3393C134.133 64.3714 134.12 64.3955 134.101 64.4169C134.082 64.4383 134.053 64.457 134.013 64.473C133.973 64.4891 133.922 64.4998 133.858 64.5078C133.794 64.5158 133.716 64.5185 133.622 64.5185C133.526 64.5185 133.446 64.5158 133.387 64.5078C133.325 64.4998 133.28 64.4891 133.248 64.473C133.216 64.457 133.194 64.4383 133.184 64.4169C133.173 64.3955 133.173 64.3687 133.181 64.3393L134.227 59.0831C134.23 59.0564 134.243 59.0296 134.262 59.0082C134.28 58.9868 134.31 58.9654 134.35 58.9494C134.39 58.9333 134.441 58.9226 134.505 58.9146C134.569 58.9066 134.65 58.9039 134.749 58.9039C134.842 58.9039 134.92 58.9066 134.979 58.9146C135.04 58.9226 135.086 58.9333 135.12 58.9494C135.152 58.9654 135.174 58.9841 135.185 59.0082C135.195 59.0323 135.198 59.0564 135.193 59.0831L134.141 64.3393ZM135.653 57.3123C135.634 57.422 135.607 57.5129 135.575 57.5878C135.543 57.6627 135.497 57.7216 135.444 57.7671C135.39 57.8125 135.321 57.8446 135.241 57.8634C135.158 57.8821 135.059 57.8928 134.944 57.8928C134.831 57.8928 134.738 57.8821 134.663 57.8634C134.588 57.8446 134.535 57.8125 134.5 57.7671C134.465 57.7216 134.446 57.6627 134.441 57.5878C134.436 57.5129 134.444 57.422 134.465 57.3123C134.489 57.2027 134.518 57.1117 134.553 57.0395C134.588 56.9673 134.631 56.9084 134.684 56.8576C134.738 56.8094 134.805 56.7747 134.885 56.7586C134.965 56.7399 135.067 56.7319 135.182 56.7319C135.294 56.7319 135.388 56.7399 135.46 56.7586C135.532 56.7773 135.586 56.8094 135.623 56.8576C135.661 56.9057 135.679 56.9673 135.685 57.0395C135.685 57.1144 135.677 57.2027 135.653 57.3123Z" fill="white"/>
<path d="M141.056 60.244C141.056 60.3804 141.048 60.5142 141.032 60.6479C141.015 60.779 140.994 60.9154 140.967 61.0572L140.307 64.3393C140.299 64.3714 140.285 64.3955 140.269 64.4169C140.25 64.4383 140.221 64.457 140.181 64.473C140.141 64.4891 140.087 64.4998 140.026 64.5078C139.964 64.5158 139.884 64.5185 139.785 64.5185C139.691 64.5185 139.614 64.5158 139.555 64.5078C139.496 64.4998 139.448 64.4891 139.416 64.473C139.384 64.457 139.362 64.4383 139.352 64.4169C139.341 64.3955 139.338 64.3687 139.344 64.3393L139.991 61.092C140.018 60.9716 140.036 60.8539 140.047 60.7416C140.058 60.6292 140.061 60.5302 140.061 60.4446C140.061 60.2066 140.01 60.0167 139.908 59.8695C139.806 59.7224 139.638 59.6502 139.4 59.6502C139.194 59.6502 138.983 59.7091 138.766 59.8294C138.549 59.9471 138.349 60.113 138.164 60.3189C137.979 60.5276 137.814 60.7737 137.666 61.0599C137.519 61.3461 137.415 61.6564 137.348 61.9907L136.88 64.3393C136.872 64.3714 136.859 64.3955 136.84 64.4169C136.821 64.4383 136.792 64.457 136.752 64.473C136.712 64.4891 136.661 64.4998 136.597 64.5078C136.532 64.5158 136.455 64.5185 136.361 64.5185C136.265 64.5185 136.185 64.5158 136.126 64.5078C136.064 64.4998 136.019 64.4891 135.987 64.473C135.955 64.457 135.933 64.4383 135.922 64.4169C135.912 64.3955 135.912 64.3687 135.92 64.3393L136.976 59.0778C136.979 59.051 136.99 59.0243 137.008 59.0029C137.027 58.9815 137.054 58.9601 137.091 58.944C137.129 58.928 137.174 58.9173 137.23 58.9119C137.287 58.9066 137.354 58.9039 137.431 58.9039C137.511 58.9039 137.581 58.9066 137.632 58.9119C137.685 58.9173 137.725 58.928 137.755 58.944C137.784 58.9601 137.803 58.9788 137.811 59.0029C137.819 59.0269 137.822 59.051 137.816 59.0778L137.618 60.0835C137.677 59.9525 137.771 59.8107 137.905 59.6636C138.036 59.5165 138.193 59.38 138.378 59.2543C138.56 59.1286 138.763 59.0269 138.983 58.944C139.202 58.8611 139.432 58.821 139.67 58.821C139.932 58.821 140.149 58.8611 140.325 58.9414C140.499 59.0216 140.644 59.1259 140.751 59.257C140.86 59.3881 140.938 59.5379 140.983 59.709C141.029 59.8802 141.056 60.0568 141.056 60.244Z" fill="white"/>
<path d="M146.441 64.3393C146.43 64.4061 146.387 64.4516 146.317 64.4784C146.248 64.5051 146.13 64.5185 145.967 64.5185C145.884 64.5185 145.82 64.5158 145.769 64.5078C145.718 64.4998 145.678 64.4891 145.646 64.4757C145.614 64.4623 145.595 64.4436 145.585 64.4222C145.574 64.4008 145.574 64.374 145.582 64.3366L145.769 63.3549C145.718 63.4833 145.627 63.6197 145.494 63.7668C145.36 63.9139 145.205 64.0477 145.023 64.1707C144.841 64.2938 144.64 64.3954 144.418 64.4757C144.196 64.5559 143.969 64.596 143.742 64.596C143.511 64.596 143.314 64.5666 143.142 64.5051C142.974 64.4436 142.832 64.3633 142.717 64.2617C142.602 64.16 142.508 64.0423 142.436 63.9086C142.364 63.7749 142.308 63.6358 142.268 63.494C142.228 63.3522 142.201 63.2078 142.187 63.0633C142.174 62.9189 142.166 62.7878 142.166 62.6674C142.166 62.4428 142.187 62.1886 142.23 61.9078C142.273 61.6269 142.34 61.346 142.434 61.0625C142.527 60.779 142.648 60.5035 142.792 60.2333C142.939 59.9631 143.113 59.7224 143.322 59.5137C143.528 59.3051 143.766 59.1366 144.036 59.0082C144.306 58.8798 144.614 58.8156 144.956 58.8156C145.124 58.8156 145.282 58.8343 145.429 58.8718C145.577 58.9092 145.713 58.96 145.833 59.0242C145.954 59.0884 146.066 59.166 146.165 59.2543C146.267 59.3425 146.358 59.4362 146.441 59.5351L147.037 56.5553C147.04 56.5285 147.053 56.5018 147.072 56.4777C147.091 56.4536 147.12 56.4323 147.16 56.4189C147.2 56.4055 147.248 56.3948 147.313 56.3841C147.374 56.3734 147.454 56.3707 147.553 56.3707C147.647 56.3707 147.724 56.3761 147.783 56.3841C147.842 56.3948 147.89 56.4055 147.925 56.4189C147.96 56.4323 147.981 56.451 147.992 56.4777C148.003 56.5018 148.003 56.5285 147.995 56.5553L146.441 64.3393ZM146.253 60.474C146.071 60.2065 145.873 60.0006 145.659 59.8615C145.448 59.7224 145.21 59.6502 144.945 59.6502C144.739 59.6502 144.552 59.6983 144.386 59.7946C144.22 59.8909 144.071 60.0166 143.939 60.1771C143.806 60.3376 143.693 60.5195 143.597 60.7255C143.501 60.9314 143.423 61.1454 143.362 61.3648C143.3 61.5841 143.252 61.8035 143.223 62.0148C143.191 62.2288 143.177 62.4267 143.177 62.6059C143.177 62.9831 143.241 63.272 143.37 63.4726C143.498 63.6732 143.704 63.7722 143.988 63.7722C144.202 63.7722 144.416 63.7133 144.632 63.5956C144.849 63.4779 145.05 63.3174 145.237 63.1115C145.424 62.9055 145.59 62.6594 145.734 62.3759C145.879 62.0923 145.986 61.7794 146.055 61.4423L146.253 60.474Z" fill="white"/>
<path d="M29.3067 19.6791L28.4855 24.8337H24.9653L28.7771 2.41266H33.4287L37.1843 24.8337H33.6293L32.8376 19.6791H29.3067ZM31.0828 7.54847L29.831 16.389H32.3374L31.0828 7.54847Z" fill="white"/>
<path d="M44.8615 25.0824C43.3689 25.0824 42.1064 24.5635 41.0685 23.5257C40.0306 22.4878 39.5117 21.2306 39.5117 19.7514V2.41266H42.8206V19.7166C42.8206 20.2543 43.0105 20.709 43.393 21.0861C43.7755 21.4633 44.2329 21.6505 44.7706 21.6505C45.3082 21.6505 45.763 21.4633 46.1401 21.0861C46.5146 20.7117 46.7045 20.2543 46.7045 19.7166V2.41266H50.23V19.7514C50.23 21.2547 49.7058 22.5199 48.6545 23.5444C47.606 24.5715 46.3407 25.0824 44.8615 25.0824Z" fill="white"/>
<path d="M64.2055 19.2512C64.2296 20.8133 63.823 22.1508 62.9884 23.2608C62.44 24.0125 61.6643 24.5421 60.6612 24.8524C60.1236 25.0183 59.4977 25.1039 58.7835 25.1039C57.4594 25.1039 56.36 24.7748 55.4906 24.1195C54.7631 23.5818 54.188 22.8516 53.7627 21.9261C53.34 21.0032 53.0913 19.944 53.019 18.751L56.2396 18.5182C56.3841 19.8263 56.7291 20.7732 57.2775 21.359C57.6814 21.803 58.1468 22.0117 58.6738 21.9876C59.4121 21.9635 60.0032 21.5997 60.4446 20.8962C60.6719 20.5512 60.7843 20.0563 60.7843 19.409C60.7843 18.4781 60.3616 17.5526 59.5137 16.6324C58.845 15.9985 57.8446 15.0516 56.5071 13.7837C55.3863 12.6977 54.5919 11.724 54.1265 10.8627C53.6262 9.89437 53.3748 8.84581 53.3748 7.71165C53.3748 5.6707 54.0596 4.12193 55.4318 3.07337C56.2797 2.43942 57.3283 2.12378 58.5802 2.12378C59.7865 2.12378 60.8164 2.39127 61.675 2.92892C62.3437 3.34621 62.8841 3.93201 63.2933 4.68098C63.7053 5.43263 63.9514 6.29663 64.037 7.27564L60.7977 7.86679C60.7014 6.9493 60.4392 6.23243 60.0112 5.71885C59.7009 5.34971 59.2542 5.16514 58.6684 5.16514C58.0479 5.16514 57.5771 5.43798 57.2534 5.98901C56.9913 6.43037 56.8602 6.97873 56.8602 7.63408C56.8602 8.66124 57.3016 9.70445 58.1843 10.7664C58.5186 11.173 59.0188 11.6491 59.6876 12.1975C60.474 12.8528 60.9929 13.3129 61.2444 13.575C62.0789 14.4096 62.7236 15.2335 63.1756 16.044C63.3896 16.4265 63.5635 16.7769 63.6946 17.1006C64.0263 17.903 64.1921 18.6172 64.2055 19.2512Z" fill="white"/>
<path d="M70.1285 5.81246H66.5308V2.41266H77.0886V5.81246H73.5096V24.8337H70.1285V5.81246V5.81246Z" fill="white"/>
<path d="M83.1897 24.8337H79.8086V2.41266H83.1897V24.8337Z" fill="white"/>
<path d="M90.0108 2.39392L94.4992 17.475V2.39392H97.8803V24.8337H94.2478L89.5962 10.4641V24.8337H86.2124V2.39392H90.0108Z" fill="white"/>
<path d="M34.1804 51.7593H24.9653V29.3383H28.3464V48.3943H34.1804V51.7593Z" fill="white"/>
<path d="M39.886 51.7593H36.5049V29.3383H39.886V51.7593Z" fill="white"/>
<path d="M48.2452 52.0455C46.7527 52.0455 45.4874 51.5212 44.4442 50.47C43.401 49.4214 42.8794 48.1615 42.8794 46.6957V34.4553C42.8794 32.9654 43.4037 31.6975 44.4549 30.6543C45.5035 29.6111 46.7687 29.0895 48.2479 29.0895C49.7378 29.0895 51.0031 29.6138 52.0409 30.665C53.0788 31.7162 53.5977 32.9788 53.5977 34.458V37.0179H50.0909V34.3885C50.0909 33.8508 49.901 33.3934 49.5185 33.0109C49.136 32.6284 48.6786 32.4385 48.1409 32.4385C47.6033 32.4385 47.1485 32.6284 46.7714 33.0109C46.3969 33.3934 46.207 33.8508 46.207 34.3885V46.6636C46.207 47.2012 46.3942 47.656 46.7714 48.0331C47.1485 48.4076 47.6033 48.5975 48.1409 48.5975C48.6786 48.5975 49.136 48.4103 49.5185 48.0358C49.901 47.6613 50.0909 47.2066 50.0909 46.6689V42.2607H48.2131V38.8609H53.6004V46.6984C53.6004 48.1883 53.0761 49.4535 52.0249 50.4914C50.971 51.5265 49.7111 52.0455 48.2452 52.0455Z" fill="white"/>
<path d="M59.9104 42.2579V51.7592H56.5293V29.3381H59.9104V38.8581H63.9896V29.3381H67.3707V51.7592H63.9896V42.2579H59.9104Z" fill="white"/>
<path d="M73.6886 32.7379H70.0908V29.3381H80.6487V32.7379H77.0696V51.7592H73.6886V32.7379Z" fill="white"/>
<path d="M86.7502 42.2579V51.7592H83.3691V29.3381H86.7502V38.8581H90.8294V29.3381H94.2105V51.7592H90.8294V42.2579H86.7502Z" fill="white"/>
<path d="M102.551 29.052C104.041 29.052 105.309 29.5763 106.352 30.6275C107.395 31.6761 107.917 32.9413 107.917 34.4205V46.6609C107.917 48.1508 107.392 49.4187 106.341 50.4619C105.292 51.5051 104.027 52.0267 102.548 52.0267C101.055 52.0267 99.7929 51.5024 98.755 50.4512C97.7172 49.4026 97.1982 48.1374 97.1982 46.6582V34.4179C97.1982 32.9279 97.7225 31.66 98.7738 30.6168C99.825 29.5736 101.085 29.052 102.551 29.052ZM104.394 34.3483C104.394 33.8106 104.206 33.3559 103.829 32.9788C103.452 32.6043 102.997 32.4144 102.46 32.4144C101.922 32.4144 101.465 32.6016 101.082 32.9788C100.7 33.3559 100.51 33.8106 100.51 34.3483V46.6234C100.51 47.1611 100.7 47.6158 101.082 47.993C101.465 48.3701 101.922 48.5574 102.46 48.5574C102.997 48.5574 103.452 48.3701 103.829 47.993C104.204 47.6158 104.394 47.1611 104.394 46.6234V34.3483Z" fill="white"/>
<path d="M116.222 52.0079C114.729 52.0079 113.467 51.489 112.429 50.4511C111.391 49.4133 110.872 48.1561 110.872 46.6768V29.3381H114.181V46.6421C114.181 47.1797 114.371 47.6345 114.753 48.0116C115.136 48.3888 115.593 48.576 116.131 48.576C116.669 48.576 117.123 48.3888 117.5 48.0116C117.875 47.6371 118.065 47.1797 118.065 46.6421V29.3381H121.59V46.6768C121.59 48.1801 121.066 49.4454 120.015 50.4699C118.966 51.497 117.701 52.0079 116.222 52.0079Z" fill="white"/>
<path d="M135.565 46.1767C135.589 47.7389 135.182 49.0763 134.348 50.1864C133.799 50.938 133.024 51.4677 132.021 51.778C131.483 51.9438 130.857 52.0294 130.143 52.0294C128.819 52.0294 127.719 51.7004 126.85 51.045C126.122 50.5074 125.547 49.7771 125.122 48.8516C124.699 47.9288 124.451 46.8695 124.378 45.6765L127.599 45.4438C127.743 46.7518 128.089 47.6987 128.637 48.2845C129.041 48.7286 129.506 48.9372 130.033 48.9131C130.771 48.8891 131.363 48.5253 131.804 47.8218C132.031 47.4767 132.144 46.9819 132.144 46.3345C132.144 45.4037 131.721 44.4781 130.873 43.558C130.204 42.924 129.204 41.9771 127.866 40.7092C126.746 39.6232 125.951 38.6495 125.486 37.7882C124.986 36.8199 124.734 35.7713 124.734 34.6372C124.734 32.5962 125.419 31.0475 126.791 29.9989C127.639 29.365 128.688 29.0493 129.94 29.0493C131.146 29.0493 132.176 29.3168 133.034 29.8545C133.703 30.2717 134.243 30.8575 134.653 31.6065C135.065 32.3582 135.311 33.2222 135.396 34.2012L132.157 34.7923C132.061 33.8748 131.799 33.158 131.371 32.6444C131.06 32.2752 130.614 32.0907 130.028 32.0907C129.407 32.0907 128.936 32.3635 128.613 32.9145C128.351 33.3559 128.22 33.9043 128.22 34.5596C128.22 35.5868 128.661 36.63 129.544 37.6919C129.878 38.0985 130.378 38.5746 131.047 39.123C131.833 39.7783 132.352 40.2384 132.604 40.5006C133.438 41.3351 134.083 42.159 134.535 42.9695C134.749 43.352 134.923 43.7024 135.054 44.0261C135.386 44.8286 135.554 45.5428 135.565 46.1767Z" fill="white"/>
<path d="M138.374 51.7593V29.3195H148.001V32.7193H141.755V38.8395H146.318V42.2393H141.755V48.3595H148.001V51.7593H138.374Z" fill="white"/>
<path d="M5.26416 32.7568H15.9129L15.5411 24.8605H5.63597L5.26416 32.7568Z" fill="white"/>
<path d="M10.5902 18.0689H5.95459L5.7085 23.285H15.4665L15.2231 18.0689H10.5902Z" fill="white"/>
<path d="M15.223 16.9268L16.8493 15.1881H16.8172V12.6978H4.35755V15.1881H4.32812L5.95446 16.9268H15.223Z" fill="white"/>
<path d="M7.32391 12.2537H8.66671V8.94219H12.5105V12.2537H13.8533V8.54631H14.9126V8.08088L10.8494 3.63786L10.5873 0.628601L10.3278 3.63786L6.26465 8.08088V8.54631H7.32391V12.2537Z" fill="white"/>
<path d="M18.3445 51.1789L15.913 34.3323H5.26421L2.83272 51.1762H0V52.6982H21.1772V51.1762H18.3445V51.1789ZM8.62923 43.6677C8.62923 42.769 9.5066 42.0414 10.5899 42.0414C11.6706 42.0414 12.5506 42.769 12.5506 43.6677V51.1789H8.62923V43.6677Z" fill="white"/>
</svg>
