<svg width="201" height="90" viewBox="0 0 201 90" fill="none" xmlns="http://www.w3.org/2000/svg">
<path d="M8.59523 76.7393C8.59523 76.772 8.59523 76.8156 8.5916 76.8701C8.58797 76.9246 8.5807 76.9863 8.56617 77.0481C8.55164 77.1099 8.53711 77.1789 8.51531 77.2515C8.49352 77.3242 8.46809 77.386 8.43539 77.4368C8.4027 77.4913 8.36637 77.5349 8.31914 77.5676C8.27555 77.6003 8.22469 77.6185 8.17383 77.6185H5.28575L3.50204 86.5188C3.49115 86.5624 3.47298 86.5987 3.44392 86.6314C3.41486 86.6641 3.37126 86.6896 3.31677 86.7077C3.26228 86.7259 3.18962 86.7404 3.0988 86.755C3.00798 86.7695 2.899 86.7731 2.76459 86.7731C2.63017 86.7731 2.52482 86.7659 2.43763 86.755C2.35408 86.7404 2.28869 86.7259 2.23783 86.7077C2.1906 86.6896 2.15791 86.6641 2.14338 86.6314C2.12884 86.5987 2.12521 86.5624 2.13611 86.5188L3.91255 77.6185H1.04264C0.96998 77.6185 0.919121 77.593 0.890059 77.5458C0.864629 77.4986 0.850098 77.4332 0.850098 77.346C0.850098 77.3097 0.85373 77.2624 0.860996 77.208C0.868262 77.1535 0.87916 77.0917 0.893691 77.0227C0.908223 76.9537 0.922754 76.8883 0.944551 76.8229C0.966347 76.7611 0.991777 76.6994 1.02447 76.6449C1.05717 76.5904 1.08986 76.5431 1.12982 76.5105C1.16978 76.4778 1.21701 76.4596 1.26787 76.4596H8.40633C8.47535 76.4596 8.52258 76.485 8.54801 76.5359C8.58434 76.5867 8.59523 76.6521 8.59523 76.7393Z" fill="white"/>
<path d="M12.6823 79.3949C12.6823 79.4167 12.6786 79.4567 12.6714 79.5184C12.6641 79.5802 12.6532 79.6492 12.6423 79.7291C12.6314 79.8091 12.6169 79.889 12.5951 79.9762C12.5733 80.0597 12.5478 80.1396 12.5151 80.2087C12.4825 80.2813 12.4498 80.3395 12.4171 80.3867C12.3807 80.4339 12.3444 80.4593 12.3008 80.4593C12.2572 80.4593 12.2136 80.4484 12.1628 80.4303C12.1119 80.4121 12.0574 80.3903 11.9957 80.3613C11.9339 80.3358 11.8649 80.314 11.785 80.2959C11.705 80.2777 11.6142 80.2668 11.5089 80.2668C11.3272 80.2668 11.1202 80.3431 10.8877 80.4993C10.6515 80.6555 10.419 80.8698 10.1938 81.1459C9.96492 81.422 9.75785 81.7453 9.57258 82.1232C9.38367 82.4973 9.24563 82.9042 9.15481 83.3438L8.52996 86.5261C8.51906 86.5697 8.5009 86.6024 8.47547 86.6315C8.45004 86.6605 8.41008 86.686 8.35559 86.7078C8.3011 86.7296 8.23207 86.7441 8.14489 86.755C8.0577 86.7659 7.95235 86.7695 7.8252 86.7695C7.69442 86.7695 7.58543 86.7659 7.50551 86.755C7.42196 86.7441 7.3602 86.7296 7.31661 86.7078C7.27301 86.686 7.24395 86.6605 7.22942 86.6315C7.21489 86.6024 7.21489 86.5661 7.22579 86.5261L8.64621 79.3804C8.64984 79.3441 8.66801 79.3077 8.69344 79.2787C8.71887 79.246 8.75883 79.2206 8.81332 79.1988C8.86781 79.177 8.92957 79.1624 9.00586 79.1552C9.08215 79.1479 9.17297 79.1443 9.27832 79.1443C9.39094 79.1443 9.48176 79.1479 9.55078 79.1552C9.62344 79.1624 9.67793 79.177 9.71789 79.1988C9.75785 79.2206 9.78328 79.246 9.79418 79.2787C9.80508 79.3114 9.80871 79.3441 9.80144 79.3804L9.53988 80.6809C9.6634 80.463 9.80508 80.2559 9.97219 80.0561C10.1393 79.8563 10.3209 79.6783 10.5171 79.5293C10.7133 79.3804 10.9167 79.2569 11.131 79.1697C11.3454 79.0789 11.5561 79.0353 11.7632 79.0353C11.854 79.0353 11.9448 79.0425 12.0356 79.0534C12.1264 79.068 12.2136 79.0825 12.2935 79.1007C12.3735 79.1188 12.4425 79.1406 12.5042 79.1624C12.566 79.1879 12.6096 79.2133 12.6423 79.246C12.675 79.2787 12.6823 79.3259 12.6823 79.3949Z" fill="white"/>
<path d="M18.7091 86.5261C18.6873 86.6169 18.6292 86.6787 18.5347 86.715C18.4403 86.7513 18.2804 86.7695 18.0588 86.7695C17.9535 86.7695 17.8663 86.7659 17.7973 86.755C17.7282 86.7441 17.6737 86.7295 17.6301 86.7114C17.5866 86.6932 17.5575 86.6678 17.543 86.6387C17.5284 86.6096 17.5284 86.5733 17.543 86.5225L17.8045 85.1747C17.7355 85.3454 17.612 85.5307 17.4303 85.7305C17.2487 85.9303 17.038 86.1156 16.791 86.2863C16.5439 86.4571 16.2715 86.5951 15.97 86.7077C15.6684 86.8203 15.3633 86.8748 15.0509 86.8748C14.6294 86.8748 14.2771 86.8022 14.001 86.6532C13.7249 86.5043 13.5033 86.3081 13.3398 86.0647C13.1763 85.8213 13.0637 85.5452 13.002 85.2401C12.9402 84.9313 12.9111 84.6189 12.9111 84.2955C12.9111 83.9977 12.9402 83.6634 12.9947 83.2893C13.0492 82.9151 13.14 82.53 13.2635 82.1377C13.387 81.7453 13.5505 81.3639 13.7467 80.997C13.9465 80.6264 14.1826 80.2958 14.466 80.0016C14.7457 79.7073 15.0726 79.4712 15.4432 79.2968C15.8137 79.1188 16.2351 79.0316 16.7038 79.0316C17.1724 79.0316 17.5757 79.1261 17.9135 79.3186C18.2477 79.5111 18.5492 79.7691 18.8144 80.1033L18.9634 79.3804C18.9852 79.2968 19.0469 79.2351 19.145 79.1987C19.2467 79.1624 19.403 79.1442 19.6137 79.1442C19.719 79.1442 19.8062 79.1479 19.8788 79.1551C19.9515 79.1624 20.006 79.1769 20.0496 79.1987C20.0932 79.2205 20.1186 79.2459 20.1295 79.2786C20.1404 79.3113 20.144 79.344 20.1368 79.3804L18.7091 86.5261ZM18.4621 81.2513C18.215 80.888 17.9462 80.6119 17.6556 80.4302C17.3686 80.2486 17.0416 80.1578 16.6856 80.1578C16.3986 80.1578 16.1407 80.2268 15.9118 80.3612C15.683 80.4956 15.4795 80.6736 15.3015 80.8952C15.1235 81.1168 14.9709 81.3711 14.8402 81.6545C14.7094 81.9379 14.604 82.2285 14.5241 82.53C14.4405 82.8315 14.3824 83.1294 14.3425 83.42C14.3025 83.7107 14.2843 83.9722 14.2843 84.2047C14.2843 84.39 14.2989 84.5753 14.3279 84.7569C14.357 84.9386 14.4115 85.1057 14.495 85.2582C14.5786 85.4072 14.6876 85.5307 14.8329 85.6215C14.9746 85.7123 15.1598 85.7596 15.3887 85.7596C15.6793 85.7596 15.97 85.6796 16.2642 85.5162C16.5585 85.3527 16.8309 85.1311 17.0852 84.8441C17.3395 84.5571 17.5648 84.2229 17.7609 83.8378C17.9571 83.4527 18.1024 83.0277 18.1969 82.5591L18.4621 81.2513Z" fill="white"/>
<path d="M28.0055 79.3222C28.0055 79.3767 27.9983 79.4276 27.9801 79.4857C27.9656 79.5402 27.9474 79.5983 27.9256 79.6565C27.7294 80.2341 27.5078 80.8153 27.2644 81.4038C27.0174 81.9923 26.7449 82.5809 26.4471 83.1657C26.1492 83.7506 25.8186 84.3246 25.4626 84.8877C25.1065 85.4508 24.7142 85.9957 24.2928 86.5188C24.2565 86.5769 24.2129 86.6205 24.1656 86.6532C24.1184 86.6859 24.0603 86.7114 23.9949 86.7295C23.9295 86.7477 23.8532 86.7586 23.7697 86.7658C23.6861 86.7695 23.5844 86.7731 23.4681 86.7731C23.3047 86.7731 23.1703 86.7695 23.0722 86.7586C22.9705 86.7477 22.8942 86.7332 22.8397 86.7114C22.7852 86.6896 22.7452 86.6605 22.7198 86.6242C22.6944 86.5878 22.6798 86.5443 22.6762 86.4898L21.6227 79.7218C21.6191 79.6637 21.6118 79.6129 21.6118 79.5656C21.6082 79.522 21.6082 79.4784 21.6082 79.4421C21.6082 79.3731 21.6191 79.3222 21.6408 79.2823C21.6626 79.246 21.6953 79.2169 21.7426 79.1951C21.7898 79.1733 21.8552 79.1588 21.9351 79.1515C22.0187 79.1442 22.1276 79.1406 22.2657 79.1406C22.4037 79.1406 22.5127 79.1442 22.5999 79.1515C22.6871 79.1588 22.7489 79.1733 22.7924 79.1915C22.836 79.2096 22.8687 79.2351 22.8833 79.2714C22.8978 79.3077 22.9087 79.3477 22.916 79.3949L23.7733 85.28V85.3745L23.8133 85.3273C24.1257 84.8586 24.409 84.4009 24.6706 83.9577C24.9285 83.5145 25.1719 83.0604 25.3935 82.5881C25.6151 82.1195 25.8258 81.6218 26.0256 81.1059C26.2254 80.5865 26.4253 80.0161 26.6323 79.3913C26.6469 79.344 26.6723 79.3041 26.7013 79.2677C26.7304 79.235 26.774 79.206 26.8285 79.1878C26.883 79.1697 26.9593 79.1551 27.0501 79.1479C27.1409 79.1406 27.2572 79.137 27.3952 79.137C27.5224 79.137 27.6241 79.1406 27.704 79.1479C27.7839 79.1551 27.8457 79.166 27.8893 79.1806C27.9329 79.1951 27.9656 79.2133 27.9837 79.2351C27.9983 79.2641 28.0055 79.2932 28.0055 79.3222Z" fill="white"/>
<path d="M29.6874 86.5261C29.6765 86.5697 29.6584 86.6024 29.6329 86.6315C29.6075 86.6606 29.5676 86.686 29.5131 86.7078C29.4586 86.7296 29.3895 86.7441 29.3024 86.755C29.2152 86.7659 29.1098 86.7695 28.9827 86.7695C28.8519 86.7695 28.7429 86.7659 28.663 86.755C28.5794 86.7441 28.5177 86.7296 28.4741 86.7078C28.4305 86.686 28.4014 86.6606 28.3869 86.6315C28.3724 86.6024 28.3724 86.5661 28.3833 86.5261L29.8037 79.3877C29.8073 79.3514 29.8255 79.315 29.8509 79.286C29.8763 79.2533 29.9163 79.2278 29.9708 79.206C30.0253 79.1843 30.0943 79.1697 30.1815 79.1588C30.2687 79.1479 30.3777 79.1443 30.5121 79.1443C30.6392 79.1443 30.7446 79.1479 30.8245 79.1588C30.9081 79.1697 30.9698 79.1843 31.0134 79.206C31.057 79.2278 31.0861 79.2533 31.1006 79.286C31.1151 79.3187 31.1188 79.3514 31.1115 79.3877L29.6874 86.5261ZM31.7436 76.9828C31.7182 77.1317 31.6818 77.2552 31.6346 77.357C31.591 77.4587 31.5293 77.5386 31.4566 77.6004C31.384 77.6621 31.2895 77.7057 31.1805 77.7311C31.0679 77.7566 30.9335 77.7711 30.7773 77.7711C30.6247 77.7711 30.4975 77.7566 30.3958 77.7311C30.2941 77.7057 30.2215 77.6621 30.1742 77.6004C30.127 77.5386 30.1016 77.4587 30.0943 77.357C30.0907 77.2552 30.0979 77.1317 30.127 76.9828C30.1597 76.8338 30.1997 76.7103 30.2469 76.6122C30.2941 76.5141 30.3559 76.4342 30.4249 76.3652C30.4975 76.2998 30.5884 76.2526 30.6974 76.2308C30.81 76.2054 30.9444 76.1945 31.1006 76.1945C31.2532 76.1945 31.3803 76.2054 31.4784 76.2308C31.5765 76.2562 31.6491 76.2998 31.7 76.3652C31.7509 76.4306 31.7763 76.5141 31.7836 76.6122C31.7872 76.7139 31.7763 76.8338 31.7436 76.9828Z" fill="white"/>
<path d="M37.5199 79.7763C37.5199 79.8308 37.5126 79.8999 37.4945 79.987C37.4799 80.0742 37.4545 80.1614 37.4254 80.245C37.3964 80.3285 37.3637 80.4012 37.3237 80.4593C37.2838 80.5174 37.2402 80.5465 37.1929 80.5465C37.1312 80.5465 37.0549 80.5211 36.9677 80.4702C36.8805 80.4194 36.7752 80.3649 36.648 80.2995C36.5209 80.2377 36.3683 80.1796 36.1939 80.1251C36.0159 80.0706 35.8052 80.0452 35.5618 80.0452C35.3293 80.0452 35.1222 80.0779 34.9442 80.1433C34.7626 80.2087 34.6137 80.2995 34.4901 80.4121C34.3703 80.5247 34.2758 80.6555 34.214 80.8008C34.1523 80.9461 34.1196 81.0987 34.1196 81.2549C34.1196 81.4656 34.1886 81.6436 34.3303 81.7817C34.472 81.9197 34.6463 82.0469 34.8571 82.1595C35.0678 82.2685 35.2966 82.3811 35.5436 82.4901C35.7907 82.599 36.0159 82.7298 36.2266 82.886C36.4337 83.0422 36.6117 83.2311 36.7497 83.4491C36.8914 83.6707 36.9604 83.9468 36.9604 84.2774C36.9604 84.6479 36.8878 84.9931 36.7425 85.3127C36.5972 85.6324 36.3865 85.9085 36.114 86.1374C35.8415 86.3663 35.511 86.5479 35.1259 86.6787C34.7408 86.8095 34.3085 86.8712 33.8326 86.8712C33.5856 86.8712 33.3494 86.853 33.1315 86.8167C32.9135 86.7804 32.7137 86.7332 32.5357 86.675C32.3577 86.6169 32.2051 86.5515 32.078 86.4825C31.9508 86.4098 31.8527 86.3445 31.7837 86.2791C31.7401 86.2355 31.711 86.1919 31.6929 86.1483C31.6747 86.1047 31.6638 86.0502 31.6638 85.9848C31.6638 85.9412 31.6674 85.894 31.6711 85.8322C31.6747 85.7741 31.6856 85.7123 31.7038 85.6506C31.7183 85.5888 31.7365 85.5271 31.7546 85.469C31.7728 85.4108 31.7946 85.3563 31.8237 85.3091C31.8491 85.2619 31.8782 85.2219 31.9036 85.1929C31.929 85.1638 31.9617 85.1493 31.998 85.1493C32.0598 85.1493 32.1397 85.1856 32.2269 85.2582C32.3177 85.3309 32.434 85.4072 32.5793 85.4871C32.7246 85.567 32.9062 85.647 33.1242 85.716C33.3422 85.7886 33.611 85.825 33.9343 85.825C34.2249 85.825 34.4756 85.7886 34.6827 85.716C34.8897 85.6433 35.0641 85.5489 35.2022 85.429C35.3402 85.3091 35.4419 85.1711 35.5073 85.0112C35.5727 84.8514 35.6054 84.6843 35.6054 84.5099C35.6054 84.2883 35.5364 84.1067 35.3983 83.965C35.2603 83.8269 35.0859 83.6998 34.8788 83.5835C34.6718 83.4709 34.4429 83.3583 34.1995 83.2457C33.9561 83.1331 33.7309 83.0023 33.5202 82.8533C33.3095 82.7044 33.1351 82.5191 32.9971 82.2975C32.859 82.0759 32.7864 81.7998 32.7864 81.462C32.7864 81.1132 32.8554 80.7899 32.9934 80.4884C33.1315 80.1905 33.324 79.9326 33.5747 79.711C33.8253 79.493 34.1269 79.3222 34.4792 79.1987C34.8316 79.0752 35.2203 79.0171 35.649 79.0171C35.8488 79.0171 36.045 79.0316 36.2303 79.0643C36.4192 79.097 36.5899 79.137 36.7497 79.1842C36.9096 79.2314 37.044 79.2859 37.1639 79.344C37.2801 79.4022 37.3673 79.4603 37.4254 79.5184C37.4872 79.5838 37.5199 79.6637 37.5199 79.7763Z" fill="white"/>
<path d="M49.9947 86.2391C50.0093 86.3553 50.0129 86.4498 50.0056 86.5224C49.9984 86.5951 49.9693 86.6496 49.9184 86.6859C49.8676 86.7222 49.7913 86.7477 49.6859 86.7585C49.5806 86.7694 49.4389 86.7731 49.2573 86.7731C49.141 86.7731 49.0393 86.7694 48.9557 86.7622C48.8722 86.7549 48.8068 86.7404 48.7632 86.7222C48.7196 86.7041 48.6833 86.6786 48.6651 86.6459C48.6433 86.6132 48.6324 86.5733 48.6252 86.526L48.2437 84.0267H43.9679L42.6274 86.5006C42.602 86.5551 42.5693 86.5951 42.5366 86.6314C42.5003 86.6641 42.453 86.6932 42.3949 86.715C42.3331 86.7367 42.2532 86.7513 42.1588 86.7585C42.0607 86.7658 41.9408 86.7694 41.7991 86.7694C41.6393 86.7694 41.5121 86.7622 41.4177 86.7513C41.3232 86.7368 41.2578 86.7113 41.2179 86.675C41.1815 86.6387 41.1707 86.5842 41.1852 86.5115C41.1997 86.4389 41.2397 86.348 41.2978 86.2282L46.6453 76.692C46.6816 76.6339 46.7216 76.5867 46.7652 76.5504C46.8088 76.514 46.8633 76.485 46.9323 76.4632C47.0013 76.4414 47.0885 76.4269 47.1938 76.4196C47.2992 76.4123 47.43 76.4087 47.5825 76.4087C47.7569 76.4087 47.8986 76.4123 48.0076 76.4196C48.1166 76.4269 48.2038 76.4414 48.2691 76.4632C48.3345 76.485 48.3818 76.514 48.4072 76.554C48.4326 76.594 48.4508 76.6412 48.4617 76.6993L49.9947 86.2391ZM47.321 77.8255H47.3137L44.5383 82.9441H48.0911L47.321 77.8255Z" fill="white"/>
<path d="M56.9115 79.7763C56.9115 79.8308 56.9042 79.8999 56.8861 79.987C56.8715 80.0742 56.8461 80.1614 56.817 80.245C56.788 80.3285 56.7553 80.4012 56.7153 80.4593C56.6754 80.5174 56.6318 80.5465 56.5845 80.5465C56.5228 80.5465 56.4465 80.5211 56.3593 80.4702C56.2721 80.4194 56.1668 80.3649 56.0396 80.2995C55.9125 80.2377 55.7599 80.1796 55.5855 80.1251C55.4075 80.0706 55.1968 80.0452 54.9534 80.0452C54.7209 80.0452 54.5139 80.0779 54.3358 80.1433C54.1542 80.2087 54.0053 80.2995 53.8817 80.4121C53.7619 80.5247 53.6674 80.6555 53.6056 80.8008C53.5439 80.9461 53.5112 81.0987 53.5112 81.2549C53.5112 81.4656 53.5802 81.6436 53.7219 81.7817C53.8636 81.9197 54.038 82.0469 54.2487 82.1595C54.4594 82.2685 54.6882 82.3811 54.9353 82.4901C55.1823 82.599 55.4075 82.7298 55.6182 82.886C55.8253 83.0422 56.0033 83.2311 56.1413 83.4491C56.283 83.6707 56.352 83.9468 56.352 84.2774C56.352 84.6479 56.2794 84.9931 56.1341 85.3127C55.9888 85.6324 55.7781 85.9085 55.5056 86.1374C55.2331 86.3663 54.9026 86.5479 54.5175 86.6787C54.1324 86.8095 53.7001 86.8712 53.2242 86.8712C52.9772 86.8712 52.741 86.853 52.5231 86.8167C52.3051 86.7804 52.1053 86.7332 51.9273 86.675C51.7493 86.6169 51.5967 86.5515 51.4696 86.4825C51.3424 86.4098 51.2443 86.3445 51.1753 86.2791C51.1317 86.2355 51.1026 86.1919 51.0845 86.1483C51.0663 86.1047 51.0554 86.0502 51.0554 85.9848C51.0554 85.9412 51.0591 85.894 51.0627 85.8322C51.0663 85.7741 51.0772 85.7123 51.0954 85.6506C51.1099 85.5888 51.1281 85.5271 51.1462 85.469C51.1644 85.4108 51.1862 85.3563 51.2153 85.3091C51.2407 85.2619 51.2698 85.2219 51.2952 85.1929C51.3206 85.1638 51.3533 85.1493 51.3896 85.1493C51.4514 85.1493 51.5313 85.1856 51.6185 85.2582C51.7093 85.3309 51.8256 85.4072 51.9709 85.4871C52.1162 85.567 52.2978 85.647 52.5158 85.716C52.7338 85.7886 53.0026 85.825 53.3259 85.825C53.6165 85.825 53.8672 85.7886 54.0743 85.716C54.2814 85.6433 54.4557 85.5489 54.5938 85.429C54.7318 85.3091 54.8335 85.1711 54.8989 85.0112C54.9643 84.8514 54.997 84.6843 54.997 84.5099C54.997 84.2883 54.928 84.1067 54.7899 83.965C54.6519 83.8269 54.4775 83.6998 54.2705 83.5835C54.0634 83.4709 53.8345 83.3583 53.5911 83.2457C53.3477 83.1331 53.1225 83.0023 52.9118 82.8533C52.7011 82.7044 52.5267 82.5191 52.3887 82.2975C52.2506 82.0759 52.178 81.7998 52.178 81.462C52.178 81.1132 52.247 80.7899 52.385 80.4884C52.5231 80.1905 52.7156 79.9326 52.9663 79.711C53.2169 79.493 53.5185 79.3222 53.8708 79.1987C54.2232 79.0752 54.6119 79.0171 55.0406 79.0171C55.2404 79.0171 55.4366 79.0316 55.6219 79.0643C55.8108 79.097 55.9815 79.137 56.1413 79.1842C56.3012 79.2314 56.4356 79.2859 56.5555 79.344C56.6717 79.4022 56.7589 79.4603 56.817 79.5184C56.8824 79.5838 56.9115 79.6637 56.9115 79.7763Z" fill="white"/>
<path d="M63.2362 79.7763C63.2362 79.8308 63.2289 79.8999 63.2108 79.987C63.1962 80.0742 63.1708 80.1614 63.1418 80.245C63.1127 80.3285 63.08 80.4012 63.04 80.4593C63.0001 80.5174 62.9565 80.5465 62.9093 80.5465C62.8475 80.5465 62.7712 80.5211 62.684 80.4702C62.5968 80.4194 62.4915 80.3649 62.3643 80.2995C62.2372 80.2377 62.0846 80.1796 61.9102 80.1251C61.7322 80.0706 61.5215 80.0452 61.2781 80.0452C61.0456 80.0452 60.8386 80.0779 60.6605 80.1433C60.4789 80.2087 60.33 80.2995 60.2064 80.4121C60.0866 80.5247 59.9921 80.6555 59.9304 80.8008C59.8686 80.9461 59.8359 81.0987 59.8359 81.2549C59.8359 81.4656 59.9049 81.6436 60.0466 81.7817C60.1883 81.9197 60.3627 82.0469 60.5734 82.1595C60.7841 82.2685 61.0129 82.3811 61.26 82.4901C61.507 82.599 61.7322 82.7298 61.9429 82.886C62.15 83.0422 62.328 83.2311 62.4661 83.4491C62.6077 83.6707 62.6768 83.9468 62.6768 84.2774C62.6768 84.6479 62.6041 84.9931 62.4588 85.3127C62.3135 85.6324 62.1028 85.9085 61.8303 86.1374C61.5579 86.3663 61.2273 86.5479 60.8422 86.6787C60.4571 86.8095 60.0248 86.8712 59.5489 86.8712C59.3019 86.8712 59.0658 86.853 58.8478 86.8167C58.6298 86.7804 58.43 86.7332 58.252 86.675C58.074 86.6169 57.9214 86.5515 57.7943 86.4825C57.6671 86.4098 57.569 86.3445 57.5 86.2791C57.4564 86.2355 57.4274 86.1919 57.4092 86.1483C57.391 86.1047 57.3801 86.0502 57.3801 85.9848C57.3801 85.9412 57.3838 85.894 57.3874 85.8322C57.391 85.7741 57.4019 85.7123 57.4201 85.6506C57.4346 85.5888 57.4528 85.5271 57.4709 85.469C57.4891 85.4108 57.5109 85.3563 57.54 85.3091C57.5654 85.2619 57.5945 85.2219 57.6199 85.1929C57.6453 85.1638 57.678 85.1493 57.7143 85.1493C57.7761 85.1493 57.856 85.1856 57.9432 85.2582C58.034 85.3309 58.1503 85.4072 58.2956 85.4871C58.4409 85.567 58.6225 85.647 58.8405 85.716C59.0585 85.7886 59.3273 85.825 59.6506 85.825C59.9413 85.825 60.1919 85.7886 60.399 85.716C60.6061 85.6433 60.7804 85.5489 60.9185 85.429C61.0565 85.3091 61.1582 85.1711 61.2236 85.0112C61.289 84.8514 61.3217 84.6843 61.3217 84.5099C61.3217 84.2883 61.2527 84.1067 61.1146 83.965C60.9766 83.8269 60.8022 83.6998 60.5952 83.5835C60.3881 83.4709 60.1592 83.3583 59.9158 83.2457C59.6724 83.1331 59.4472 83.0023 59.2365 82.8533C59.0258 82.7044 58.8514 82.5191 58.7134 82.2975C58.5753 82.0759 58.5027 81.7998 58.5027 81.462C58.5027 81.1132 58.5717 80.7899 58.7097 80.4884C58.8478 80.1905 59.0403 79.9326 59.291 79.711C59.5416 79.493 59.8432 79.3222 60.1955 79.1987C60.5479 79.0752 60.9366 79.0171 61.3653 79.0171C61.5651 79.0171 61.7613 79.0316 61.9466 79.0643C62.1355 79.097 62.3062 79.137 62.4661 79.1842C62.6259 79.2314 62.7603 79.2859 62.8802 79.344C62.9964 79.4022 63.0836 79.4603 63.1418 79.5184C63.2071 79.5838 63.2362 79.6637 63.2362 79.7763Z" fill="white"/>
<path d="M71.3809 81.7489C71.3809 82.1413 71.3446 82.5409 71.2683 82.9478C71.1956 83.3546 71.083 83.747 70.9304 84.1248C70.7779 84.5026 70.589 84.8586 70.3565 85.1928C70.124 85.527 69.8515 85.8177 69.5355 86.0647C69.2194 86.3154 68.8634 86.5115 68.4638 86.6568C68.0642 86.8022 67.6173 86.8748 67.1269 86.8748C66.6183 86.8748 66.186 86.8131 65.8227 86.6932C65.4594 86.5733 65.1616 86.3953 64.9291 86.1628C64.6966 85.9303 64.5258 85.6433 64.4132 85.3054C64.3006 84.9676 64.2461 84.5825 64.2461 84.1538C64.2461 83.7615 64.2824 83.3619 64.3514 82.955C64.4241 82.5481 64.5367 82.1558 64.6893 81.7816C64.8419 81.4074 65.0344 81.0514 65.2633 80.7136C65.4921 80.3794 65.7646 80.0851 66.0807 79.8381C66.3967 79.591 66.7527 79.3912 67.1523 79.2459C67.5519 79.1006 67.9988 79.028 68.4892 79.028C68.9978 79.028 69.4301 79.0897 69.7934 79.2132C70.1567 79.3367 70.4546 79.5148 70.6907 79.7473C70.9268 79.9798 71.0976 80.2667 71.2102 80.6046C71.3264 80.9461 71.3809 81.3275 71.3809 81.7489ZM70.0005 81.8288C70.0005 81.5637 69.9714 81.3275 69.9169 81.1132C69.8624 80.9025 69.768 80.7245 69.6408 80.5792C69.51 80.4339 69.3429 80.3212 69.1322 80.2413C68.9215 80.1614 68.6708 80.1214 68.373 80.1214C68.0569 80.1214 67.7663 80.1796 67.5083 80.2922C67.2504 80.4048 67.0179 80.561 66.8145 80.7535C66.611 80.9461 66.433 81.1713 66.2841 81.4329C66.1352 81.6908 66.008 81.9669 65.9099 82.2612C65.8118 82.5554 65.7392 82.8569 65.6919 83.1657C65.6447 83.4745 65.6193 83.7797 65.6193 84.0739C65.6193 84.3391 65.6484 84.5752 65.7065 84.7896C65.7646 85.0003 65.8591 85.1819 65.9862 85.3272C66.117 85.4762 66.2841 85.5888 66.4912 85.6687C66.6982 85.7486 66.9489 85.7886 67.2432 85.7886C67.5665 85.7886 67.8535 85.7305 68.1114 85.6179C68.3693 85.5052 68.5982 85.349 68.8016 85.1529C69.0051 84.9567 69.1831 84.7315 69.332 84.4699C69.4846 84.212 69.6081 83.9322 69.7062 83.638C69.8043 83.3401 69.8769 83.0422 69.9242 82.7334C69.9787 82.4283 70.0005 82.1267 70.0005 81.8288Z" fill="white"/>
<path d="M78.7447 80.0125C78.7447 80.107 78.7338 80.205 78.7156 80.3068C78.6974 80.4085 78.6684 80.4993 78.6321 80.5901C78.5957 80.6773 78.5521 80.75 78.5013 80.8081C78.4504 80.8662 78.3959 80.8953 78.3305 80.8953C78.2579 80.8953 78.178 80.8553 78.1017 80.779C78.0217 80.7027 77.9164 80.6155 77.7892 80.5211C77.6621 80.4266 77.495 80.3395 77.2988 80.2595C77.099 80.1796 76.8484 80.1397 76.5396 80.1397C76.2017 80.1397 75.9002 80.2087 75.6386 80.3504C75.3771 80.492 75.1482 80.6737 74.9557 80.8989C74.7631 81.1241 74.6033 81.3784 74.4761 81.6654C74.349 81.9524 74.2473 82.2394 74.1673 82.53C74.0874 82.8207 74.0293 83.104 73.9966 83.3765C73.9639 83.6489 73.9457 83.8851 73.9457 84.0849C73.9457 84.6298 74.0656 85.0439 74.3018 85.3237C74.5415 85.6034 74.8939 85.7451 75.3662 85.7451C75.7113 85.7451 76.0055 85.7015 76.2489 85.6179C76.496 85.5344 76.703 85.4363 76.8774 85.3273C77.0482 85.2183 77.1898 85.1239 77.3024 85.0367C77.4151 84.9531 77.5095 84.9095 77.5967 84.9095C77.6403 84.9095 77.673 84.9277 77.6948 84.9676C77.7202 85.0076 77.7311 85.0621 77.7311 85.1384C77.7311 85.2001 77.7275 85.2764 77.7166 85.3636C77.7057 85.4508 77.6875 85.5416 77.6657 85.6325C77.6403 85.7233 77.6112 85.8105 77.5785 85.8904C77.5458 85.9703 77.495 86.043 77.4332 86.1083C77.3678 86.1737 77.2589 86.2537 77.099 86.3517C76.9392 86.4462 76.7575 86.5334 76.5468 86.6097C76.3398 86.686 76.1109 86.7514 75.8675 86.7986C75.6241 86.8494 75.3734 86.8749 75.1155 86.8749C74.2654 86.8749 73.6297 86.6569 73.2083 86.2246C72.7869 85.7923 72.5762 85.1457 72.5762 84.2883C72.5762 83.965 72.6052 83.6126 72.6597 83.2275C72.7142 82.8425 72.8087 82.4574 72.9395 82.0687C73.0702 81.68 73.241 81.3021 73.448 80.9389C73.6551 80.5756 73.9094 80.2486 74.2109 79.9689C74.5125 79.6856 74.8612 79.4603 75.2572 79.2896C75.6532 79.1188 76.1073 79.0353 76.6231 79.0353C76.8338 79.0353 77.0373 79.0534 77.2334 79.0861C77.4296 79.1188 77.6112 79.1661 77.7856 79.2242C77.9564 79.2823 78.1126 79.355 78.2542 79.4422C78.3959 79.5293 78.5013 79.6056 78.5812 79.6747C78.6575 79.7437 78.7047 79.8018 78.7229 79.849C78.7338 79.9035 78.7447 79.9544 78.7447 80.0125Z" fill="white"/>
<path d="M80.5539 86.5261C80.543 86.5697 80.5248 86.6024 80.4994 86.6315C80.474 86.6606 80.434 86.686 80.3795 86.7078C80.325 86.7296 80.256 86.7441 80.1688 86.755C80.0816 86.7659 79.9763 86.7695 79.8491 86.7695C79.7183 86.7695 79.6094 86.7659 79.5294 86.755C79.4459 86.7441 79.3841 86.7296 79.3405 86.7078C79.2969 86.686 79.2679 86.6606 79.2533 86.6315C79.2388 86.6024 79.2388 86.5661 79.2497 86.5261L80.6701 79.3877C80.6738 79.3514 80.6919 79.315 80.7174 79.286C80.7428 79.2533 80.7828 79.2278 80.8372 79.206C80.8917 79.1843 80.9608 79.1697 81.048 79.1588C81.1351 79.1479 81.2441 79.1443 81.3785 79.1443C81.5057 79.1443 81.611 79.1479 81.691 79.1588C81.7745 79.1697 81.8363 79.1843 81.8799 79.206C81.9235 79.2278 81.9525 79.2533 81.9671 79.286C81.9816 79.3187 81.9852 79.3514 81.9779 79.3877L80.5539 86.5261ZM82.6064 76.9828C82.581 77.1317 82.5447 77.2552 82.4974 77.357C82.4502 77.4587 82.3921 77.5386 82.3194 77.6004C82.2468 77.6621 82.1523 77.7057 82.0433 77.7311C81.9307 77.7566 81.7963 77.7711 81.6401 77.7711C81.4875 77.7711 81.3604 77.7566 81.2587 77.7311C81.1569 77.7057 81.0843 77.6621 81.0371 77.6004C80.9898 77.5386 80.9644 77.4587 80.9571 77.357C80.9535 77.2552 80.9608 77.1317 80.9898 76.9828C81.0225 76.8338 81.0625 76.7103 81.1097 76.6122C81.1569 76.5141 81.2187 76.4342 81.2877 76.3652C81.3604 76.2998 81.4512 76.2526 81.5602 76.2308C81.6728 76.2054 81.8072 76.1945 81.9634 76.1945C82.116 76.1945 82.2431 76.2054 82.3412 76.2308C82.4393 76.2562 82.512 76.2998 82.5628 76.3652C82.6137 76.4306 82.6391 76.5141 82.6464 76.6122C82.65 76.7139 82.6391 76.8338 82.6064 76.9828Z" fill="white"/>
<path d="M88.8983 86.5261C88.8765 86.6169 88.8184 86.6787 88.7239 86.715C88.6295 86.7513 88.4696 86.7695 88.248 86.7695C88.1427 86.7695 88.0555 86.7659 87.9865 86.755C87.9174 86.7441 87.8629 86.7295 87.8194 86.7114C87.7758 86.6932 87.7467 86.6678 87.7322 86.6387C87.7176 86.6096 87.7176 86.5733 87.7322 86.5225L87.9937 85.1747C87.9247 85.3454 87.8012 85.5307 87.6196 85.7305C87.4379 85.9303 87.2272 86.1156 86.9802 86.2863C86.7331 86.4571 86.4607 86.5951 86.1592 86.7077C85.8576 86.8203 85.5525 86.8748 85.2401 86.8748C84.8187 86.8748 84.4663 86.8022 84.1902 86.6532C83.9141 86.5043 83.6925 86.3081 83.529 86.0647C83.3655 85.8213 83.2529 85.5452 83.1912 85.2401C83.1294 84.9313 83.1003 84.6189 83.1003 84.2955C83.1003 83.9977 83.1294 83.6634 83.1839 83.2893C83.2384 82.9151 83.3292 82.53 83.4527 82.1377C83.5762 81.7453 83.7397 81.3639 83.9359 80.997C84.1357 80.6264 84.3718 80.2958 84.6552 80.0016C84.9349 79.7073 85.2619 79.4712 85.6324 79.2968C86.003 79.1188 86.4244 79.0316 86.893 79.0316C87.3616 79.0316 87.7649 79.1261 88.1027 79.3186C88.4369 79.5111 88.7385 79.7691 89.0036 80.1033L89.1526 79.3804C89.1744 79.2968 89.2361 79.2351 89.3342 79.1987C89.436 79.1624 89.5922 79.1442 89.8029 79.1442C89.9082 79.1442 89.9954 79.1479 90.0681 79.1551C90.1407 79.1624 90.1952 79.1769 90.2388 79.1987C90.2824 79.2205 90.3078 79.2459 90.3187 79.2786C90.3296 79.3113 90.3333 79.344 90.326 79.3804L88.8983 86.5261ZM88.6513 81.2513C88.4042 80.888 88.1354 80.6119 87.8448 80.4302C87.5578 80.2486 87.2308 80.1578 86.8748 80.1578C86.5878 80.1578 86.3299 80.2268 86.101 80.3612C85.8722 80.4956 85.6687 80.6736 85.4907 80.8952C85.3127 81.1168 85.1601 81.3711 85.0294 81.6545C84.8986 81.9379 84.7932 82.2285 84.7133 82.53C84.6298 82.8315 84.5716 83.1294 84.5317 83.42C84.4917 83.7107 84.4735 83.9722 84.4735 84.2047C84.4735 84.39 84.4881 84.5753 84.5171 84.7569C84.5462 84.9386 84.6007 85.1057 84.6842 85.2582C84.7678 85.4072 84.8768 85.5307 85.0221 85.6215C85.1638 85.7123 85.349 85.7596 85.5779 85.7596C85.8685 85.7596 86.1592 85.6796 86.4534 85.5162C86.7477 85.3563 87.0201 85.1311 87.2744 84.8441C87.5287 84.5571 87.754 84.2229 87.9501 83.8378C88.1463 83.4527 88.2916 83.0277 88.3861 82.5591L88.6513 81.2513Z" fill="white"/>
<path d="M97.9478 86.5261C97.9369 86.5697 97.9187 86.6024 97.8933 86.6315C97.8679 86.6606 97.8279 86.686 97.7734 86.7078C97.7189 86.7296 97.6499 86.7441 97.5627 86.755C97.4755 86.7659 97.3702 86.7695 97.243 86.7695C97.1159 86.7695 97.0105 86.7659 96.927 86.755C96.8434 86.7441 96.778 86.7296 96.7344 86.7078C96.6908 86.686 96.6581 86.6606 96.6436 86.6315C96.6291 86.6024 96.6255 86.5661 96.6363 86.5261L97.8897 80.2668H94.2024L93.4031 84.2484C93.3813 84.361 93.3632 84.4845 93.3487 84.6226C93.3341 84.7606 93.3232 84.8732 93.3232 84.964C93.3232 85.2329 93.3813 85.4327 93.494 85.5562C93.6066 85.6797 93.7919 85.7415 94.0462 85.7415C94.1878 85.7415 94.3114 85.7306 94.4203 85.7051C94.5257 85.6797 94.6165 85.6579 94.6928 85.6288C94.7691 85.6034 94.8381 85.578 94.8962 85.5526C94.9544 85.5271 95.0052 85.5162 95.0452 85.5162C95.0888 85.5162 95.1215 85.5308 95.1433 85.5598C95.1687 85.5889 95.1796 85.6434 95.1796 85.7233C95.1796 85.7923 95.1723 85.8686 95.1614 85.9485C95.1469 86.0321 95.1324 86.112 95.1106 86.1919C95.0888 86.2719 95.0633 86.3445 95.0306 86.4063C94.9979 86.468 94.9653 86.5189 94.9289 86.5552C94.8853 86.5915 94.8236 86.6279 94.74 86.6678C94.6565 86.7042 94.5584 86.7369 94.4458 86.7659C94.3332 86.795 94.2169 86.8168 94.0934 86.8349C93.9699 86.8495 93.8463 86.8604 93.7228 86.8604C93.4249 86.8604 93.1706 86.8277 92.9527 86.7659C92.7347 86.7042 92.5531 86.6024 92.4041 86.468C92.2552 86.3336 92.1462 86.1629 92.0735 85.9594C92.0009 85.756 91.9682 85.5126 91.9682 85.2256C91.9682 85.1638 91.9718 85.0912 91.9755 85.0149C91.9791 84.9386 91.99 84.8587 92.0045 84.7715C92.019 84.688 92.0299 84.6008 92.0445 84.5172C92.059 84.4337 92.0735 84.3537 92.0881 84.2774L92.8909 80.2632H91.8992C91.841 80.2632 91.7975 80.245 91.7648 80.2123C91.7321 80.1796 91.7175 80.1106 91.7175 80.0089C91.7175 79.9362 91.7248 79.8491 91.743 79.751C91.7611 79.6529 91.7829 79.5621 91.8156 79.4785C91.8483 79.395 91.8883 79.3223 91.9391 79.2642C91.99 79.2061 92.0481 79.177 92.1171 79.177H93.1162L93.4576 77.4805C93.4613 77.4441 93.4794 77.4078 93.5085 77.3787C93.5376 77.3461 93.5775 77.3206 93.632 77.2952C93.6865 77.2698 93.7555 77.2552 93.8427 77.2443C93.9299 77.2334 94.0353 77.2298 94.1624 77.2298C94.2896 77.2298 94.3949 77.2334 94.4785 77.2443C94.562 77.2552 94.6274 77.2734 94.671 77.2952C94.7146 77.3206 94.7437 77.3461 94.7582 77.3787C94.7727 77.4114 94.7727 77.4441 94.7618 77.4805L94.4203 79.177H99.0122C99.172 79.177 99.2738 79.2133 99.3174 79.2823C99.361 79.3514 99.3682 79.4567 99.3355 79.5948L97.9478 86.5261ZM99.9967 76.9828C99.9713 77.1317 99.9349 77.2552 99.8877 77.357C99.8405 77.4587 99.7824 77.5386 99.7097 77.6004C99.637 77.6621 99.5426 77.7057 99.4372 77.7311C99.3283 77.7566 99.1938 77.7711 99.0376 77.7711C98.8778 77.7711 98.7506 77.7566 98.6525 77.7311C98.5545 77.7057 98.4818 77.6621 98.4382 77.6004C98.3946 77.5386 98.3692 77.4587 98.3619 77.357C98.3583 77.2552 98.3656 77.1317 98.3946 76.9828C98.4201 76.8338 98.4564 76.7103 98.5036 76.6122C98.5472 76.5141 98.609 76.4342 98.6852 76.3652C98.7615 76.2998 98.8524 76.2526 98.9577 76.2308C99.0631 76.2054 99.1938 76.1945 99.3537 76.1945C99.5135 76.1945 99.6407 76.2054 99.7388 76.2308C99.8368 76.2562 99.9095 76.2998 99.9567 76.3652C100.004 76.4306 100.029 76.5141 100.037 76.6122C100.044 76.7103 100.026 76.8338 99.9967 76.9828Z" fill="white"/>
<path d="M107.611 81.7489C107.611 82.1413 107.575 82.5409 107.498 82.9478C107.426 83.3546 107.313 83.747 107.16 84.1248C107.008 84.5026 106.819 84.8586 106.586 85.1928C106.354 85.527 106.082 85.8177 105.765 86.0647C105.449 86.3154 105.093 86.5115 104.694 86.6568C104.294 86.8022 103.847 86.8748 103.357 86.8748C102.848 86.8748 102.416 86.8131 102.053 86.6932C101.689 86.5733 101.392 86.3953 101.159 86.1628C100.927 85.9303 100.756 85.6433 100.643 85.3054C100.531 84.9676 100.476 84.5825 100.476 84.1538C100.476 83.7615 100.512 83.3619 100.581 82.955C100.654 82.5481 100.767 82.1558 100.919 81.7816C101.072 81.4074 101.264 81.0514 101.493 80.7136C101.722 80.3794 101.995 80.0851 102.311 79.8381C102.627 79.591 102.983 79.3912 103.382 79.2459C103.782 79.1006 104.229 79.028 104.719 79.028C105.228 79.028 105.66 79.0897 106.023 79.2132C106.387 79.3367 106.685 79.5148 106.921 79.7473C107.157 79.9798 107.328 80.2667 107.44 80.6046C107.556 80.9461 107.611 81.3275 107.611 81.7489ZM106.23 81.8288C106.23 81.5637 106.201 81.3275 106.147 81.1132C106.092 80.9025 105.998 80.7245 105.871 80.5792C105.74 80.4339 105.573 80.3212 105.362 80.2413C105.151 80.1614 104.901 80.1214 104.603 80.1214C104.287 80.1214 103.996 80.1796 103.738 80.2922C103.48 80.4048 103.248 80.561 103.044 80.7535C102.841 80.9461 102.663 81.1713 102.514 81.4329C102.365 81.6908 102.238 81.9669 102.14 82.2612C102.042 82.5554 101.969 82.8569 101.922 83.1657C101.875 83.4745 101.849 83.7797 101.849 84.0739C101.849 84.3391 101.878 84.5752 101.936 84.7896C101.995 85.0003 102.089 85.1819 102.216 85.3272C102.347 85.4762 102.514 85.5888 102.721 85.6687C102.928 85.7486 103.179 85.7886 103.473 85.7886C103.796 85.7886 104.083 85.7305 104.341 85.6179C104.599 85.5052 104.828 85.349 105.032 85.1529C105.235 84.9567 105.413 84.7315 105.562 84.4699C105.715 84.212 105.838 83.9322 105.936 83.638C106.034 83.3401 106.107 83.0422 106.154 82.7334C106.205 82.4283 106.23 82.1267 106.23 81.8288Z" fill="white"/>
<path d="M115.687 80.9643C115.687 81.1495 115.676 81.3312 115.654 81.5128C115.632 81.6908 115.603 81.8761 115.567 82.0686L114.67 86.5261C114.659 86.5697 114.641 86.6024 114.619 86.6314C114.593 86.6605 114.557 86.6859 114.499 86.7077C114.444 86.7295 114.372 86.7441 114.288 86.755C114.205 86.7659 114.096 86.7695 113.961 86.7695C113.834 86.7695 113.729 86.7659 113.649 86.755C113.565 86.7441 113.504 86.7295 113.46 86.7077C113.416 86.6859 113.387 86.6605 113.373 86.6314C113.358 86.6024 113.355 86.566 113.362 86.5261L114.241 82.1159C114.277 81.9524 114.303 81.7925 114.317 81.64C114.332 81.4874 114.335 81.353 114.335 81.2367C114.335 80.9134 114.266 80.6555 114.128 80.4557C113.99 80.2559 113.761 80.1578 113.438 80.1578C113.158 80.1578 112.871 80.2377 112.577 80.4012C112.283 80.561 112.01 80.7863 111.76 81.066C111.509 81.3493 111.284 81.6836 111.084 82.0723C110.884 82.461 110.743 82.8824 110.652 83.3365L110.016 86.5261C110.005 86.5697 109.987 86.6024 109.962 86.6314C109.936 86.6605 109.896 86.6859 109.842 86.7077C109.787 86.7295 109.718 86.7441 109.631 86.755C109.544 86.7659 109.438 86.7695 109.311 86.7695C109.18 86.7695 109.072 86.7659 108.992 86.755C108.908 86.7441 108.846 86.7295 108.803 86.7077C108.759 86.6859 108.73 86.6605 108.716 86.6314C108.701 86.6024 108.701 86.566 108.712 86.5261L110.147 79.3804C110.15 79.344 110.165 79.3077 110.19 79.2786C110.216 79.2496 110.252 79.2205 110.303 79.1987C110.354 79.1769 110.416 79.1624 110.492 79.1551C110.568 79.1479 110.659 79.1442 110.764 79.1442C110.877 79.1442 110.968 79.1479 111.037 79.1551C111.11 79.1624 111.164 79.1769 111.204 79.1987C111.244 79.2205 111.269 79.2459 111.28 79.2786C111.291 79.3113 111.295 79.344 111.288 79.3804L111.019 80.7463C111.099 80.5683 111.226 80.3758 111.407 80.1759C111.585 79.9761 111.8 79.7909 112.05 79.6201C112.297 79.4494 112.574 79.3113 112.871 79.1987C113.169 79.0861 113.482 79.0316 113.805 79.0316C114.161 79.0316 114.455 79.0861 114.695 79.1951C114.935 79.3041 115.127 79.4458 115.273 79.6238C115.422 79.8018 115.527 80.0052 115.589 80.2377C115.651 80.4702 115.687 80.71 115.687 80.9643Z" fill="white"/>
<path d="M126.705 76.1327C126.705 76.1545 126.701 76.1872 126.698 76.2308C126.694 76.2744 126.687 76.3252 126.68 76.3797C126.672 76.4342 126.661 76.4923 126.643 76.5541C126.629 76.6158 126.611 76.6703 126.589 76.7248C126.567 76.7793 126.545 76.8193 126.516 76.852C126.487 76.8847 126.462 76.8992 126.429 76.8992C126.393 76.8992 126.345 76.8883 126.291 76.8665C126.236 76.8447 126.171 76.8229 126.095 76.7975C126.022 76.7721 125.935 76.7503 125.833 76.7321C125.731 76.7103 125.622 76.6994 125.499 76.6994C125.27 76.6994 125.078 76.7321 124.918 76.8011C124.758 76.8701 124.616 76.9755 124.5 77.1208C124.384 77.2661 124.286 77.4514 124.206 77.673C124.126 77.8946 124.057 78.1562 123.999 78.4577L123.864 79.1733H125.459C125.517 79.1733 125.564 79.1915 125.597 79.2315C125.63 79.2714 125.648 79.3368 125.648 79.4276C125.648 79.4858 125.644 79.5475 125.633 79.6093C125.622 79.671 125.608 79.7364 125.593 79.7945C125.579 79.8563 125.557 79.9144 125.535 79.9689C125.51 80.0234 125.484 80.0743 125.455 80.1142C125.426 80.1578 125.394 80.1905 125.357 80.216C125.321 80.2414 125.285 80.2559 125.245 80.2559H123.643L122.288 87.0129C122.197 87.4561 122.077 87.8412 121.924 88.1682C121.772 88.4951 121.583 88.7639 121.361 88.9783C121.14 89.1926 120.882 89.3525 120.591 89.4542C120.3 89.5559 119.973 89.6104 119.607 89.6104C119.37 89.6104 119.174 89.5922 119.025 89.5559C118.873 89.5196 118.782 89.4832 118.742 89.4542C118.72 89.4287 118.706 89.3997 118.695 89.367C118.684 89.3343 118.68 89.2943 118.68 89.2398C118.68 89.218 118.684 89.1817 118.691 89.1345C118.698 89.0836 118.709 89.0328 118.72 88.9746C118.731 88.9201 118.746 88.862 118.76 88.8003C118.775 88.7385 118.796 88.684 118.815 88.6295C118.836 88.575 118.858 88.5351 118.887 88.5024C118.913 88.4697 118.945 88.4552 118.982 88.4552C119.018 88.4552 119.054 88.4588 119.087 88.4661C119.12 88.4733 119.16 88.4806 119.2 88.4915C119.24 88.4987 119.287 88.506 119.341 88.5169C119.396 88.5242 119.468 88.5278 119.552 88.5278C119.774 88.5278 119.966 88.4951 120.126 88.4261C120.286 88.3571 120.424 88.2517 120.54 88.1064C120.653 87.9611 120.747 87.7758 120.827 87.5542C120.907 87.3326 120.972 87.0638 121.038 86.755L122.338 80.2668H121.325C121.27 80.2668 121.23 80.2486 121.201 80.216C121.172 80.1833 121.158 80.1179 121.158 80.0234C121.158 79.9798 121.161 79.929 121.165 79.8672C121.169 79.8054 121.18 79.7437 121.194 79.6819C121.209 79.6202 121.223 79.5584 121.245 79.5003C121.267 79.4422 121.292 79.3877 121.325 79.3404C121.358 79.2932 121.39 79.2533 121.423 79.2242C121.456 79.1951 121.499 79.1806 121.554 79.1806H122.553L122.753 78.1888C122.836 77.7565 122.96 77.3751 123.116 77.0518C123.276 76.7248 123.465 76.4596 123.69 76.2453C123.915 76.0346 124.173 75.8748 124.467 75.773C124.761 75.6713 125.085 75.6168 125.437 75.6168C125.553 75.6168 125.673 75.6241 125.8 75.635C125.928 75.6495 126.044 75.6677 126.153 75.6895C126.262 75.7149 126.356 75.7403 126.44 75.773C126.52 75.8057 126.578 75.8384 126.611 75.8675C126.643 75.8929 126.665 75.9292 126.683 75.9765C126.694 76.031 126.705 76.0818 126.705 76.1327Z" fill="white"/>
<path d="M132.732 81.7489C132.732 82.1413 132.695 82.5409 132.623 82.9478C132.55 83.3546 132.438 83.747 132.285 84.1248C132.136 84.5026 131.943 84.8586 131.711 85.1928C131.478 85.527 131.206 85.8177 130.89 86.0647C130.578 86.3154 130.218 86.5115 129.818 86.6568C129.419 86.8022 128.975 86.8748 128.481 86.8748C127.973 86.8748 127.541 86.8131 127.177 86.6932C126.814 86.5733 126.516 86.3953 126.284 86.1628C126.051 85.9303 125.88 85.6433 125.768 85.3054C125.655 84.9676 125.601 84.5825 125.601 84.1538C125.601 83.7615 125.637 83.3619 125.706 82.955C125.779 82.5481 125.891 82.1558 126.044 81.7816C126.196 81.4074 126.389 81.0514 126.618 80.7136C126.847 80.3794 127.119 80.0851 127.435 79.8381C127.751 79.591 128.107 79.3912 128.507 79.2459C128.906 79.1006 129.353 79.028 129.844 79.028C130.352 79.028 130.788 79.0897 131.148 79.2132C131.511 79.3367 131.809 79.5148 132.045 79.7473C132.281 79.9798 132.452 80.2667 132.565 80.6046C132.677 80.9461 132.732 81.3275 132.732 81.7489ZM131.351 81.8288C131.351 81.5637 131.322 81.3275 131.268 81.1132C131.213 80.9025 131.119 80.7245 130.988 80.5792C130.857 80.4339 130.69 80.3212 130.479 80.2413C130.272 80.1614 130.018 80.1214 129.724 80.1214C129.408 80.1214 129.117 80.1796 128.859 80.2922C128.601 80.4048 128.369 80.561 128.165 80.7535C127.962 80.9461 127.784 81.1713 127.635 81.4329C127.482 81.6908 127.359 81.9669 127.261 82.2612C127.163 82.5554 127.09 82.8569 127.043 83.1657C126.996 83.4745 126.97 83.7797 126.97 84.0739C126.97 84.3391 126.999 84.5752 127.057 84.7896C127.115 85.0003 127.21 85.1819 127.341 85.3272C127.471 85.4762 127.639 85.5888 127.846 85.6687C128.053 85.7486 128.303 85.7886 128.598 85.7886C128.921 85.7886 129.208 85.7305 129.466 85.6179C129.72 85.5052 129.953 85.349 130.156 85.1529C130.36 84.9567 130.538 84.7315 130.687 84.4699C130.835 84.212 130.963 83.9322 131.061 83.638C131.159 83.3401 131.231 83.0422 131.279 82.7334C131.33 82.4283 131.351 82.1267 131.351 81.8288Z" fill="white"/>
<path d="M139.3 79.3949C139.3 79.4167 139.296 79.4567 139.289 79.5184C139.282 79.5802 139.271 79.6492 139.26 79.7291C139.249 79.8091 139.235 79.889 139.213 79.9762C139.191 80.0597 139.166 80.1396 139.133 80.2087C139.1 80.2813 139.067 80.3395 139.035 80.3867C139.002 80.4339 138.962 80.4593 138.918 80.4593C138.875 80.4593 138.831 80.4484 138.78 80.4303C138.73 80.4121 138.675 80.3903 138.613 80.3613C138.552 80.3358 138.483 80.314 138.403 80.2959C138.323 80.2777 138.232 80.2668 138.127 80.2668C137.945 80.2668 137.738 80.3431 137.505 80.4993C137.269 80.6555 137.037 80.8698 136.811 81.1459C136.583 81.422 136.376 81.7453 136.19 82.1232C136.001 82.4973 135.863 82.9042 135.772 83.3438L135.148 86.5261C135.137 86.5697 135.119 86.6024 135.093 86.6315C135.068 86.6605 135.028 86.686 134.973 86.7078C134.919 86.7296 134.85 86.7441 134.763 86.755C134.675 86.7659 134.57 86.7695 134.443 86.7695C134.312 86.7695 134.203 86.7659 134.123 86.755C134.04 86.7441 133.978 86.7296 133.934 86.7078C133.891 86.686 133.862 86.6605 133.847 86.6315C133.833 86.6024 133.833 86.5661 133.843 86.5261L135.264 79.3804C135.268 79.3441 135.286 79.3077 135.311 79.2787C135.337 79.2496 135.377 79.2206 135.431 79.1988C135.485 79.177 135.547 79.1624 135.627 79.1552C135.703 79.1479 135.794 79.1443 135.9 79.1443C136.009 79.1443 136.103 79.1479 136.172 79.1552C136.245 79.1624 136.299 79.177 136.339 79.1988C136.379 79.2206 136.405 79.246 136.415 79.2787C136.426 79.3114 136.43 79.3441 136.423 79.3804L136.161 80.6809C136.281 80.463 136.426 80.2559 136.593 80.0561C136.761 79.8563 136.942 79.6783 137.138 79.5293C137.335 79.3804 137.538 79.2569 137.752 79.1697C137.967 79.0789 138.177 79.0353 138.384 79.0353C138.475 79.0353 138.566 79.0425 138.657 79.0534C138.748 79.068 138.835 79.0825 138.915 79.1007C138.995 79.1188 139.064 79.1406 139.126 79.1624C139.187 79.1879 139.231 79.2133 139.264 79.246C139.296 79.2787 139.3 79.3259 139.3 79.3949Z" fill="white"/>
<path d="M148.186 79.4675C148.186 79.5148 148.182 79.5656 148.179 79.6201C148.175 79.6746 148.164 79.7327 148.146 79.7909C148.131 79.849 148.109 79.9071 148.084 79.9652C148.059 80.0234 148.03 80.0742 148.001 80.1215C147.971 80.165 147.939 80.2014 147.902 80.2268C147.866 80.2522 147.822 80.2668 147.775 80.2668H145.952L145.149 84.2483C145.127 84.3609 145.109 84.4844 145.094 84.6225C145.08 84.7605 145.069 84.8732 145.069 84.964C145.069 85.2328 145.127 85.4326 145.24 85.5561C145.352 85.6796 145.537 85.7414 145.792 85.7414C145.933 85.7414 146.061 85.7305 146.166 85.7051C146.271 85.6796 146.362 85.6578 146.438 85.6288C146.515 85.6034 146.584 85.5779 146.642 85.5525C146.7 85.5271 146.751 85.5162 146.794 85.5162C146.838 85.5162 146.871 85.5307 146.893 85.5598C146.918 85.5888 146.929 85.6433 146.929 85.7232C146.929 85.7923 146.922 85.8685 146.911 85.9485C146.896 86.032 146.882 86.1119 146.86 86.1919C146.838 86.2718 146.813 86.3444 146.78 86.4062C146.747 86.468 146.714 86.5188 146.678 86.5551C146.635 86.5915 146.573 86.6278 146.489 86.6678C146.406 86.7041 146.308 86.7368 146.195 86.7658C146.086 86.7949 145.966 86.8167 145.843 86.8349C145.719 86.8494 145.596 86.8603 145.472 86.8603C145.174 86.8603 144.92 86.8276 144.702 86.7658C144.484 86.7041 144.302 86.6024 144.153 86.468C144.004 86.3335 143.895 86.1628 143.823 85.9594C143.75 85.7559 143.717 85.5125 143.717 85.2255C143.717 85.1638 143.721 85.0911 143.725 85.0148C143.728 84.9385 143.739 84.8586 143.754 84.7714C143.768 84.6879 143.779 84.6007 143.794 84.5171C143.808 84.4336 143.823 84.3537 143.837 84.2774L144.637 80.2631H143.645C143.587 80.2631 143.543 80.245 143.51 80.2123C143.478 80.1796 143.463 80.1106 143.463 80.0088C143.463 79.9362 143.47 79.849 143.489 79.7509C143.503 79.6528 143.529 79.562 143.561 79.4784C143.594 79.3949 143.634 79.3222 143.685 79.2641C143.736 79.206 143.794 79.1769 143.863 79.1769H144.862L145.203 77.4804C145.207 77.4441 145.225 77.4077 145.254 77.3787C145.283 77.346 145.323 77.3206 145.378 77.2951C145.432 77.2697 145.501 77.2552 145.588 77.2443C145.676 77.2334 145.785 77.2297 145.908 77.2297C146.035 77.2297 146.141 77.2334 146.22 77.2443C146.3 77.2552 146.366 77.2733 146.409 77.2951C146.453 77.3206 146.482 77.346 146.497 77.3787C146.511 77.4114 146.515 77.4441 146.507 77.4804L146.166 79.1769H147.99C148.07 79.1769 148.12 79.206 148.149 79.2641C148.171 79.3259 148.186 79.3913 148.186 79.4675Z" fill="white"/>
<path d="M154.485 86.5261C154.474 86.5697 154.456 86.6024 154.431 86.6315C154.405 86.6605 154.362 86.686 154.307 86.7077C154.253 86.7295 154.18 86.7441 154.096 86.755C154.013 86.7659 153.904 86.7695 153.769 86.7695C153.642 86.7695 153.537 86.7659 153.457 86.755C153.377 86.7441 153.312 86.7295 153.268 86.7077C153.224 86.686 153.195 86.6605 153.181 86.6315C153.166 86.6024 153.163 86.5661 153.17 86.5261L154.049 82.1159C154.075 81.9778 154.096 81.8253 154.115 81.6509C154.133 81.4801 154.144 81.3312 154.144 81.2041C154.144 81.0515 154.129 80.9098 154.096 80.7826C154.064 80.6555 154.013 80.5465 153.94 80.4521C153.867 80.3612 153.777 80.285 153.664 80.2341C153.551 80.1796 153.41 80.1542 153.246 80.1542C152.967 80.1542 152.68 80.2377 152.385 80.4012C152.091 80.5647 151.819 80.7899 151.568 81.0805C151.317 81.3675 151.092 81.709 150.892 82.1014C150.692 82.4937 150.551 82.9115 150.46 83.3619L149.824 86.5261C149.813 86.5697 149.795 86.6024 149.77 86.6315C149.744 86.6605 149.704 86.686 149.65 86.7077C149.595 86.7295 149.526 86.7441 149.439 86.755C149.352 86.7659 149.247 86.7695 149.119 86.7695C148.989 86.7695 148.88 86.7659 148.8 86.755C148.716 86.7441 148.654 86.7295 148.611 86.7077C148.567 86.686 148.538 86.6605 148.524 86.6315C148.509 86.6024 148.509 86.5661 148.52 86.5261L150.631 75.9292C150.642 75.8856 150.66 75.8493 150.681 75.8166C150.707 75.7839 150.743 75.7585 150.801 75.7367C150.856 75.7149 150.929 75.7004 151.016 75.6895C151.103 75.6786 151.212 75.6749 151.346 75.6749C151.473 75.6749 151.579 75.6786 151.659 75.6895C151.739 75.7004 151.804 75.7149 151.848 75.7367C151.891 75.7585 151.92 75.7839 151.931 75.8166C151.942 75.8493 151.946 75.8856 151.938 75.9292L151.303 79.1588C151.277 79.2968 151.245 79.4385 151.208 79.5802C151.172 79.7219 151.132 79.8635 151.092 80.0052C151.052 80.1469 151.012 80.2777 150.972 80.4048C150.932 80.532 150.896 80.6446 150.867 80.7391C150.95 80.5538 151.085 80.3612 151.263 80.1651C151.444 79.9653 151.655 79.7836 151.898 79.6165C152.142 79.4494 152.411 79.3114 152.705 79.1987C152.999 79.0861 153.301 79.0316 153.613 79.0316C153.951 79.0316 154.242 79.0789 154.478 79.1769C154.718 79.275 154.91 79.4094 155.063 79.5802C155.212 79.7509 155.324 79.958 155.393 80.1941C155.462 80.4339 155.495 80.6882 155.495 80.9643C155.495 81.1532 155.484 81.3385 155.462 81.5201C155.44 81.7017 155.411 81.8834 155.375 82.0687L154.485 86.5261Z" fill="white"/>
<path d="M163.694 80.848C163.694 81.2112 163.611 81.5418 163.44 81.8324C163.269 82.1231 163.008 82.3701 162.648 82.5772C162.288 82.7842 161.827 82.9405 161.268 83.0531C160.708 83.1657 160.036 83.2202 159.251 83.2202H158.412C158.376 83.3946 158.35 83.5653 158.336 83.7288C158.321 83.8922 158.318 84.0448 158.318 84.1901C158.318 84.7205 158.449 85.1238 158.71 85.4035C158.972 85.6832 159.397 85.8249 159.982 85.8249C160.319 85.8249 160.625 85.7995 160.893 85.7486C161.162 85.6978 161.398 85.6433 161.595 85.5851C161.794 85.527 161.954 85.4725 162.081 85.4217C162.208 85.3708 162.296 85.3454 162.343 85.3454C162.39 85.3454 162.426 85.3635 162.452 85.3962C162.477 85.4326 162.488 85.4798 162.488 85.5415C162.488 85.596 162.485 85.6578 162.474 85.7341C162.463 85.8067 162.448 85.883 162.426 85.9593C162.405 86.0356 162.379 86.1083 162.343 86.1773C162.307 86.2463 162.27 86.3044 162.227 86.3517C162.165 86.417 162.052 86.4788 161.889 86.5369C161.729 86.5987 161.536 86.6532 161.315 86.704C161.093 86.7549 160.85 86.7949 160.585 86.8276C160.319 86.8602 160.054 86.8748 159.793 86.8748C159.32 86.8748 158.91 86.8203 158.554 86.7149C158.198 86.6096 157.904 86.4461 157.671 86.2281C157.435 86.0102 157.261 85.7341 157.144 85.4071C157.028 85.0802 156.97 84.6915 156.97 84.2483C156.97 83.9031 157.003 83.5362 157.068 83.1403C157.133 82.7479 157.239 82.3556 157.38 81.9705C157.522 81.5854 157.707 81.2149 157.936 80.8589C158.165 80.5028 158.434 80.1904 158.75 79.9216C159.066 79.6528 159.429 79.4348 159.84 79.2713C160.254 79.1078 160.719 79.0243 161.235 79.0243C161.678 79.0243 162.056 79.0788 162.365 79.1914C162.673 79.304 162.928 79.4457 163.128 79.6201C163.327 79.7944 163.469 79.9906 163.56 80.2013C163.647 80.4229 163.694 80.6336 163.694 80.848ZM162.354 80.9642C162.354 80.6954 162.248 80.4774 162.038 80.3103C161.827 80.1432 161.526 80.0596 161.133 80.0596C160.788 80.0596 160.487 80.1178 160.221 80.2376C159.956 80.3575 159.724 80.5174 159.52 80.7172C159.317 80.917 159.142 81.1531 158.997 81.4183C158.852 81.6871 158.736 81.9669 158.645 82.2611H159.455C160.011 82.2611 160.476 82.2284 160.846 82.1594C161.22 82.0904 161.518 81.9959 161.743 81.876C161.969 81.7562 162.129 81.6181 162.219 81.4583C162.31 81.2984 162.354 81.1386 162.354 80.9642Z" fill="white"/>
<path d="M176.126 78.4576C176.126 78.7809 176.082 79.0861 175.995 79.3731C175.908 79.6601 175.784 79.9289 175.621 80.1687C175.461 80.4121 175.265 80.6264 175.032 80.8117C174.803 80.9969 174.542 81.1495 174.251 81.273C174.473 81.3166 174.68 81.3929 174.872 81.5019C175.065 81.6109 175.232 81.7526 175.366 81.9197C175.504 82.0868 175.61 82.2829 175.686 82.5118C175.762 82.7407 175.802 82.9913 175.802 83.2638C175.802 83.5435 175.766 83.8269 175.69 84.1066C175.617 84.39 175.504 84.6588 175.352 84.9167C175.203 85.1747 175.014 85.4108 174.789 85.6324C174.564 85.8504 174.302 86.0429 174.001 86.2064C173.699 86.3699 173.361 86.497 172.991 86.5878C172.616 86.6786 172.184 86.7222 171.694 86.7222H168.973C168.798 86.7222 168.668 86.6786 168.58 86.5915C168.493 86.5043 168.475 86.3626 168.522 86.1664L170.346 77.0118C170.382 76.8047 170.466 76.663 170.6 76.5794C170.731 76.4995 170.869 76.4559 171.014 76.4559H173.219C173.743 76.4559 174.182 76.4995 174.538 76.5867C174.894 76.6739 175.188 76.801 175.421 76.9718C175.657 77.1389 175.831 77.3496 175.948 77.5966C176.068 77.8509 176.126 78.1379 176.126 78.4576ZM174.364 83.3619C174.364 82.9223 174.208 82.5845 173.895 82.3411C173.583 82.1013 173.103 81.9814 172.453 81.9814H170.698L169.983 85.5997H171.893C172.326 85.5997 172.693 85.5379 172.991 85.4144C173.288 85.2909 173.539 85.1274 173.739 84.924C173.939 84.7206 174.095 84.4844 174.2 84.2156C174.309 83.9395 174.364 83.6561 174.364 83.3619ZM174.673 78.7046C174.673 78.5303 174.644 78.3741 174.585 78.236C174.527 78.098 174.433 77.9817 174.306 77.8836C174.175 77.7855 174.011 77.7092 173.815 77.6548C173.615 77.6003 173.357 77.5712 173.034 77.5712H171.592L170.934 80.8952H172.482C172.9 80.8952 173.245 80.8262 173.514 80.6881C173.783 80.5501 174.004 80.3757 174.175 80.1614C174.346 79.9471 174.473 79.7109 174.556 79.453C174.633 79.1914 174.673 78.9444 174.673 78.7046Z" fill="white"/>
<path d="M178.447 86.5261C178.436 86.5697 178.418 86.6024 178.393 86.6315C178.367 86.6605 178.327 86.686 178.273 86.7077C178.218 86.7295 178.149 86.7441 178.062 86.755C177.975 86.7659 177.87 86.7695 177.742 86.7695C177.612 86.7695 177.503 86.7659 177.423 86.755C177.339 86.7441 177.277 86.7295 177.234 86.7077C177.19 86.686 177.161 86.6605 177.147 86.6315C177.132 86.6024 177.132 86.5661 177.143 86.5261L179.254 75.9292C179.265 75.8856 179.283 75.8493 179.305 75.8166C179.33 75.7839 179.366 75.7585 179.424 75.7367C179.479 75.7149 179.552 75.7004 179.639 75.6895C179.726 75.6786 179.835 75.6749 179.969 75.6749C180.096 75.6749 180.202 75.6786 180.282 75.6895C180.362 75.7004 180.427 75.7149 180.471 75.7367C180.514 75.7585 180.543 75.7839 180.554 75.8166C180.565 75.8493 180.569 75.8856 180.561 75.9292L178.447 86.5261Z" fill="white"/>
<path d="M182.178 86.5261C182.167 86.5697 182.149 86.6024 182.124 86.6315C182.098 86.6606 182.058 86.686 182.004 86.7078C181.949 86.7296 181.88 86.7441 181.793 86.755C181.706 86.7659 181.601 86.7695 181.473 86.7695C181.343 86.7695 181.234 86.7659 181.154 86.755C181.07 86.7441 181.008 86.7296 180.965 86.7078C180.921 86.686 180.892 86.6606 180.878 86.6315C180.863 86.6024 180.863 86.5661 180.874 86.5261L182.294 79.3877C182.298 79.3514 182.316 79.315 182.342 79.286C182.367 79.2569 182.407 79.2278 182.462 79.206C182.516 79.1843 182.585 79.1697 182.672 79.1588C182.759 79.1479 182.868 79.1443 183.003 79.1443C183.13 79.1443 183.235 79.1479 183.315 79.1588C183.399 79.1697 183.461 79.1843 183.508 79.206C183.551 79.2278 183.58 79.2533 183.595 79.286C183.609 79.3187 183.613 79.3514 183.606 79.3877L182.178 86.5261ZM184.231 76.9828C184.205 77.1317 184.169 77.2552 184.125 77.357C184.082 77.4587 184.02 77.5386 183.947 77.6004C183.875 77.6621 183.78 77.7057 183.671 77.7311C183.559 77.7566 183.424 77.7711 183.268 77.7711C183.115 77.7711 182.988 77.7566 182.887 77.7311C182.785 77.7057 182.712 77.6621 182.665 77.6004C182.618 77.5386 182.592 77.4587 182.585 77.357C182.578 77.2552 182.589 77.1317 182.618 76.9828C182.65 76.8338 182.69 76.7103 182.738 76.6122C182.785 76.5141 182.843 76.4342 182.916 76.3652C182.988 76.2998 183.079 76.2526 183.188 76.2308C183.297 76.2054 183.435 76.1945 183.591 76.1945C183.744 76.1945 183.871 76.2054 183.969 76.2308C184.067 76.2562 184.14 76.2998 184.191 76.3652C184.242 76.4306 184.267 76.5141 184.274 76.6122C184.274 76.7139 184.263 76.8338 184.231 76.9828Z" fill="white"/>
<path d="M191.569 80.9643C191.569 81.1495 191.558 81.3312 191.536 81.5128C191.514 81.6908 191.485 81.8761 191.449 82.0686L190.552 86.5261C190.541 86.5697 190.522 86.6024 190.501 86.6314C190.475 86.6605 190.435 86.6859 190.381 86.7077C190.326 86.7295 190.254 86.7441 190.17 86.755C190.086 86.7659 189.978 86.7695 189.843 86.7695C189.716 86.7695 189.611 86.7659 189.531 86.755C189.451 86.7441 189.385 86.7295 189.342 86.7077C189.298 86.6859 189.269 86.6605 189.255 86.6314C189.24 86.6024 189.236 86.566 189.244 86.5261L190.123 82.1159C190.159 81.9524 190.185 81.7925 190.199 81.64C190.214 81.4874 190.217 81.353 190.217 81.2367C190.217 80.9134 190.148 80.6555 190.01 80.4557C189.872 80.2559 189.643 80.1578 189.32 80.1578C189.04 80.1578 188.753 80.2377 188.459 80.4012C188.165 80.561 187.892 80.7863 187.642 81.066C187.391 81.3493 187.166 81.6836 186.966 82.0723C186.766 82.461 186.624 82.8824 186.534 83.3365L185.898 86.5261C185.887 86.5697 185.869 86.6024 185.843 86.6314C185.818 86.6605 185.778 86.6859 185.724 86.7077C185.669 86.7295 185.6 86.7441 185.513 86.755C185.426 86.7659 185.32 86.7695 185.193 86.7695C185.062 86.7695 184.953 86.7659 184.873 86.755C184.79 86.7441 184.728 86.7295 184.685 86.7077C184.641 86.6859 184.612 86.6605 184.597 86.6314C184.583 86.6024 184.583 86.566 184.594 86.5261L186.029 79.3804C186.032 79.344 186.047 79.3077 186.072 79.2786C186.098 79.2496 186.134 79.2205 186.185 79.1987C186.236 79.1769 186.297 79.1624 186.374 79.1551C186.45 79.1479 186.541 79.1442 186.646 79.1442C186.755 79.1442 186.85 79.1479 186.919 79.1551C186.991 79.1624 187.046 79.1769 187.086 79.1987C187.126 79.2205 187.151 79.2459 187.162 79.2786C187.173 79.3113 187.177 79.344 187.169 79.3804L186.901 80.7463C186.98 80.5683 187.108 80.3758 187.289 80.1759C187.467 79.9761 187.682 79.7909 187.932 79.6201C188.179 79.4494 188.455 79.3113 188.753 79.1987C189.051 79.0861 189.364 79.0316 189.687 79.0316C190.043 79.0316 190.337 79.0861 190.577 79.1951C190.813 79.3041 191.009 79.4458 191.155 79.6238C191.303 79.8018 191.409 80.0052 191.471 80.2377C191.532 80.4702 191.569 80.71 191.569 80.9643Z" fill="white"/>
<path d="M198.882 86.526C198.867 86.6168 198.809 86.6786 198.715 86.7149C198.62 86.7512 198.46 86.7694 198.239 86.7694C198.126 86.7694 198.039 86.7657 197.97 86.7548C197.901 86.7439 197.846 86.7294 197.803 86.7113C197.759 86.6931 197.734 86.6677 197.719 86.6386C197.705 86.6095 197.705 86.5732 197.716 86.5223L197.97 85.1891C197.901 85.3635 197.777 85.5488 197.596 85.7486C197.414 85.9484 197.203 86.13 196.956 86.2971C196.709 86.4642 196.437 86.6023 196.135 86.7113C195.834 86.8202 195.525 86.8747 195.216 86.8747C194.904 86.8747 194.635 86.8348 194.402 86.7512C194.174 86.6677 193.981 86.5587 193.825 86.4206C193.669 86.2826 193.541 86.1227 193.443 85.9411C193.345 85.7595 193.269 85.5706 193.214 85.378C193.16 85.1855 193.124 84.9893 193.105 84.7931C193.087 84.597 193.076 84.419 193.076 84.2555C193.076 83.9503 193.105 83.6052 193.164 83.2238C193.222 82.8423 193.313 82.4609 193.44 82.0758C193.567 81.6907 193.73 81.3165 193.927 80.9496C194.126 80.5827 194.362 80.2558 194.646 79.9724C194.926 79.689 195.249 79.4602 195.616 79.2858C195.983 79.1114 196.4 79.0242 196.865 79.0242C197.094 79.0242 197.309 79.0497 197.508 79.1005C197.708 79.1514 197.894 79.2204 198.057 79.3076C198.22 79.3948 198.373 79.5001 198.507 79.62C198.646 79.7399 198.769 79.8671 198.882 80.0015L199.692 75.9545C199.695 75.9182 199.714 75.8819 199.739 75.8492C199.764 75.8165 199.804 75.7874 199.859 75.7693C199.913 75.7511 199.979 75.7366 200.066 75.722C200.149 75.7075 200.258 75.7039 200.393 75.7039C200.52 75.7039 200.625 75.7111 200.705 75.722C200.785 75.7366 200.851 75.7511 200.898 75.7693C200.945 75.7874 200.974 75.8128 200.989 75.8492C201.003 75.8819 201.003 75.9182 200.992 75.9545L198.882 86.526ZM198.627 81.2766C198.38 80.9133 198.111 80.6336 197.821 80.4447C197.534 80.2558 197.211 80.1577 196.851 80.1577C196.571 80.1577 196.317 80.2231 196.092 80.3538C195.866 80.4846 195.663 80.6554 195.485 80.8733C195.303 81.0913 195.151 81.3383 195.02 81.6181C194.889 81.8978 194.784 82.1884 194.7 82.4863C194.617 82.7842 194.551 83.0821 194.511 83.3691C194.468 83.6597 194.45 83.9285 194.45 84.1719C194.45 84.6841 194.537 85.0765 194.711 85.349C194.886 85.6214 195.165 85.7558 195.55 85.7558C195.841 85.7558 196.132 85.6759 196.426 85.5161C196.72 85.3562 196.993 85.1382 197.247 84.8585C197.501 84.5788 197.726 84.2446 197.923 83.8595C198.119 83.4744 198.264 83.0494 198.359 82.5917L198.627 81.2766Z" fill="white"/>
<path d="M39.8011 25.8728L38.6858 32.8733H33.905L39.0818 2.4231H45.3992L50.4997 32.8733H45.6717L44.5964 25.8728H39.8011ZM42.2132 9.39808L40.5131 21.4045H43.917L42.2132 9.39808Z" fill="white"/>
<path d="M60.9258 33.2111C58.8987 33.2111 57.184 32.5063 55.7744 31.0968C54.3649 29.6873 53.6602 27.9799 53.6602 25.9709V2.4231H58.1539V25.9237C58.1539 26.6539 58.4119 27.2715 58.9314 27.7837C59.4508 28.2959 60.0721 28.5502 60.8022 28.5502C61.5324 28.5502 62.15 28.2959 62.6622 27.7837C63.1708 27.2751 63.4288 26.6539 63.4288 25.9237V2.4231H68.2168V25.9709C68.2168 28.0126 67.5048 29.7309 66.0771 31.1222C64.653 32.5172 62.9347 33.2111 60.9258 33.2111Z" fill="white"/>
<path d="M87.1982 25.2916C87.2309 27.4132 86.6787 29.2296 85.5453 30.7372C84.8006 31.758 83.7471 32.4773 82.3848 32.8987C81.6546 33.1239 80.8045 33.2402 79.8345 33.2402C78.0363 33.2402 76.5432 32.7933 75.3626 31.9033C74.3744 31.1731 73.5934 30.1814 73.0158 28.9244C72.4418 27.6711 72.1039 26.2325 72.0059 24.6123L76.3798 24.2962C76.5759 26.0727 77.0446 27.3587 77.7893 28.1543C78.3378 28.7573 78.9699 29.0407 79.6856 29.008C80.6883 28.9753 81.4911 28.4812 82.0905 27.5258C82.3993 27.0571 82.5519 26.3851 82.5519 25.5059C82.5519 24.2417 81.9779 22.9848 80.8263 21.7351C79.9181 20.8741 78.5594 19.5881 76.743 17.8662C75.2209 16.3912 74.1419 15.0689 73.5098 13.8991C72.8305 12.5841 72.489 11.16 72.489 9.61969C72.489 6.84786 73.419 4.74447 75.2826 3.32041C76.4342 2.45943 77.8583 2.03076 79.5585 2.03076C81.1968 2.03076 82.5955 2.39404 83.7616 3.12424C84.6698 3.69095 85.4036 4.48654 85.9595 5.50372C86.5189 6.52454 86.8531 7.69794 86.9694 9.02754L82.57 9.83039C82.4393 8.58434 82.0833 7.61075 81.502 6.91325C81.0806 6.41192 80.4739 6.16126 79.6783 6.16126C78.8355 6.16126 78.1962 6.53181 77.7566 7.28016C77.4006 7.87958 77.2226 8.6243 77.2226 9.51434C77.2226 10.9093 77.822 12.3261 79.0208 13.7684C79.4749 14.3205 80.1542 14.9672 81.0624 15.7119C82.1305 16.6019 82.8352 17.2268 83.1767 17.5828C84.3102 18.7162 85.1857 19.8351 85.7996 20.9359C86.0902 21.4554 86.3264 21.9313 86.5044 22.3708C86.9548 23.4607 87.1801 24.4306 87.1982 25.2916Z" fill="white"/>
<path d="M95.2411 7.04039H90.355V2.4231H104.694V7.04039H99.833V32.8733H95.2411V7.04039Z" fill="white"/>
<path d="M112.98 32.8733H108.388V2.4231H112.98V32.8733Z" fill="white"/>
<path d="M122.244 2.39771L128.34 22.8795V2.39771H132.932V32.8733H127.998L121.681 13.3579V32.8733H117.085V2.39771H122.244Z" fill="white"/>
<path d="M46.42 69.441H33.905V38.9908H38.4969V64.8709H46.42V69.441Z" fill="white"/>
<path d="M54.1688 69.441H49.5769V38.9908H54.1688V69.441Z" fill="white"/>
<path d="M65.5213 69.8298C63.4942 69.8298 61.7759 69.1178 60.3591 67.6901C58.9423 66.266 58.2339 64.555 58.2339 62.5642V45.9405C58.2339 43.917 58.9459 42.1951 60.3736 40.7783C61.7977 39.3615 63.516 38.6531 65.5249 38.6531C67.5484 38.6531 69.2667 39.3651 70.6762 40.7928C72.0858 42.2205 72.7905 43.9352 72.7905 45.9441V49.4207H68.0279V45.8497C68.0279 45.1195 67.77 44.4983 67.2505 43.9788C66.731 43.4593 66.1098 43.2013 65.3796 43.2013C64.6494 43.2013 64.0318 43.4593 63.5196 43.9788C63.011 44.4983 62.7531 45.1195 62.7531 45.8497V62.5206C62.7531 63.2508 63.0074 63.8684 63.5196 64.3806C64.0318 64.8892 64.6494 65.1471 65.3796 65.1471C66.1098 65.1471 66.731 64.8928 67.2505 64.3842C67.77 63.8756 68.0279 63.2581 68.0279 62.5279V56.541H65.4777V51.9237H72.7942V62.5678C72.7942 64.5913 72.0821 66.3096 70.6544 67.7191C69.2231 69.125 67.5121 69.8298 65.5213 69.8298Z" fill="white"/>
<path d="M81.3638 56.5373V69.441H76.772V38.9908H81.3638V51.92H86.9039V38.9908H91.4957V69.441H86.9039V56.5373H81.3638Z" fill="white"/>
<path d="M100.077 43.6081H95.1904V38.9908H109.529V43.6081H104.668V69.441H100.077V43.6081Z" fill="white"/>
<path d="M117.815 56.5373V69.441H113.224V38.9908H117.815V51.92H123.356V38.9908H127.947V69.441H123.356V56.5373H117.815Z" fill="white"/>
<path d="M139.274 38.6022C141.298 38.6022 143.02 39.3142 144.437 40.7419C145.853 42.166 146.562 43.8843 146.562 45.8932V62.5169C146.562 64.5404 145.85 66.2623 144.422 67.6791C142.998 69.0959 141.28 69.8043 139.271 69.8043C137.244 69.8043 135.529 69.0923 134.119 67.6646C132.71 66.2405 132.005 64.5222 132.005 62.5133V45.8896C132.005 43.8661 132.717 42.1442 134.145 40.7274C135.573 39.3106 137.284 38.6022 139.274 38.6022ZM141.777 45.7951C141.777 45.0649 141.523 44.4474 141.011 43.9351C140.499 43.4265 139.881 43.1686 139.151 43.1686C138.421 43.1686 137.799 43.4229 137.28 43.9351C136.76 44.4474 136.503 45.0649 136.503 45.7951V62.4661C136.503 63.1962 136.76 63.8138 137.28 64.3261C137.799 64.8383 138.421 65.0926 139.151 65.0926C139.881 65.0926 140.499 64.8383 141.011 64.3261C141.519 63.8138 141.777 63.1962 141.777 62.4661V45.7951Z" fill="white"/>
<path d="M157.842 69.7789C155.815 69.7789 154.1 69.0741 152.69 67.6646C151.281 66.255 150.576 64.5476 150.576 62.5387V38.9908H155.07V62.4915C155.07 63.2216 155.328 63.8392 155.847 64.3514C156.367 64.8637 156.988 65.118 157.718 65.118C158.448 65.118 159.066 64.8637 159.578 64.3514C160.087 63.8429 160.345 63.2216 160.345 62.4915V38.9908H165.133V62.5387C165.133 64.5803 164.421 66.2986 162.993 67.69C161.569 69.085 159.851 69.7789 157.842 69.7789Z" fill="white"/>
<path d="M184.111 61.8595C184.143 63.981 183.591 65.7974 182.458 67.305C181.713 68.3259 180.659 69.0452 179.297 69.4666C178.567 69.6918 177.717 69.8081 176.747 69.8081C174.949 69.8081 173.456 69.3612 172.275 68.4712C171.287 67.741 170.506 66.7492 169.928 65.4923C169.354 64.239 169.016 62.8004 168.918 61.1801L173.292 60.8641C173.488 62.6405 173.957 63.9265 174.702 64.7221C175.25 65.3252 175.882 65.6085 176.598 65.5758C177.601 65.5431 178.403 65.0491 179.003 64.0936C179.312 63.625 179.464 62.9529 179.464 62.0738C179.464 60.8096 178.89 59.5526 177.739 58.303C176.83 57.442 175.472 56.156 173.655 54.434C172.133 52.9591 171.054 51.6368 170.422 50.467C169.743 49.1519 169.401 47.7279 169.401 46.1876C169.401 43.4157 170.331 41.3123 172.195 39.8883C173.347 39.0273 174.771 38.5986 176.471 38.5986C178.109 38.5986 179.508 38.9619 180.674 39.6921C181.582 40.2588 182.316 41.0544 182.872 42.0716C183.431 43.0924 183.765 44.2658 183.882 45.5954L179.482 46.3983C179.352 45.1522 178.996 44.1786 178.414 43.4811C177.993 42.9798 177.386 42.7291 176.591 42.7291C175.748 42.7291 175.109 43.0997 174.669 43.848C174.313 44.4474 174.135 45.1922 174.135 46.0822C174.135 47.4772 174.734 48.894 175.933 50.3362C176.387 50.8884 177.067 51.535 177.975 52.2798C179.043 53.1698 179.748 53.7946 180.089 54.1507C181.223 55.2841 182.098 56.403 182.712 57.5037C183.003 58.0232 183.239 58.4991 183.417 58.9387C183.867 60.0285 184.096 60.9985 184.111 61.8595Z" fill="white"/>
<path d="M187.925 69.4412V38.9656H201V43.5829H192.517V51.8947H198.714V56.512H192.517V64.8239H201V69.4412H187.925Z" fill="white"/>
<path d="M7.14941 43.6336H21.6116L21.1066 32.9095H7.65437L7.14941 43.6336Z" fill="white"/>
<path d="M14.3823 23.6859H8.08666L7.75244 30.7699H21.0049L20.6743 23.6859H14.3823Z" fill="white"/>
<path d="M20.6743 22.1347L22.8831 19.7734H22.8395V16.3912H5.91789V19.7734H5.87793L8.08667 22.1347H20.6743Z" fill="white"/>
<path d="M9.94665 15.7882H11.7703V11.2908H16.9907V15.7882H18.8143V10.7531H20.2529V10.121L14.7347 4.0869L14.3787 0L14.0263 4.0869L8.50806 10.121V10.7531H9.94665V15.7882Z" fill="white"/>
<path d="M24.9138 68.6527L21.6115 45.7733H7.14936L3.84714 68.6491H0V70.7161H28.7609V68.6491H24.9138V68.6527ZM11.7194 58.4518C11.7194 57.2312 12.911 56.2431 14.3823 56.2431C15.8499 56.2431 17.0451 57.2312 17.0451 58.4518V68.6527H11.7194V58.4518Z" fill="white"/>
</svg>
