<svg width="489" height="472" viewBox="0 0 489 472" fill="none" xmlns="http://www.w3.org/2000/svg">
<path d="M344.053 224.751C344.24 228.383 345.025 232.039 345.15 235.696C345.474 245.048 345.786 254.389 346.11 263.741C346.259 267.982 351.656 370.004 351.793 374.245L381.396 377.615C381.396 377.615 370.49 265.532 373.456 256.665C376.971 246.168 386.107 234.178 386.145 222.152C386.22 201.444 379.688 199.143 366.215 201.966C358.05 203.67 353.514 193.658 348.79 200.238C347.169 202.501 343.193 204.217 343.181 207.078C343.181 207.588 344.028 224.229 344.053 224.751Z" fill="#E88566"/>
<path d="M359.77 212.451C348.229 215.025 345.549 229.713 346.122 232.686C348.702 246.068 363.884 240.82 372.484 238.73C381.084 236.641 385.547 212.264 377.632 208.085C374.952 206.68 368.408 210.523 359.77 212.451Z" fill="#E87551"/>
<path d="M328.859 173.883C341.249 163.747 354.897 174.866 357.502 180.96C361.254 175.5 376.809 167.267 386.967 179.642C396.091 190.748 388.451 202.389 384.774 205.523L352.404 232.251L325.918 199.703C322.926 195.897 317.729 182.987 328.859 173.883Z" fill="#351C75"/>
<path d="M371.325 207.19C371.325 207.19 371.275 207.476 371.2 208.023C371.138 208.57 371.076 209.366 371.175 210.411C371.287 212.525 372.347 215.56 374.441 220.149C377.943 227.81 378.454 235.422 375.226 243.232C373.518 247.362 372.197 252.237 369.979 255.968C367.149 260.719 361.129 258.493 358.96 254.388C356.754 250.235 353.015 246.876 354.186 242.287C355.757 236.23 362.475 232.723 364.083 226.654C365.242 222.313 363.709 217.052 363.609 216.692C362.924 213.993 363.285 210.759 364.956 208.981C366.601 207.14 369.006 206.717 371.325 207.19Z" fill="#E88566"/>
<path d="M380.761 313.402L346.496 315.032L343.904 273.989L376.174 272.671L380.761 313.402Z" fill="white"/>
<path d="M395.518 437.512C402.012 341.125 379.801 280.37 379.801 280.37L360.556 280.195L340.426 280.009C340.426 280.009 343.418 397.962 327.264 437.835C324.148 445.534 360.519 436.131 360.519 436.131C360.519 436.131 394.932 446.23 395.518 437.512Z" fill="#2D295C"/>
<path d="M281.62 302.818C283.614 301.948 285.571 301.214 287.241 300.555C287.952 300.281 288.675 300.008 289.385 299.746C289.286 291.948 289.061 284.524 288.849 277.422C288.413 262.784 288.002 248.966 288.662 235.012C288.762 232.86 287.104 231.044 284.948 230.945C282.767 230.82 280.972 232.499 280.872 234.651C280.199 248.904 280.623 262.871 281.059 277.646C281.296 285.618 281.545 293.963 281.62 302.818Z" fill="#FFDDD4"/>
<path d="M287.902 295.68C290.494 295.816 293.074 296.003 295.655 296.227C298.409 266.602 298.783 239.29 297.686 229.179C297.449 227.039 295.542 225.497 293.386 225.721C291.242 225.957 289.697 227.873 289.921 230.012C291.005 239.887 290.619 266.639 287.902 295.68Z" fill="#FFDDD4"/>
<path d="M294.358 294.598C296.926 294.996 299.494 295.456 302.036 295.978C306.062 272.522 309.315 251.006 308.605 236.094C308.505 233.942 306.673 232.288 304.517 232.387C302.36 232.487 300.703 234.315 300.802 236.467C301.5 250.595 298.31 271.601 294.358 294.598Z" fill="#FFDDD4"/>
<path d="M303.682 295.58C305.9 296.152 308.094 296.762 310.275 297.446C314.538 281.763 315.672 268.306 316.944 253.02L317.168 250.272C317.33 248.394 315.934 246.752 314.052 246.59C312.17 246.429 310.525 247.822 310.362 249.7L310.138 252.448C308.904 267.298 307.807 280.37 303.682 295.58Z" fill="#FFDDD4"/>
<path d="M308.106 268.903C282.293 256.801 282.742 262.808 281.383 269.798C281.096 271.266 280.573 277.049 280.112 278.355C279.663 279.611 278.13 276.004 277.993 271.701C277.806 266.067 277.594 261.826 274.553 258.654C272.858 256.888 270.128 256.403 268.258 257.958C266.289 259.6 265.865 259.699 267.598 261.515C269.368 263.381 269.305 267.149 269.218 271.527C269.168 274.076 269.118 276.9 269.417 279.822C269.417 280.146 269.505 280.768 269.654 281.626C269.779 282.447 269.941 283.28 270.14 284.126C271.661 291.277 275.388 304.883 279.14 310.306C282.281 314.845 281.807 329.782 281.458 333.936C280.224 348.5 273.418 452.213 273.418 452.213C273.256 462.61 304.517 462.61 304.454 455.508C304.18 426.704 306.212 374.369 306.324 322.743C306.349 312.383 311.634 306.139 313.055 296.7C317.455 267.286 312.344 270.893 308.106 268.903Z" fill="#FFDDD4"/>
<path d="M308.381 348.736L279.002 349.893L279.825 334.546L308.081 335.167L308.381 348.736Z" fill="white"/>
<path d="M319.536 454.153C314.55 467.05 266.887 475.681 264.693 462.026C259.296 428.445 277.482 341.237 277.482 341.237L310.699 341.336C310.699 341.336 330.754 425.137 319.536 454.153Z" fill="#85D1CF"/>
<path d="M307.546 268.704C301.264 263.629 294.421 269.263 293.125 272.348C291.218 269.599 283.353 265.495 278.255 271.763C273.68 277.385 277.569 283.23 279.426 284.81L295.829 298.204L309.104 281.725C310.599 279.785 313.18 273.268 307.546 268.704Z" fill="#EE77AD"/>
<path d="M52.4653 250.098C54.4845 249.302 56.4788 248.643 58.1739 248.058C58.8969 247.809 59.6198 247.573 60.3552 247.349C60.5671 239.551 60.6543 232.126 60.7291 225.025C60.8912 210.374 61.0407 196.544 62.2622 182.639C62.4492 180.5 60.8662 178.609 58.7099 178.423C56.5287 178.211 54.6715 179.816 54.4845 181.967C53.2381 196.171 53.0885 210.15 52.9265 224.938C52.8393 232.897 52.7395 241.255 52.4653 250.098Z" fill="#FFC0AF"/>
<path d="M58.6099 241.74C61.19 242.001 63.7576 242.325 66.3252 242.673C70.5631 213.222 72.308 185.96 71.7347 175.811C71.6101 173.659 69.7778 172.03 67.6215 172.142C65.4652 172.267 63.8199 174.107 63.9446 176.259C64.5054 186.171 62.7854 212.874 58.6099 241.74Z" fill="#FFC0AF"/>
<path d="M68.0454 242.71C70.638 242.996 73.2181 243.344 75.7857 243.755C78.7896 220.137 81.1079 198.509 79.7493 183.646C79.5499 181.507 77.6553 179.928 75.5115 180.127C73.3676 180.326 71.7847 182.216 71.9841 184.355C73.2679 198.434 70.987 219.565 68.0454 242.71Z" fill="#FFC0AF"/>
<path d="M76.085 243.63C78.3036 244.178 80.5098 244.775 82.691 245.434C86.8167 229.713 87.8263 216.256 88.9605 200.946L89.1599 198.198C89.297 196.32 87.901 194.678 86.0065 194.541C84.1244 194.404 82.4916 195.81 82.342 197.688L82.1426 200.436C81.0582 215.299 80.0735 228.383 76.085 243.63Z" fill="#FFC0AF"/>
<path d="M80.3348 218.072C54.7707 205.461 55.0948 211.468 53.5991 218.421C53.2875 219.888 52.6393 225.659 52.1532 226.952C51.6796 228.196 50.2213 224.564 50.1714 220.249C50.0966 214.615 49.9844 210.361 46.993 207.14C45.3353 205.349 42.6181 204.789 40.7111 206.319C38.7043 207.924 38.2805 208.011 39.9757 209.864C41.7082 211.754 41.5586 215.535 41.3841 219.901C41.2844 222.45 41.1722 225.261 41.4091 228.196C41.4091 228.519 41.4714 229.141 41.6085 229.999C41.7207 230.833 41.8702 231.666 42.0447 232.499C43.4283 239.675 46.8684 253.356 50.5079 258.853C53.5492 263.455 52.7764 278.38 52.3402 282.534C50.8195 297.073 41.8952 400.624 41.8952 400.624C41.5212 411.021 72.7691 411.643 72.8563 404.554C73.1804 375.762 76.2715 323.476 77.4182 271.85C77.655 261.49 83.0645 255.359 84.6724 245.956C89.7079 216.63 84.5353 220.149 80.3348 218.072Z" fill="#FFC0AF"/>
<path d="M47.5171 322.245L77.9672 325.118L80.2357 283.964L49.7856 281.091L47.5171 322.245Z" fill="#84D2D2"/>
<path d="M35.7755 435.087C44.326 447.872 92.4129 444.676 88.9603 433.01C80.2354 403.571 82.3169 294.548 82.3169 294.548L46.5321 294.473C46.5197 294.461 17.0293 407.054 35.7755 435.087Z" fill="#2D295C"/>
<path d="M85.2585 223.507C81.1578 216.256 72.4328 219.08 70.0148 221.555C69.2295 218.197 63.2218 211.269 55.9551 215.361C49.4239 219.042 50.9321 226.119 52.1286 228.345L62.798 247.411L81.8059 236.591C83.9872 235.31 88.948 230.024 85.2585 223.507Z" fill="#EE77AD"/>
<path d="M210.175 233.469C212.331 232.325 214.463 231.318 216.282 230.435C217.055 230.062 217.84 229.701 218.626 229.34C217.616 221.206 216.519 213.495 215.472 206.108C213.303 190.885 211.259 176.52 210.412 161.881C210.275 159.63 208.193 157.927 205.738 158.076C203.257 158.213 201.413 160.178 201.55 162.429C202.422 177.378 204.491 191.905 206.672 207.277C207.832 215.56 209.066 224.241 210.175 233.469Z" fill="#FFC0AF"/>
<path d="M214.824 224.005C217.778 224.079 220.72 224.191 223.661 224.365C225.768 193.198 225.257 164.531 223.661 153.947C223.325 151.708 221.094 150.141 218.651 150.439C216.22 150.738 214.525 152.802 214.861 155.041C216.419 165.376 216.906 193.459 214.824 224.005Z" fill="#FFC0AF"/>
<path d="M224.172 223.234C227.126 223.482 230.068 223.781 232.997 224.142C235.615 199.292 237.522 176.532 235.477 160.961C235.178 158.723 232.972 157.106 230.542 157.367C228.111 157.628 226.379 159.643 226.665 161.894C228.597 176.657 226.728 198.882 224.172 223.234Z" fill="#FFC0AF"/>
<path d="M234.941 224.888C237.509 225.311 240.064 225.796 242.594 226.33C245.922 209.578 245.91 195.399 245.885 179.293V176.408C245.885 174.431 244.152 172.814 241.996 172.789C239.852 172.764 238.12 174.356 238.12 176.333V179.231C238.132 194.877 238.145 208.645 234.941 224.888Z" fill="#FFC0AF"/>
<path d="M236.313 197.837C206.324 186.445 207.159 192.713 206 200.113C205.75 201.668 205.476 207.762 205.015 209.142C204.579 210.486 202.634 206.779 202.235 202.265C201.724 196.37 201.251 191.93 197.611 188.758C195.592 186.992 192.464 186.619 190.419 188.348C188.276 190.163 187.789 190.288 189.871 192.116C191.99 193.982 192.114 197.937 192.252 202.526C192.339 205.2 192.426 208.16 192.925 211.219C192.937 211.555 193.074 212.202 193.286 213.097C193.473 213.956 193.71 214.826 193.984 215.684C196.103 223.097 201.076 237.176 205.638 242.685C209.452 247.287 209.726 262.97 209.552 267.348C208.954 282.683 206.86 391.744 206.86 391.744C207.246 402.651 242.757 401.084 242.295 393.646C240.426 363.462 239.877 308.502 237.185 254.364C236.649 243.506 242.32 236.691 243.417 226.728C246.845 195.661 241.248 199.715 236.313 197.837Z" fill="#FFC0AF"/>
<path d="M204.304 272.31L243.168 270.681L242.108 258.605L205.127 259.04L204.304 272.31Z" fill="#85D1CF"/>
<path d="M190.12 466.391C193.971 481.589 278.329 462.585 271.761 448.345C250.16 401.494 244.9 268.579 244.9 268.579L201.924 268.753C201.924 268.766 177.444 416.431 190.12 466.391Z" fill="#3155A3"/>
<path d="M239.167 197.539C233.445 192.029 225.743 196.494 224.035 199.23C222.452 196.432 214.986 191.631 209.003 196.904C203.631 201.63 206.809 207.588 208.492 209.279L223.412 223.806L239.042 209.926C240.824 208.297 244.302 202.489 239.167 197.539Z" fill="#F36E4D"/>
<path d="M427.015 275.42C428.822 274.226 430.642 273.169 432.175 272.236C432.823 271.838 433.497 271.465 434.157 271.079C432.736 263.405 431.265 256.13 429.869 249.165C426.978 234.813 424.236 221.256 422.528 207.401C422.266 205.262 420.322 203.745 418.178 204.018C416.009 204.267 414.514 206.22 414.788 208.359C416.533 222.512 419.3 236.218 422.229 250.72C423.787 258.518 425.445 266.714 427.015 275.42Z" fill="#FFC0AF"/>
<path d="M432.649 267.149C435.217 266.801 437.797 266.49 440.364 266.229C437.473 236.616 432.686 209.715 429.707 199.989C429.072 197.937 426.903 196.78 424.834 197.402C422.777 198.036 421.618 200.213 422.241 202.265C425.17 211.767 429.844 238.108 432.649 267.149Z" fill="#FFC0AF"/>
<path d="M440.913 263.965C443.505 263.704 446.098 263.492 448.69 263.343C446.584 239.638 444.253 218.01 439.753 203.77C439.105 201.718 436.924 200.586 434.855 201.22C432.798 201.867 431.652 204.056 432.3 206.108C436.575 219.602 438.856 240.733 440.913 263.965Z" fill="#FFC0AF"/>
<path d="M448.902 261.826C451.183 261.826 453.477 261.888 455.758 262C456.007 245.745 453.763 232.437 451.208 217.301L450.747 214.59C450.435 212.737 448.678 211.481 446.808 211.792C444.951 212.102 443.692 213.856 444.004 215.722L444.465 218.445C446.946 233.146 449.127 246.081 448.902 261.826Z" fill="#FFC0AF"/>
<path d="M447.581 238.307C419.948 231.28 421.518 237.089 421.506 244.203C421.506 245.695 422.079 251.478 421.867 252.846C421.668 254.165 419.474 250.906 418.527 246.702C417.281 241.205 416.271 237.076 412.681 234.539C410.687 233.134 407.907 233.158 406.362 235.049C404.742 237.026 404.33 237.2 406.387 238.668C408.481 240.161 409.116 243.879 409.864 248.195C410.301 250.707 410.774 253.481 411.622 256.304C411.684 256.615 411.884 257.212 412.195 258.033C412.482 258.816 412.793 259.612 413.142 260.396C415.984 267.124 422.216 279.785 426.915 284.412C430.854 288.28 430.418 311.947 430.854 316.089C432.4 330.628 448.08 424.851 448.08 424.851C449.887 435.099 480.574 429.216 479.178 422.264C473.482 394.032 465.592 342.256 455.957 291.526C454.025 281.352 458.039 274.213 457.652 264.686C456.456 234.949 452.131 239.464 447.581 238.307Z" fill="#FFC0AF"/>
<path d="M462.563 301.6L427.464 302.246C427.464 302.246 437.535 405.648 425.906 450.832C424.522 456.192 446.896 458.058 446.896 458.058L446.821 454.887C446.821 454.887 477.408 461.18 479.34 453.282C491.542 403.161 462.563 301.6 462.563 301.6Z" fill="#0B928E"/>
<path d="M452.604 241.678C447.02 235.111 438.706 239.675 436.737 242.66C435.279 239.402 427.838 233.532 421.244 239.103C415.336 244.103 418.253 251.006 419.885 253.033L434.456 270.32L451.657 255.632C453.601 253.916 457.615 247.573 452.604 241.678Z" fill="#F36E4D"/>
<path d="M153.55 271.688C153.911 275.308 153.674 279.051 154.086 282.683C155.145 291.973 156.217 301.264 157.289 310.567C157.775 314.783 167.522 416.481 168.008 420.697L139.228 428.383C139.228 428.383 133.445 315.915 129.195 307.594C124.159 297.732 113.353 287.21 111.533 275.332C108.404 254.861 114.524 251.615 128.26 252.423C136.586 252.908 143.815 257.833 149.449 263.642C151.393 265.644 152.914 267.335 153.35 270.159C153.438 270.656 153.5 271.166 153.55 271.688Z" fill="#FFB17A"/>
<path d="M136.187 261.838C147.991 262.684 152.802 276.825 152.677 279.847C152.104 293.453 136.312 290.506 127.499 289.71C118.687 288.901 110.673 265.457 117.877 260.159C120.32 258.368 127.362 261.216 136.187 261.838Z" fill="#FFA15E"/>
<path d="M168.096 380.413L133.009 382.416L134.293 369.22L164.07 367.615L168.096 380.413Z" fill="#EE78AC"/>
<path d="M184.536 437.164L123.112 437.636L126.453 389.542C126.839 383.983 131.376 379.617 136.948 379.431L164.344 378.498C169.741 378.311 174.465 382.105 175.437 387.415L184.536 437.164Z" fill="#EE78AC"/>
<path d="M161.509 324.068L130.759 326.968L131.199 331.612L161.949 328.712L161.509 324.068Z" fill="#85D1CF"/>
<path d="M162.432 335.821L131.681 338.721L132.121 343.365L162.871 340.464L162.432 335.821Z" fill="#0B928E"/>
<path d="M161.857 329.728L131.106 332.628L131.546 337.271L162.297 334.371L161.857 329.728Z" fill="#2F559E"/>
<path d="M157.027 220.298C142.718 213.868 132.66 227.86 131.762 234.278C126.827 230.062 110.012 226.256 103.568 240.534C97.7849 253.356 107.981 262.41 112.256 264.438L149.698 281.464L166.413 243.954C168.27 239.588 169.878 226.069 157.027 220.298Z" fill="#EE77AD"/>
<path d="M123.985 258.331C123.985 258.331 124.072 258.605 124.234 259.139C124.371 259.662 124.546 260.445 124.621 261.49C124.832 263.604 124.222 266.763 122.838 271.601C120.507 279.685 121.118 287.309 125.468 294.548C127.762 298.378 129.793 303.005 132.548 306.375C136.05 310.654 141.672 307.569 143.217 303.191C144.788 298.764 147.991 294.884 146.146 290.518C143.703 284.747 136.524 282.285 134.044 276.514C132.261 272.397 132.997 266.962 133.034 266.589C133.308 263.816 132.473 260.669 130.566 259.164C128.647 257.597 126.204 257.523 123.985 258.331Z" fill="#FFB17A"/>
<g clip-path="url(#clip0)">
<path d="M120.574 109.796C118.346 109.796 116.517 107.987 116.517 105.75C116.517 103.527 118.33 101.703 120.574 101.703C122.802 101.703 124.63 103.512 124.63 105.75C124.63 107.972 122.817 109.796 120.574 109.796ZM120.574 103.527C119.344 103.527 118.33 104.523 118.33 105.765C118.33 106.991 119.329 108.003 120.574 108.003C121.803 108.003 122.817 107.006 122.817 105.765C122.817 104.523 121.818 103.527 120.574 103.527Z" fill="#F6DDE2"/>
<path d="M274.229 138.399C272.001 138.399 270.173 136.59 270.173 134.352C270.173 132.129 271.986 130.305 274.229 130.305C276.457 130.305 278.286 132.114 278.286 134.352C278.286 136.59 276.473 138.399 274.229 138.399ZM274.229 132.129C273 132.129 271.986 133.126 271.986 134.367C271.986 135.594 272.985 136.605 274.229 136.605C275.459 136.605 276.473 135.609 276.473 134.367C276.473 133.141 275.474 132.129 274.229 132.129Z" fill="white"/>
<path d="M280.459 14.8601L278.319 16.9956L279.797 18.4694L281.937 16.3339L280.459 14.8601Z" fill="white"/>
<path d="M275.691 19.6544L273.542 21.8035L275.022 23.2754L277.17 21.1264L275.691 19.6544Z" fill="white"/>
<path d="M275.012 14.8567L273.535 16.3315L275.677 18.4655L277.154 16.9907L275.012 14.8567Z" fill="white"/>
<path d="M279.802 19.6435L278.324 21.1169L280.474 23.2639L281.952 21.7905L279.802 19.6435Z" fill="white"/>
<path d="M181.329 49.7432L179.189 51.8784L180.667 53.3525L182.807 51.2173L181.329 49.7432Z" fill="white"/>
<path d="M176.534 54.5284L174.385 56.6771L175.865 58.1493L178.013 56.0005L176.534 54.5284Z" fill="white"/>
<path d="M175.862 49.7356L174.385 51.2104L176.527 53.3444L178.004 51.8696L175.862 49.7356Z" fill="white"/>
<path d="M180.671 54.524L179.193 55.9972L181.343 58.1444L182.821 56.6712L180.671 54.524Z" fill="white"/>
<path d="M469.421 73.4533L467.27 75.599L468.747 77.0733L470.899 74.9275L469.421 73.4533Z" fill="white"/>
<path d="M464.617 78.2283L462.469 80.3777L463.949 81.8494L466.097 79.7001L464.617 78.2283Z" fill="white"/>
<path d="M463.976 73.4801L462.499 74.9548L464.64 77.0891L466.117 75.6144L463.976 73.4801Z" fill="white"/>
<path d="M468.746 78.2384L467.268 79.7118L469.418 81.8587L470.896 80.3853L468.746 78.2384Z" fill="white"/>
<path d="M6.95388 114.607L4.81348 116.742L6.29112 118.216L8.43152 116.081L6.95388 114.607Z" fill="#FCD901"/>
<path d="M2.14523 119.394L-0.00634766 121.539L1.47108 123.014L3.62266 120.868L2.14523 119.394Z" fill="#FCD901"/>
<path d="M1.47443 114.61L-0.00195312 116.086L2.15114 118.23L3.62753 116.754L1.47443 114.61Z" fill="#FCD901"/>
<path d="M6.9449 123.009L4.80908 120.863L6.28418 119.391L8.43536 121.537L6.9449 123.009Z" fill="#FCD901"/>
<path d="M392.836 110.179H389.793V112.279H392.836V110.179Z" fill="white"/>
<path d="M386.044 110.179H383.002V112.279H386.044V110.179Z" fill="white"/>
<path d="M388.964 106.317H386.874V109.352H388.964V106.317Z" fill="white"/>
<path d="M388.964 113.092H386.874V116.127H388.964V113.092Z" fill="white"/>
<path d="M118.56 40.8037H115.518V42.9037H118.56V40.8037Z" fill="#F6DDE2"/>
<path d="M111.769 40.8037H108.727V42.9037H111.769V40.8037Z" fill="#F6DDE2"/>
<path d="M114.688 36.9564H112.583V39.9914H114.688V36.9564Z" fill="#F6DDE2"/>
<path d="M114.688 43.7314H112.583V46.7664H114.688V43.7314Z" fill="#F6DDE2"/>
<path d="M323.184 73.3912H320.142V75.4912H323.184V73.3912Z" fill="#F6DDE2"/>
<path d="M316.393 73.3912H313.35V75.4912H316.393V73.3912Z" fill="#F6DDE2"/>
<path d="M319.312 69.5288H317.207V72.5638H319.312V69.5288Z" fill="#F6DDE2"/>
<path d="M319.312 76.3038H317.207V79.3388H319.312V76.3038Z" fill="#F6DDE2"/>
<path d="M85.3861 157.053H82.3438V159.153H85.3861V157.053Z" fill="white"/>
<path d="M78.5946 157.053H75.5522V159.153H78.5946V157.053Z" fill="white"/>
<path d="M81.5138 153.19H79.4087V156.225H81.5138V153.19Z" fill="white"/>
<path d="M81.5138 159.965H79.4087V163H81.5138V159.965Z" fill="white"/>
<path d="M484 146.614H480.958V148.714H484V146.614Z" fill="#7FD9E3"/>
<path d="M477.208 146.614H474.166V148.714H477.208V146.614Z" fill="#7FD9E3"/>
<path d="M480.143 142.767H478.038V145.802H480.143V142.767Z" fill="#7FD9E3"/>
<path d="M480.143 149.542H478.038V152.577H480.143V149.542Z" fill="#7FD9E3"/>
<path d="M247.017 77.8367C245.649 76.4725 243.882 77.6528 243.498 78.3426C243.114 77.6375 241.347 76.4725 239.979 77.8367C238.75 79.063 239.534 80.5345 239.933 80.9637L243.483 84.5505L247.032 80.9637C247.462 80.5498 248.246 79.063 247.017 77.8367Z" fill="#FCD901"/>
<path d="M47.7408 65.007C46.3732 63.6428 44.6062 64.8231 44.2221 65.5129C43.8379 64.8078 42.0709 63.6428 40.7033 65.007C39.4741 66.2333 40.2577 67.7048 40.6572 68.134L44.2067 71.7208L47.7715 68.134C48.2017 67.7048 48.97 66.2333 47.7408 65.007Z" fill="#F6DDE2"/>
<path d="M397.154 31.3463C395.786 29.9821 394.019 31.1623 393.635 31.8521C393.251 31.147 391.484 29.9821 390.116 31.3463C388.887 32.5725 389.671 34.044 390.07 34.4732L393.635 38.06L397.185 34.4732C397.615 34.044 398.383 32.5572 397.154 31.3463Z" stroke="#F6DDE2" stroke-width="0.8" stroke-miterlimit="10"/>
<path d="M159.402 0.628617C158.035 -0.735592 156.268 0.444679 155.884 1.13445C155.5 0.429351 153.732 -0.735592 152.365 0.628617C151.136 1.85487 151.919 3.32638 152.319 3.75557L155.868 7.34237L159.418 3.75557C159.848 3.32638 160.632 1.85487 159.402 0.628617Z" fill="#EE77AD"/>
</g>
<defs>
<clipPath id="clip0">
<rect width="484" height="163" fill="white"/>
</clipPath>
</defs>
</svg>
